<svg xmlns="http://www.w3.org/2000/svg" xmlns:xlink="http://www.w3.org/1999/xlink" width="127.56" height="57.32" viewBox="0 0 127.56 57.32">
  <metadata><?xpacket begin="﻿" id="W5M0MpCehiHzreSzNTczkc9d"?>
<x:xmpmeta xmlns:x="adobe:ns:meta/" x:xmptk="Adobe XMP Core 5.6-c138 79.159824, 2016/09/14-01:09:01        ">
   <rdf:RDF xmlns:rdf="http://www.w3.org/1999/02/22-rdf-syntax-ns#">
      <rdf:Description rdf:about=""/>
   </rdf:RDF>
</x:xmpmeta>
                                                                                                    
                                                                                                    
                                                                                                    
                                                                                                    
                                                                                                    
                                                                                                    
                                                                                                    
                                                                                                    
                                                                                                    
                                                                                                    
                                                                                                    
                                                                                                    
                                                                                                    
                                                                                                    
                                                                                                    
                                                                                                    
                                                                                                    
                                                                                                    
                                                                                                    
                                                                                                    
                           
<?xpacket end="w"?></metadata>
<defs>
    <style>
      .cls-1 {
        fill-rule: evenodd;
        fill: url(#linear-gradient);
      }
    </style>
    <linearGradient id="linear-gradient" x1="1246.06" y1="3993.66" x2="1246.06" y2="3936.34" gradientUnits="userSpaceOnUse">
      <stop offset="0" stop-color="#fff"/>
      <stop offset="1" stop-color="#fff" stop-opacity="0"/>
    </linearGradient>
  </defs>
  <path id="Прямоугольник_скругл._углы_14" data-name="Прямоугольник, скругл. углы 14" class="cls-1" d="M1303.01,3974.34a0.488,0.488,0,0,0-.69-0.12,0.5,0.5,0,0,0-.12.7c6.01,8.53,6.63,14.67,6.6,17.03a174.233,174.233,0,0,0-84.05-50.4c-24.48-6.33-42.31-5.12-42.48-5.11l0.07,1c0.18-.01,17.84-1.21,42.16,5.08a173.309,173.309,0,0,1,83.6,50.14c-7.63-.07-18.13-7.19-18.24-7.27a0.487,0.487,0,0,0-.69.13,0.5,0.5,0,0,0,.13.7c0.48,0.33,11.94,8.1,19.96,7.4h0a0.471,0.471,0,0,0,.26-0.11,0.138,0.138,0,0,0,.04-0.03,0.493,0.493,0,0,0,.14-0.24c0-.01.01-0.01,0.01-0.02C1309.77,3992.92,1311.03,3985.73,1303.01,3974.34Z" transform="translate(-1182.28 -3936.34)"/>
</svg>
