<svg xmlns="http://www.w3.org/2000/svg" width="27.25" height="30" viewBox="0 0 27.25 30">
  <metadata><?xpacket begin="﻿" id="W5M0MpCehiHzreSzNTczkc9d"?>
<x:xmpmeta xmlns:x="adobe:ns:meta/" x:xmptk="Adobe XMP Core 5.6-c138 79.159824, 2016/09/14-01:09:01        ">
   <rdf:RDF xmlns:rdf="http://www.w3.org/1999/02/22-rdf-syntax-ns#">
      <rdf:Description rdf:about=""/>
   </rdf:RDF>
</x:xmpmeta>
                                                                                                    
                                                                                                    
                                                                                                    
                                                                                                    
                                                                                                    
                                                                                                    
                                                                                                    
                                                                                                    
                                                                                                    
                                                                                                    
                                                                                                    
                                                                                                    
                                                                                                    
                                                                                                    
                                                                                                    
                                                                                                    
                                                                                                    
                                                                                                    
                                                                                                    
                                                                                                    
                           
<?xpacket end="w"?></metadata>
<defs>
    <style>
      .cls-1 {
        fill: #e83360;
        fill-rule: evenodd;
      }
    </style>
  </defs>
  <path class="cls-1" d="M1593.43,1400.84a0.754,0.754,0,0,0-1.06,0,0.746,0.746,0,0,0-.01,1.06l1.8,1.81a0.749,0.749,0,0,0,.53.22h0a0.749,0.749,0,0,0,.53-0.22l5.47-5.44a0.75,0.75,0,1,0-1.06-1.06l-1.65,1.64a4.715,4.715,0,1,0,1.13,4.65,0.751,0.751,0,0,0-.5-0.94,0.771,0.771,0,0,0-.95.51,3.206,3.206,0,1,1-.75-3.15l-2.21,2.2Zm1.16,6.64a4.72,4.72,0,1,0,4.72,4.72A4.729,4.729,0,0,0,1594.59,1407.48Zm0,7.93a3.21,3.21,0,1,1,3.21-3.21A3.214,3.214,0,0,1,1594.59,1415.41Zm4.72,6.86a4.72,4.72,0,1,0-4.72,4.72A4.729,4.729,0,0,0,1599.31,1422.27Zm-4.72,3.22a3.21,3.21,0,1,1,3.21-3.21A3.214,3.214,0,0,1,1594.59,1425.49Zm21.78-14.05h-14.66a0.76,0.76,0,0,0,0,1.52h14.66A0.76,0.76,0,0,0,1616.37,1411.44Zm0-10.05h-14.66a0.743,0.743,0,0,0-.75.75,0.751,0.751,0,0,0,.75.76h14.66a0.76,0.76,0,0,0,.76-0.76A0.751,0.751,0,0,0,1616.37,1401.39Zm0,20.13h-14.66a0.755,0.755,0,0,0,0,1.51h14.66A0.755,0.755,0,1,0,1616.37,1421.52Z" transform="translate(-1589.88 -1397)"/>
</svg>
