<svg xmlns="http://www.w3.org/2000/svg" width="60" height="72.85" viewBox="0 0 60 72.85">
  <metadata><?xpacket begin="﻿" id="W5M0MpCehiHzreSzNTczkc9d"?>
<x:xmpmeta xmlns:x="adobe:ns:meta/" x:xmptk="Adobe XMP Core 5.6-c138 79.159824, 2016/09/14-01:09:01        ">
   <rdf:RDF xmlns:rdf="http://www.w3.org/1999/02/22-rdf-syntax-ns#">
      <rdf:Description rdf:about=""/>
   </rdf:RDF>
</x:xmpmeta>
                                                                                                    
                                                                                                    
                                                                                                    
                                                                                                    
                                                                                                    
                                                                                                    
                                                                                                    
                                                                                                    
                                                                                                    
                                                                                                    
                                                                                                    
                                                                                                    
                                                                                                    
                                                                                                    
                                                                                                    
                                                                                                    
                                                                                                    
                                                                                                    
                                                                                                    
                                                                                                    
                           
<?xpacket end="w"?></metadata>
<defs>
    <style>
      .cls-1 {
        fill: #cdcdcd;
        fill-rule: evenodd;
      }
    </style>
  </defs>
  <path class="cls-1" d="M1323.82,2530.94h-33.46l1.47-3.52a1.2,1.2,0,0,0,0-.91,1.181,1.181,0,0,0-.63-0.65l-5.59-2.38a1.174,1.174,0,0,0-1.55.63l-3.26,7.81a6.386,6.386,0,0,0-3.21-2.98l-2.74-1.17a1.175,1.175,0,0,0-1.55.64l-2.05,4.91a6.561,6.561,0,0,0-.03,5,6.666,6.666,0,0,0,.5,1,6.477,6.477,0,0,0-4.58,3.85l-2.05,4.91a1.151,1.151,0,0,0-.01.91,1.167,1.167,0,0,0,.64.65l2.74,1.17a6.308,6.308,0,0,0,2.51.52,6.4,6.4,0,0,0,1.84-.27l-3.26,7.8a1.21,1.21,0,0,0,.63,1.57l5.59,2.38a1.216,1.216,0,0,0,.46.09,1.177,1.177,0,0,0,1.09-.73l10.39-24.9v22.01a3.606,3.606,0,0,0,3.59,3.62h30.12a3.6,3.6,0,0,0,3.58-3.62v-27.14A1.193,1.193,0,0,0,1323.82,2530.94Zm-50.39,3.31,1.59-3.81,1.65,0.7a4.084,4.084,0,0,1,2.21,2.26,4.217,4.217,0,0,1-.02,3.18l-1.59,3.81-1.65-.71a4.084,4.084,0,0,1-2.21-2.26A4.145,4.145,0,0,1,1273.43,2534.25Zm-0.91,14.38a4.026,4.026,0,0,1-3.14-.02l-1.65-.71,1.59-3.81a4.1,4.1,0,0,1,5.38-2.2l1.65,0.7-1.59,3.81A4.115,4.115,0,0,1,1272.52,2548.63Zm3.08,11.51-3.41-1.45,4.75-11.36,8.84-21.18,3.41,1.45Zm33.06,0.37h-4.6v-21.58a1.185,1.185,0,1,0-2.37,0v21.58H1291.3a1.227,1.227,0,0,1-1.22-1.23v-25.94h18.58v27.17h0Zm13.97-1.23a1.219,1.219,0,0,1-1.21,1.23h-10.4v-27.17h11.61v25.94h0Zm-11.33-64.13-1.79-1.35,0.08-2.27a1.393,1.393,0,0,0-.72-1.27,1.363,1.363,0,0,0-1.44.09l-1.83,1.31-2.1-.78a1.377,1.377,0,0,0-1.42.3,1.4,1.4,0,0,0-.36,1.41l0.67,2.17-1.38,1.78a1.363,1.363,0,0,0-.16,1.45,1.33,1.33,0,0,0,1.22.78l2.24,0.03,1.25,1.88a1.337,1.337,0,0,0,1.13.61,1.087,1.087,0,0,0,.18-0.01,1.378,1.378,0,0,0,1.12-.93l0.72-2.14,2.15-.62A1.389,1.389,0,0,0,1311.3,2495.15Zm-3.75.9a1.366,1.366,0,0,0-.92.89l-0.24.71-0.41-.63a1.394,1.394,0,0,0-1.12-.61l-0.74-.01,0.46-.58a1.444,1.444,0,0,0,.23-1.27l-0.22-.72,0.69,0.26a1.322,1.322,0,0,0,1.26-.17l0.61-.43-0.03.75a1.385,1.385,0,0,0,.55,1.16l0.6,0.44Zm-0.65,19.53a67.048,67.048,0,0,0-1.68-10.43,1.178,1.178,0,0,0-1.43-.88,1.194,1.194,0,0,0-.86,1.45,65.488,65.488,0,0,1,1.55,21.33,1.183,1.183,0,0,0,1.06,1.3,0.487,0.487,0,0,0,.12.01,1.184,1.184,0,0,0,1.17-1.09A67.113,67.113,0,0,0,1306.9,2515.58Zm-3.54,11.54a18.679,18.679,0,0,0-13.84-16.43,1.181,1.181,0,0,0-1.45.85,1.193,1.193,0,0,0,.84,1.46,16.293,16.293,0,0,1,12.09,14.35,1.192,1.192,0,0,0,1.18,1.08h0.11A1.2,1.2,0,0,0,1303.36,2527.12Zm20.09-14.59a16.247,16.247,0,0,0-15.42,14.42,1.207,1.207,0,0,0,1.04,1.33c0.05,0,.09.01,0.14,0.01a1.187,1.187,0,0,0,1.17-1.06,14.221,14.221,0,0,1,3.98-8.28,14.028,14.028,0,0,1,9.19-4.03A1.2,1.2,0,0,0,1323.45,2512.53Zm-25.53-11.48a4.164,4.164,0,0,0-5.93-.15,4.284,4.284,0,0,0-.15,6,4.159,4.159,0,0,0,2.94,1.31h0.1a4.1,4.1,0,0,0,2.89-1.17,4.209,4.209,0,0,0,1.31-2.97A4.27,4.27,0,0,0,1297.92,2501.05Zm-1.78,4.26a1.82,1.82,0,0,1-2.58-.06,1.869,1.869,0,0,1,.06-2.62,1.813,1.813,0,0,1,2.59.07A1.866,1.866,0,0,1,1296.14,2505.31Zm20.39-.72a4.175,4.175,0,0,0-5.94-.14,4.24,4.24,0,0,0-1.3,2.97,4.185,4.185,0,0,0,1.16,3.02,4.158,4.158,0,0,0,5.93.15A4.284,4.284,0,0,0,1316.53,2504.59Zm-1.78,4.27a1.824,1.824,0,0,1-2.59-.07,1.857,1.857,0,0,1,.07-2.61,1.812,1.812,0,0,1,2.58.06A1.869,1.869,0,0,1,1314.75,2508.86Z" transform="translate(-1265 -2490.06)"/>
</svg>
