<?xml version="1.0" encoding="utf-8"?>
<!-- Generator: Adobe Illustrator 21.0.1, SVG Export Plug-In . SVG Version: 6.00 Build 0)  -->
<svg version="1.1" id="dearia" xmlns="http://www.w3.org/2000/svg" xmlns:xlink="http://www.w3.org/1999/xlink" x="0px" y="0px"
	 viewBox="0 0 143.9 49" style="enable-background:new 0 0 143.9 49;" xml:space="preserve">
<style type="text/css">
	.st0{fill:#FFFFFF;}
</style>
<g>
	<g>
		<path class="st0" d="M37.4,2.6C33.1,2.6,26.9,10,25,13.9c-0.1,0.2-0.2,0.3-0.4,0.3c-0.1,0-0.2-0.1-0.2-0.3c0-1.6,3.4-9.5,3.4-10.8
			c0-1.1-1-2.1-1.6-2.1c-2.7,0-9.8,8.6-16.9,8.6c-2.9,0-6.2-0.5-6.2-3.9c0-2.2,1.1-2.9,1.1-4c0-1-0.6-1.7-1.5-1.7C0.7,0,0,2.5,0,4.5
			c0,5.7,5.1,6.9,9,6.9c5.7,0,11.1-4.8,14.4-6.6c0.1,0.3,0.1,0.4,0.1,0.6c0,0.2-9.6,27.8-9.6,30.1c0,1.1,1.1,2,1.9,2
			c1.8,0,1.2-2.9,7.3-15.3c2.7-5.6,9.2-18,15.3-18c1.8,0,2.5,1.9,2.5,4.6c0,15.3-11.6,38-27.3,38c-5.4,0-9.6-4.4-9.6-9.6
			c0-4.8,1.7-6.3,4.6-8.5c0.2-0.2,0.4-0.5,0.4-0.8c0-0.6-0.4-1-1.5-1c-2.1,0-5.8,3.9-5.8,9.1C2,44.2,8.6,49,15.4,49
			c15.8,0,29.2-22.6,29.2-38.4C44.6,5,41.8,2.6,37.4,2.6z M48.6,33.5c0.3,0.1,2,0,2.2,0c0.8-0.1,1.2-0.4,1.2-0.8
			c0-0.4-0.3-0.7-1.2-0.7c-0.6,0-0.9,0-1.5,0.1c-1.3,0-1.6-0.4-1.2-1.7c2.1-6.2,4.1-10.8,5.3-13.4c0.4-1,0.6-1.5,0.9-1.7
			c0.3-0.2,4-0.4,4.3-0.5c0.2,0,0.4-0.2,0.4-0.4c0.1-0.2-0.1-0.4-0.2-0.6c-0.2-0.2-0.5-0.3-0.7-0.3c-2,0-4,0-5.9,0.2
			c-0.8,0.1-1.5,0.5-1.8,1.2C46.8,22,45.4,26,43.3,33.6c-0.6,2.1-0.8,6.4,1.2,7.7c1.2,0.8,2.5,0.8,4,0.8c0.2,0,0.4-0.4,0.5-0.5
			c0.1-0.6-1-0.8-1.5-1c-0.9-0.2-1.1-0.8-1.2-1.6c-0.1-0.3-0.1-0.7-0.1-1.1c0.2-1.5,0.2-1.8,0.7-3.2C47.2,34,47.7,33.5,48.6,33.5z
			 M97.3,28.8c3.3-8.5,9.1-21.2,9.1-21.2c0.6-1.5,0.8-2.9,0.4-4.5c-0.3-1.2-2.5-2.9-4-2.9c-1.3,0-3.8,2-7.3,1.8
			C91.2,2,87.1,1.1,81.9,1.1c-7.8,0-11.9,4.1-11.9,8.7c0,3.9,2.5,6,6,6c1.7,0,4.3-1.7,5-3.4c0.8-1.9,0.4-2.4-1.2-3.2
			C79.2,9,78.6,9,78.5,9.6c-0.6,1.9-1.7,3.3-3.3,3.3c-2,0-3.6-0.9-3.6-3.8c0-3.6,3.4-6.4,10.5-6.4c5.5,0,10.3,1.8,15.9,1.1
			c-1.1,1.6-18.5,23-20.2,24.9c-0.7,0.8-1,0.9-2,0.3c-2.1-1.3-0.1-3.1-2.1-5.1c-0.3-0.3-0.9-0.3-1.2,0.2c-1.5,2.3,0.7,5.3,2.7,6.2
			c1.2,0.6,0.7,1-0.3,2.4c-4.2,6-11.2,13.7-16.5,13.7c-2.5,0-5.6-2.1-5.6-5.5c0-3.5,2.1-6.2,5.7-7.3c0.2-0.1,0.3-0.1,0.4-0.2
			c0.6-0.3,0.6-0.8,0.1-1.2c-1.1-1.1-3.1-0.7-4.5-0.2c-1.9,0.8-4.2,3.3-4.2,8.1c0,4.4,3,8.8,8.4,8.8c6.8,0,17.5-14,19.5-16.6
			c0.3-0.4,0.7-0.6,1.3-0.6c7.7,0.2,13.3-4,11.7,0.9c-1.6,5-2.4,12.3,1.6,15.2c0.3,0.3,0.8,0.4,1.3,0.6c0.4,0.1,1.9,0.2,1.7-0.2
			c-0.1-0.4-0.3-0.7-0.5-1.1c-2.7-4.8-0.4-10,0.6-14.1c0.2-0.8,0.7-1.3,1.6-1.2c0.1,0,0.2-0.1,0.2-0.2c0.1-0.6,0.1-0.6-0.3-1.2
			C97.2,29.7,97,29.3,97.3,28.8z M92.7,27.2c-0.3,0.6-0.7,1-1.4,1c-3.2-0.2-4.4,0.8-10,1.5c-0.3,0.1-0.7,0.1-1.2,0.1
			c-0.3,0,0.1-0.7,0.2-0.9l20.3-25.1c0.6-0.7,1.2-1.2,2.2-1.3C103,2.7,103,3,103,3.2c-0.1,0.5-0.3,1.1-0.5,1.6
			C97.9,15.2,95.6,20.3,92.7,27.2z M108.8,32.8c0.2-0.2,0.5-0.2,0.7-0.4c4.9-1.8,9-7.4,9-12.3c0-6.3-4.4-6.8-9.7-6.8
			c-1.3-0.1-2.1,0.3-2.7,1.5c0,0-5.8,18.4-7.5,23.1c-0.6,1.5-0.6,4.1,1.1,4.1c1.5,0,1.8-1.2,2.2-2.5c0.6-1.9,0.9-2.7,1.5-4.7
			c0.1-0.4,0.4-1.1,0.7-1.1c1.5,0,2.2,0.9,2.7,2.1c1.2,3,1.1,5.1,4.1,6.3c0.7,0.3,1.6,0.1,1.9-0.7c0.2-0.6-0.6-0.9-1.1-1.2
			c-0.6-0.3-1-0.8-1.1-1.5c-0.5-3.4-1.3-4.4-2.1-5C108.1,33.4,108.4,33,108.8,32.8z M105.2,31.3c-0.4,0-0.5-0.2-0.5-0.5
			c0-0.9,3-9,4.5-13.7c0.6-1.9,0.9-2.1,2.1-2.1c2.7,0,4,1.6,3.9,3.6C115.2,23.6,111.8,31.3,105.2,31.3z M126.8,13.4
			c-1,0-1.4,0.3-1.7,1s-8.8,23.1-9.3,25.5c-0.3,1.7,0.8,2.4,2.2,2.4c0.8,0,1.3-1.1,1.6-1.9l9.4-24.8
			C129.4,14.1,128.1,13.4,126.8,13.4z M140.7,13.3c-4.5,0-7.3,5.2-13,17.6c-0.1,0.2-0.2,0.5-0.3,0.7c-0.4,0.7-0.8,0.8-1.3,0.8
			c-0.6-0.2-1.1-0.7-1.5-1c-0.4-0.3-1,0-1.1,0.5c-0.1,1.4,1.2,1.6,1.8,1.9c0.5,0.2,0.7,0.5,0.5,1c-0.8,2.6-1.4,4-2.1,5.9
			c-0.1,0.4-0.3,1.3,0.2,1.4c0.3,0.1,0.6-0.3,0.7-0.6c0.9-2.2,1.6-4.1,2.6-6.2c0.4-0.8,0.8-1.2,1.6-1.3c3.9-0.4,3.9-0.5,4.8-0.3
			c0.4,0.1,0.7,0.5,0.6,1c-0.3,1.8-2,3.5-1.8,5.6c0,0.9,0.7,1.8,1.5,1.9c0.9,0.2,1.7-0.1,2.2-0.9c0.4-0.7,0.7-1.3,0.9-2.1
			c6-17.2,6.9-19.9,6.9-21.9C143.9,14.9,142.7,13.3,140.7,13.3z M140.4,17.8c-1.7,5-2.9,8.1-4.5,13c-0.1,0.3-0.2,0.5-0.3,0.7
			c-0.3,0.5-0.7,0.7-1.2,0.7c-1.3,0.1-3.2,0.2-4.5,0.1c-0.8-0.1-1.2-0.5-0.8-1.3c0.2-0.7,7.1-16,10.4-16
			C140.7,15.1,140.7,16.9,140.4,17.8z"/>
	</g>
</g>
</svg>
