<?xml version="1.0" encoding="utf-8"?>
<!-- Generator: Adobe Illustrator 21.0.1, SVG Export Plug-In . SVG Version: 6.00 Build 0)  -->
<svg version="1.1" id="Слой_3" xmlns="http://www.w3.org/2000/svg" xmlns:xlink="http://www.w3.org/1999/xlink" x="0px" y="0px"
	 viewBox="0 0 78.7 81.5" style="enable-background:new 0 0 78.7 81.5;" xml:space="preserve">
<style type="text/css">
	.st0{fill:url(#SVGID_1);}
</style>
<g>
	<g>
		<linearGradient id="SVGID_1" gradientUnits="userSpaceOnUse" x1="76.3962" y1="79.7983" x2="1.4685" y2="4.8707">
			<stop  offset="0" style="stop-color:#623AA2"/>
			<stop  offset="1" style="stop-color:#F97794"/>
		</linearGradient>
		<path class="st0" d="M61,8.2c0.7,0,1.4-0.6,1.4-1.4c0-0.8-0.6-1.4-1.4-1.4c-0.7,0-1.4,0.6-1.4,1.4C59.7,7.5,60.3,8.2,61,8.2z
			 M43.4,34c0.7,0,1.4-0.6,1.4-1.4c0-0.8-0.6-1.4-1.4-1.4c-0.7,0-1.4,0.6-1.4,1.4C42,33.4,42.7,34,43.4,34z M76,44.8v-19
			c0-6-4.9-10.9-10.9-10.9c-6,0-10.9,4.9-10.9,10.9v19c0,6,4.9,10.9,10.9,10.9C71.1,55.7,76,50.8,76,44.8z M57,25.8
			c0-4.5,3.6-8.2,8.1-8.2c4.5,0,8.1,3.7,8.1,8.2V34H57V25.8z M65.1,53c-4.5,0-8.1-3.7-8.1-8.2v-8.2h16.3v8.2
			C73.2,49.3,69.6,53,65.1,53z M28.8,49.5L15.4,63c-2,2-3.2,4.8-3.2,7.7c0,2.9,1.1,5.6,3.2,7.7c2,2,4.8,3.2,7.7,3.2
			c2.9,0,5.6-1.1,7.7-3.2l13.4-13.4c4.2-4.2,4.2-11.1,0-15.4C39.9,45.3,33,45.3,28.8,49.5z M28.8,76.4c-1.5,1.5-3.6,2.4-5.8,2.4
			c-2.2,0-4.2-0.8-5.8-2.4c-1.5-1.5-2.4-3.6-2.4-5.8c0-2.2,0.8-4.2,2.4-5.8l5.8-5.8l11.5,11.5L28.8,76.4z M42.2,63l-5.8,5.8L25,57.2
			l5.8-5.8c1.6-1.6,3.7-2.4,5.8-2.4c2.1,0,4.2,0.8,5.8,2.4C45.4,54.6,45.4,59.8,42.2,63z M16.6,32c2.1,2.1,4.9,3.2,7.7,3.2
			c2.8,0,5.6-1.1,7.7-3.2c4.2-4.2,4.2-11.1,0-15.4L18.5,3.2c-2-2-4.8-3.2-7.7-3.2C7.9,0,5.2,1.1,3.2,3.2c-2,2-3.2,4.8-3.2,7.7
			c0,2.9,1.1,5.6,3.2,7.7L16.6,32z M30,18.5c3.2,3.2,3.2,8.3,0,11.5c-3.2,3.2-8.3,3.2-11.5,0l-5.8-5.8l11.5-11.5L30,18.5z M5.1,5.1
			c1.5-1.5,3.6-2.4,5.8-2.4c2.2,0,4.2,0.8,5.8,2.4l5.8,5.8L10.8,22.4l-5.8-5.8c-1.5-1.5-2.4-3.6-2.4-5.8C2.7,8.7,3.6,6.6,5.1,5.1z
			 M15.2,47.5c0-0.7-0.6-1.4-1.4-1.4H9.7v-4.1c0-0.7-0.6-1.4-1.4-1.4c-0.7,0-1.4,0.6-1.4,1.4v4.1H2.9c-0.7,0-1.4,0.6-1.4,1.4
			c0,0.7,0.6,1.4,1.4,1.4H7V53c0,0.7,0.6,1.4,1.4,1.4c0.7,0,1.4-0.6,1.4-1.4v-4.1h4.1C14.5,48.9,15.2,48.3,15.2,47.5z M75.4,73.1
			l2.9-2.9c0.5-0.5,0.5-1.4,0-1.9c-0.5-0.5-1.4-0.5-1.9,0l-2.9,2.9l-2.9-2.9c-0.5-0.5-1.4-0.5-1.9,0c-0.5,0.5-0.5,1.4,0,1.9l2.9,2.9
			L68.7,76c-0.5,0.5-0.5,1.4,0,1.9c0.3,0.3,0.6,0.4,1,0.4c0.3,0,0.7-0.1,1-0.4l2.9-2.9l2.9,2.9c0.3,0.3,0.6,0.4,1,0.4
			c0.3,0,0.7-0.1,1-0.4c0.5-0.5,0.5-1.4,0-1.9L75.4,73.1z"/>
	</g>
</g>
</svg>
