<?xml version="1.0" encoding="utf-8"?>
<!-- Generator: Adobe Illustrator 21.0.1, SVG Export Plug-In . SVG Version: 6.00 Build 0)  -->
<svg version="1.1" id="Слой_1" xmlns="http://www.w3.org/2000/svg" xmlns:xlink="http://www.w3.org/1999/xlink" x="0px" y="0px"
	 viewBox="0 0 385.1 54.5" style="enable-background:new 0 0 385.1 54.5;" xml:space="preserve">
<style type="text/css">
	.st0{fill:#2E294E;}
</style>
<g>
	<g>
		<path class="st0" d="M26.2,4.1l-5.3-1L6.7,13.3L9.1,0.8L4.8,0L0,24.7l4.3,0.8l1.4-7.2l4.6-3.2L16.6,28l5.3,1l-8-16.2L26.2,4.1z
			 M36.8,12.7c-3-0.7-5.2-0.5-7.4-0.1l0.4,3.7c1.8-0.3,3.5-0.4,5.6,0.1c2.9,0.7,4.2,2.5,3.6,5l-0.1,0.4c-1.3-0.8-2.7-1.4-4.9-2
			c-4.3-1-8,0.2-8.9,4.3c-0.9,3.8,1.7,6.5,5.3,7.3c2.8,0.7,5-0.1,6.6-1.3l-0.5,2.3l4.2,1l2.5-11C44.3,17.4,42.3,13.9,36.8,12.7z
			 M38.1,25.7c-0.5,2.3-3,3.4-5.8,2.8c-2-0.5-3.3-1.8-2.9-3.6c0.4-1.9,2.3-2.6,4.9-2c1.6,0.4,3.1,1,4.1,1.7L38.1,25.7z M62.3,19
			l-10.2,6.9l2.1-8.9l-4.2-1l-4.4,18.5l4.2,1l1.1-4.4l3.8-2.5l3.8,9l5,1.2l-5.2-12.6l9-6.1L62.3,19z M86.6,24.1
			c-3.5-0.7-6.1,0.4-8,1.7l1.8,3.1c1.6-1.1,3.3-1.6,5.5-1.2c2.7,0.5,4.4,2.9,4.4,5.5L83,31.9L82.5,35l7.3,1.4
			c-1,2.5-3.6,4.1-6.4,3.6c-2.1-0.4-3.4-1.7-4.5-3.4l-3,2c1.4,2.4,3.4,4.2,7.1,5c5.5,1.1,10.5-2.5,11.5-7.8
			C95.4,30.5,92.3,25.2,86.6,24.1z M96.7,26.4l-0.5,3.7l6.1,0.8l-2,15.1l4.4,0.6l2-15.1l6.1,0.8l0.5-3.7L96.7,26.4z M123.9,29
			c-5.8-0.4-10.4,3.8-10.8,9.2c-0.4,5.5,3.6,10.2,9.4,10.6c5.9,0.4,10.5-3.8,10.9-9.2C133.7,34.1,129.7,29.4,123.9,29z M129,39.3
			c-0.2,3.3-2.7,5.9-6.2,5.7c-3.4-0.2-5.6-3.2-5.3-6.5c0.2-3.4,2.7-5.9,6.1-5.7C127,33,129.2,36,129,39.3z M147.9,49.5l4.4,0l0-15.3
			l8.2,0l0,15.3l4.4,0l0-19l-17,0L147.9,49.5z M178.2,28.1c-3,0.4-4.8,2.3-5.9,4.5l-0.5-3.1l-4.3,0.6l3.6,24.5l4.3-0.6l-1.3-8.6
			c1.6,1.6,3.8,2.8,6.9,2.4c4.5-0.7,8.2-4.8,7.3-11C187.4,30.3,182.6,27.4,178.2,28.1z M179.5,44.1c-2.9,0.4-5.8-1.6-6.4-5.2
			c-0.5-3.7,1.7-6.5,4.6-6.9c2.9-0.4,5.7,1.6,6.3,5.2C184.5,40.9,182.4,43.6,179.5,44.1z M199.3,24.3c-5.7,1.1-9.1,6.4-8,11.7
			c1.1,5.4,6.1,8.9,11.8,7.7c5.8-1.1,9.1-6.4,8.1-11.7C210,26.6,205,23.1,199.3,24.3z M202.4,40c-3.3,0.7-6.2-1.6-6.9-4.9
			c-0.7-3.3,1-6.4,4.4-7.1c3.4-0.7,6.3,1.6,6.9,4.9C207.5,36.2,205.9,39.3,202.4,40z M226.2,19c-2.1,4.8-4.1,9.6-6.1,14.4l-2.7-12.5
			l-4.2,0.9l4,18.6l4-0.9l6.1-14.3l2.7,12.4l4.1-0.9l-4-18.6L226.2,19z M247.7,30.3c-3.3,0.7-6.1-1.5-6.9-4.8l0-0.1
			c-0.7-3.2,1-6.4,4.1-7.1c2.1-0.5,3.7,0.2,5.3,1.3l2-3.4c-2.1-1.5-4.6-2.3-8.1-1.6c-5.6,1.2-8.7,6.5-7.5,11.8l0,0.1
			c1.2,5.3,6.2,8.7,11.7,7.5c3.6-0.8,5.5-2.7,6.8-5.1l-3.1-2C250.9,28.6,249.7,29.9,247.7,30.3z M272.1,9.1l-4.5,0.9l-3,7l-5.6-5.2
			l-4.7,1l8.5,7.8l-4.9,10.9l4.5-0.9l3.2-7.5l5.9,5.6l4.7-1l-8.8-8.1L272.1,9.1z M284.5,6.5c-5.7,1-9.2,6.2-8.3,11.5
			c0.9,5.4,5.9,9,11.6,8c5.8-1,9.3-6.2,8.3-11.5C295.2,9.1,290.2,5.4,284.5,6.5z M287.3,22.3c-3.3,0.6-6.2-1.8-6.8-5
			c-0.6-3.3,1.1-6.4,4.6-7c3.4-0.6,6.2,1.7,6.8,5C292.5,18.5,290.8,21.7,287.3,22.3z M318.1,17.7l-1.6-15.2l-14.6,1.5l0.2,2.3
			c0.6,5.3,0.5,9.8-0.8,13.1l-2,0.2l0.9,8.3l3.6-0.4l0-4.6l13.2-1.4l0.5,4.5l3.6-0.4l-0.3-8.3L318.1,17.7z M305.8,19
			c0.9-2.4,1.2-5.7,0.8-9.1l-0.3-2.5l6.2-0.7l1.2,11.5L305.8,19z M329.5,15.5l1-12.7l-4.2-0.3l-1.5,18.9l4.1,0.3l10-11.9l-1,12.6
			l4.2,0.3l1.5-18.9l-4.1-0.3C336.1,7.5,332.8,11.5,329.5,15.5z M348.3,8.2l6,1.1l-2.8,15l4.3,0.8l2.8-15l6,1.1l0.7-3.7l-16.4-3
			L348.3,8.2z M368.8,28.1l4.6,1.3l1.3-4.8l-4.6-1.3L368.8,28.1z M378.6,4.3c-3.7-1-6.8-0.2-9.4,1.5l1.8,3.5
			c2.2-1.3,4.2-1.8,6.4-1.2c2.5,0.7,3.6,2.5,3.1,4.4c-0.7,2.4-3.1,3.2-7.5,2.2l-0.2,0.1l-0.9,5.8l2.8,0.8l1.1-2.7
			c4,0.4,7.7-0.7,8.9-5.1C386,9.3,383.5,5.7,378.6,4.3z"/>
	</g>
</g>
</svg>
