<svg xmlns="http://www.w3.org/2000/svg" viewBox="0 0 96.62 27.22"><defs><style>.cls-1{fill:#f2dcd6;}</style></defs><g id="Слой_2" data-name="Слой 2"><g id="мешки_под_глазами" data-name="мешки под глазами"><path class="cls-1" d="M84.12.94c2.24-1.16,5.26-1.39,7.27.13a8.07,8.07,0,0,1,1.88,2.38C95.15,6.57,97.1,10,96.51,13.63c-.5,3-2.8,5.54-5.5,7a28.39,28.39,0,0,1-8.8,2.64,251,251,0,0,1-59,3.48c-6.19-.37-12.6-1-18-4.17a7.46,7.46,0,0,1-3-2.71C-7.61,1.37,17.44,11.06,34,11.39,51.15,11.73,65.75,10.46,84.12.94Z"/></g></g></svg>
