<svg xmlns="http://www.w3.org/2000/svg" viewBox="0 0 77.62 71.84"><defs><style>.a{fill:none;stroke:#e54405;stroke-linecap:round;stroke-linejoin:round;}</style></defs><path class="a" d="M3.87,20.95a2.29,2.29,0,0,1,0-1.91,9.93,9.93,0,0,1,5.71-5.61,26.87,26.87,0,0,1,8-1.65"/><path class="a" d="M18.72,21l6.33,7.13"/><path class="a" d="M6.3,26.53a7.6,7.6,0,0,0,3.44-1.07,9,9,0,0,0,2.73-1.86,3.26,3.26,0,0,0,.84-3.06"/><path class="a" d="M13.5,36.64a11.46,11.46,0,0,1-1.48-5,7.54,7.54,0,0,1,2.32-5,19.57,19.57,0,0,1,4.61-3.24"/><path class="a" d="M23.51,12.33a29.75,29.75,0,0,0,13,3.31"/><path class="a" d="M26.45,28.8a2.69,2.69,0,0,0,1.32-2.26,5.6,5.6,0,0,1,2,1.34"/><path class="a" d="M25.08,38.1A96.63,96.63,0,0,0,13.46,41"/><path class="a" d="M22.11,31.27,28.74,39c1.25,1.46,2.57,3.12,2.53,5"/><path class="a" d="M25.81,18.15a18,18,0,0,0,8.28.51"/><path class="a" d="M35.32,26.34a48.38,48.38,0,0,0-3.73,5.45c-.83,1.41-1.61,3.11-1,4.62"/><path class="a" d="M3.44,54.33a44.94,44.94,0,0,1,11.94-.69"/><path class="a" d="M.5,28c2.37,3.31,4.8,6.67,8.07,9.09"/><path class="a" d="M3.32,49.51l7.76-9.67"/><path class="a" d="M27.05,48.85c-4.23-1.26-7.9-4.15-12.23-5"/><path class="a" d="M33,70.84a8,8,0,0,0,1-5.59A13.32,13.32,0,0,0,31.63,60"/><path class="a" d="M26.92,58.47A11.41,11.41,0,0,1,31,54.4a37.76,37.76,0,0,0,4.77-3.32"/><path class="a" d="M29,61.8a10.07,10.07,0,0,0-6.57,2.1,29.94,29.94,0,0,0-5,4.94"/><path class="a" d="M11,48.67c2.06-.16,4.34-.24,5.93,1.07a8.09,8.09,0,0,1,1.74,2.36l2.93,5.2"/><path class="a" d="M24.29,55.12a6.34,6.34,0,0,1,.08-5.2"/><path class="a" d="M39.46,44.27a24.64,24.64,0,0,0,12.6-10.39"/><path class="a" d="M37.11,47.67a27.23,27.23,0,0,1,8.15,7.27"/><path class="a" d="M48,33a65.72,65.72,0,0,0-8.59-5.79"/><path class="a" d="M37.65,24.39l4.79-4.28a4.64,4.64,0,0,1,1.38-1c1-.39,2.19,0,3.28-.16"/><path class="a" d="M34.55,12.58,42.2,4.3a6.41,6.41,0,0,1,1.31-1.18,6.42,6.42,0,0,1,1.76-.65L52.9.5"/><path class="a" d="M43.9,8.24c2.14,1.07,3.82,2.9,5.91,4.07,4,2.23,8.81,1.84,13.33,1.4"/><path class="a" d="M52.92,20.51c.3.3,0,.8-.23,1.12a20.69,20.69,0,0,1-2.57,2.54c-.93.77-2.18,1.5-3.3,1"/><path class="a" d="M50,29.29a6.31,6.31,0,0,1,4.3-.86c1.06.17,2.06.62,3.11.84,3.57.75,7.12-1.1,10.22-3,.65-.4,1.4-1,1.16-1.78"/><path class="a" d="M63.47,24.55a3.93,3.93,0,0,0-1.6-2.6,32.06,32.06,0,0,0-4.46-3.36,5.92,5.92,0,0,0-3-1.12"/><path class="a" d="M36.54,42.09a22,22,0,0,0-.19-4.45c-.15-1.05-.59-2.3-1.63-2.48"/><path class="a" d="M39.58,17.28a3.21,3.21,0,0,0,1.5-1.6c.22-.77-.13-1.71.36-2.34"/><path class="a" d="M32.84,9l3-6.21A6,6,0,0,1,37.28.61"/><path class="a" d="M31.32,6.38A43.34,43.34,0,0,0,19.41,4.9"/><path class="a" d="M19.45,16.37a20.53,20.53,0,0,1,.75-2.09L23,7.12"/><path class="a" d="M56.78,52.59c2.45,1.94,5.27,1.61,7.78,1.27a66.09,66.09,0,0,1,7.09-.56"/><path class="a" d="M51.68,68.4c5.51.46,8.24-4.33,12.08-7.06"/><path class="a" d="M35.71,55.78a65.38,65.38,0,0,0,8,3.76"/><path class="a" d="M53.64,61.51a37.5,37.5,0,0,0,.27-10.25"/><path class="a" d="M46.45,47.29a14.13,14.13,0,0,0,4.18-4.51,9.93,9.93,0,0,1,.9-1.76,1.74,1.74,0,0,1,1.7-.76"/><path class="a" d="M48.91,58.18a.59.59,0,0,1,.28.69,1.49,1.49,0,0,1-.46.66C47.19,61,44.95,62,44.41,64c-.64,2.42,1.55,4.92.91,7.34"/><path class="a" d="M40.1,31.83A13.59,13.59,0,0,0,43.82,40"/><path class="a" d="M47.25,64.5c5.84.15,9.8,1.17,9.73-4.67,0-3.35,8.43-2,10.11-.1"/><path class="a" d="M55,32.76a69.79,69.79,0,0,1,.65,10.83,6,6,0,0,0,.71,3.71,3.73,3.73,0,0,0,1,.92"/><path class="a" d="M69,27.86c-1.74,2.36-1.13,5.85-2.78,8.28-1.33,2-3.91,2.86-5.12,4.91"/><path class="a" d="M58.48,37.55A33.56,33.56,0,0,1,63.69,31"/><path class="a" d="M67.73,40.1a6.89,6.89,0,0,0,1.1,4.36,9.84,9.84,0,0,0,3.22,2.27,24.73,24.73,0,0,1,5.06,3.71"/><path class="a" d="M65.86,49.95a18.34,18.34,0,0,0-3.25-4.49,3,3,0,0,1-.65-.82.92.92,0,0,1,.1-1"/></svg>
