<svg xmlns="http://www.w3.org/2000/svg" viewBox="0 0 56.65 61.81"><defs><style>.a{fill:none;}</style></defs><path class="a" d="M51.77,54.66a.7.7,0,0,0-.54-.07,1.23,1.23,0,0,1-.86-.21c-.05,0-.09-.15-.08-.23a.86.86,0,0,0-.23-.59,1.06,1.06,0,0,1-.3-.84,1.41,1.41,0,0,0-.49-1.24,1.19,1.19,0,0,1-.4-.7c0-.08-.11-.16-.18-.23a1.45,1.45,0,0,0-.33-.21,1.67,1.67,0,0,1-.76-.75,1.14,1.14,0,0,0-.88-.62.54.54,0,0,0-.49.08.26.26,0,0,1-.39,0c-.31-.38-.78-.35-1.17-.51s-.69-.22-1-.35a.58.58,0,0,0-.57,0,.3.3,0,0,0-.18.27.65.65,0,0,1-.39.63c-.06,0-.13.11-.12.16,0,.22-.13.38-.19.56s-.18.54-.25.82a.6.6,0,0,1-.28.41c-.1.06-.16.17-.25.24a1.5,1.5,0,0,0-.53,1.27c0,.32,0,.64,0,1a1.14,1.14,0,0,1-.25.81.9.9,0,0,0-.14.86,5.53,5.53,0,0,1,.12.67.35.35,0,0,1,0,.25.72.72,0,0,0-.14.61A4.11,4.11,0,0,1,40,58.72a4.34,4.34,0,0,1-.3.57,3.31,3.31,0,0,0,.21,2.15c-.15,0-.85-1.12-1-1.12-.3-.48.16-.88.16-1.39,0-.08.09-.18.15-.25a2.43,2.43,0,0,0,.54-1.55c0-.23.06-.45.08-.68.06-.6.11-1.2.18-1.8a4.08,4.08,0,0,1,.1-.42c.05-.25.11-.5.16-.75a.74.74,0,0,1,0-.17A4.62,4.62,0,0,0,40.52,52a1.16,1.16,0,0,1,.36-.8,5.72,5.72,0,0,0,.58-.59.69.69,0,0,0,.12-.22c.1-.26.2-.51.28-.77a1.45,1.45,0,0,0,.06-.34c0-.14,0-.22-.2-.28a2.53,2.53,0,0,1-1-.81,3.78,3.78,0,0,1-.52-.79.52.52,0,0,0-.17-.19,2.92,2.92,0,0,1-.84-1.43c-.13-.33-.18-.69-.29-1a.69.69,0,0,1,0-.54s0-.14,0-.15c-.22-.06-.21-.27-.26-.42a5.11,5.11,0,0,0-.79-1.48c-.17-.22-.39-.23-.53,0s-.22.44-.33.66a.54.54,0,0,0,0,.12,1.76,1.76,0,0,1-1,1.2.76.76,0,0,0-.42.46c-.12.35-.46.5-.77.66a8.48,8.48,0,0,1-1.08.51,2.11,2.11,0,0,0-.46.31l-.17.13c-.12.07-.32.12-.34.21a1.86,1.86,0,0,0,0,.6,3.84,3.84,0,0,1,.06.51,1.36,1.36,0,0,0,.31,1,.56.56,0,0,1,.15.63.87.87,0,0,0,0,.35A4.51,4.51,0,0,1,33,50.75a1.65,1.65,0,0,0,0,.86,4.65,4.65,0,0,1,.14,1.24c0,.33,0,.36.35.35a1.71,1.71,0,0,1,.83.2,1.46,1.46,0,0,0,1.2.16.12.12,0,0,1,.09,0s.09,0,.09.07a.13.13,0,0,1-.07.1,1,1,0,0,1-.42.09,3.83,3.83,0,0,1-1.25-.3c-.39-.21-.55-.16-.81.19,0,0,0,.06,0,.07a1,1,0,0,0-.33.93c0,.37-.05.75-.08,1.12a.22.22,0,0,1,0,.09,1.85,1.85,0,0,0-.1,1.25s0,.08,0,.11-.12,0-.13-.06a3.31,3.31,0,0,1-.17-.71,6.44,6.44,0,0,1,.15-1.81,3.53,3.53,0,0,0,.09-.64.5.5,0,0,1,.26-.42.38.38,0,0,0,.18-.45,3,3,0,0,1-.13-1.05,2.89,2.89,0,0,0-.12-.72,5.27,5.27,0,0,1,.2-1.27,8,8,0,0,0,0-1.3,1,1,0,0,0-.24-.45,1.61,1.61,0,0,1-.26-1c0-.27,0-.55,0-.82a.23.23,0,0,0-.23-.25l-1.37-.1a.49.49,0,0,0-.47.16.22.22,0,0,1-.31.06c-.13-.09-.22,0-.31.08a.57.57,0,0,0-.18.24,1.14,1.14,0,0,1-.78.65,3.29,3.29,0,0,1-1.43.29,2.09,2.09,0,0,0-1.47.63l0,0c-.11.21-.36.16-.51.29s-.26.27-.39.4a.66.66,0,0,1-.49.14.45.45,0,0,0-.36.08c-.28.24-.27.22-.11.55a2.08,2.08,0,0,0,.57.7.89.89,0,0,1,.38.65c0,.06,0,.11,0,.17.11.59.3.66.79.68a1.09,1.09,0,0,1,1,.56,2.25,2.25,0,0,0,1,.68,8.23,8.23,0,0,1,.88.45,1.08,1.08,0,0,1,.39.5.32.32,0,0,0,.27.24c.41.08.82.16,1.23.21a1.28,1.28,0,0,0,.47-.06.46.46,0,0,1,.41.07s0,.09.07.13-.12.07-.15.05-.33,0-.5,0a3.14,3.14,0,0,1-1.11-.1s-.05,0-.08,0a.85.85,0,0,1-.85-.5c-.26-.4-.71-.51-1.1-.72a2.54,2.54,0,0,1-1.07-.74,1.09,1.09,0,0,0-.95-.52c-.56,0-.71-.17-.82-.74a1.64,1.64,0,0,0-.69-1,.24.24,0,0,0-.34.08c-.14.22-.33.19-.54.2a1.6,1.6,0,0,0-.25,0c-.29.05-.55.19-.84.24a4.24,4.24,0,0,0-.8.25,6.43,6.43,0,0,0-.61.32,2.52,2.52,0,0,0,.29.49,1.33,1.33,0,0,1,.31.81.19.19,0,0,1-.25-.17.72.72,0,0,0-.22-.41,1.09,1.09,0,0,1-.15-.26c-.1-.2-.19-.42-.31-.61a.46.46,0,0,0-.55-.25c-.2.06-.42-.1-.62.08a1.22,1.22,0,0,0-.36.36,2.77,2.77,0,0,1-.63.68,2.36,2.36,0,0,1-.59.29,50.37,50.37,0,0,0,8.72,5.59l-.08-.06a6.73,6.73,0,0,1-.79-.59l-.16-.13c-.18-.14-.38-.25-.4-.53,0-.11-.15-.2-.22-.31L24,55.73a.5.5,0,0,0-.17-.17,2.06,2.06,0,0,1-.66-.48,1.2,1.2,0,0,0-.32-.22,1.82,1.82,0,0,1-.84-.85,2.08,2.08,0,0,0-.58-.68c-.1-.09-.25-.17-.21-.35.36.1.54.42.79.65a1.49,1.49,0,0,1,.37.48c.11.25.33.34.52.48a6.55,6.55,0,0,1,.55.42c.16.14.25.35.51.34.05,0,.12.07.17.13.19.25.39.5.56.77A5.47,5.47,0,0,0,26.48,58a1.17,1.17,0,0,1,.59.63C37,63.35,47.16,63.37,52.6,54.83c-.14,0-.29,0-.43,0A1.29,1.29,0,0,1,51.77,54.66Zm-5.11,4.29c-.31-.32-.59-.27-.81.11a2.69,2.69,0,0,1-.37.47c-.1.11-.24.08-.36,0s-.28-.16-.42,0a.12.12,0,0,1-.11,0s-.06-.12,0-.15a1.84,1.84,0,0,1,.61-.71s.12,0,.18,0,.2.07.24-.14c0,0,0-.06,0-.09a1.38,1.38,0,0,1,.08-.14.67.67,0,0,1,.17.11s0,.11.06.2c.38-.24.59-.22.85.08l.38.43C46.86,59.22,46.77,59.06,46.66,58.95Zm2.53-4.31-1.2.08c-.05,0-.15,0-.16,0,0,.23-.36.3-.32.58a.28.28,0,0,1-.08.19,2.26,2.26,0,0,0-.34.73c-.09.21-.12.24-.33.17a.37.37,0,0,1-.15-.07.23.23,0,0,1,0-.14c.3-.07.28-.37.39-.57a2.91,2.91,0,0,0,.26-.64,1.25,1.25,0,0,1,.42-.59.22.22,0,0,1,.31,0c.06,0,.17.12.22.1.37-.15.77.12,1.13-.07,0,0,.11,0,.16,0C49.43,54.64,49.3,54.63,49.19,54.63Z"/><path class="a" d="M17.52,51.54c.28-.2.51-.47.81-.65a.42.42,0,0,0,.22-.42.67.67,0,0,0-.21-.46c-.11-.13-.22-.23-.41-.14,0,0-.13-.08-.16-.15-.16-.4-.31-.8-.47-1.2s-.4-1-.6-1.47a4.72,4.72,0,0,1-.42-.7,4.78,4.78,0,0,1-.18-.8c0-.11,0-.22-.07-.33a.4.4,0,0,0-.36-.33,4.31,4.31,0,0,1-1.59-.68.77.77,0,0,0-.65-.1.85.85,0,0,1-.21,0s0,0-.05-.06,0-.05,0-.08l0,0c.66-.08.87-.63,1.16-1.1.2-.32.37-.64.55-1a.2.2,0,0,0-.06-.3.82.82,0,0,1-.35-.57.85.85,0,0,0-.37-.55.48.48,0,0,1-.21-.63c0-.11.09-.2,0-.33a1.75,1.75,0,0,1-.13-.93.35.35,0,0,0-.22-.37,4.74,4.74,0,0,1-1.09-1,.26.26,0,0,1,0-.19,1,1,0,0,1,.09-.29.57.57,0,0,0,0-.61c-.08-.13,0-.21.14-.23.44-.07.48-.11.49-.56a.19.19,0,0,1,.1-.15c.1,0,.21,0,.25.12a.43.43,0,0,1-.26.57.44.44,0,0,0-.31.37l-.18.62c-.08.27-.06.34.17.51s.67.58,1.06.79a.23.23,0,0,1,.11.3,1.25,1.25,0,0,0,0,.81.69.69,0,0,1,0,.38.54.54,0,0,0,.25.69.52.52,0,0,1,.23.39,2.92,2.92,0,0,0,.25.68c0,.05.14.12.17.1a.29.29,0,0,0,.14-.18,3.3,3.3,0,0,0,0-.48c0-.28,0-.27-.28-.34,0,0-.08-.06-.12-.09s.08-.1.12-.1a2.06,2.06,0,0,0,.75-.19c.19,0,.21-.14.19-.35s0-.48-.05-.82a.48.48,0,0,1,.13.42.72.72,0,0,0,.42.73,1.84,1.84,0,0,1,.47.43.69.69,0,0,0,.36.21A3.73,3.73,0,0,1,18,41a.83.83,0,0,0,.53.08,4,4,0,0,0,1.39-.45.26.26,0,0,1,.12,0,.59.59,0,0,0,.56-.39.42.42,0,0,1,.22-.19,14,14,0,0,0,1.62-.91c-.29-.35-.56-.68-.84-1a.67.67,0,0,0-.24-.17.52.52,0,0,1-.35-.36.37.37,0,0,0-.35-.27,1,1,0,0,1-.44-.24A1.26,1.26,0,0,0,19,36.8c-.22,0-.46.05-.72.08-.06-.3-.11-.62-.2-.93a2.19,2.19,0,0,0-.27-.62,5.78,5.78,0,0,0-.84-1,2.12,2.12,0,0,1-.42-.84.11.11,0,0,1,.05-.09.13.13,0,0,1,.11,0,1.25,1.25,0,0,1,.17.35,1,1,0,0,0,.52.7.58.58,0,0,1,.22.21,5.11,5.11,0,0,0,.42.63,2.16,2.16,0,0,1,.24.81c0,.1,0,.2,0,.3,0,.25.15.29.41.27s.72,0,1.09,0a.47.47,0,0,1,.32.1.88.88,0,0,0,.79.44c.06,0,.14.13.19.22s.06.24.13.26c.34.1.46.42.69.64a.2.2,0,0,0,.31,0,2.23,2.23,0,0,0,.5-.53,1.39,1.39,0,0,1,1.17-.6s.07,0,.11.06c.18-.22.37-.42.55-.65s.28-.4.42-.6c0,0,.07-.11.11-.13s.23-.37.4-.2-.15.23-.23.36a7.83,7.83,0,0,0-.53.79.81.81,0,0,1-.66.49,4.51,4.51,0,0,1-.44.16c-.44.11-.78.28-.8.81a.81.81,0,0,1-.22.46c-.12.14-.07.22,0,.34q.25.48.48,1a2.54,2.54,0,0,1,.14.36.43.43,0,0,1,0,.15s-.11,0-.13-.06c-.12-.21-.24-.42-.35-.64s-.06-.19-.1-.29-.15-.23-.33-.14-.46.28-.69.43a3.77,3.77,0,0,1-.62.38.55.55,0,0,0-.37.33.42.42,0,0,1-.46.31,1,1,0,0,0-.41.13,3.68,3.68,0,0,1-1.23.38.32.32,0,0,0-.33.32A7.11,7.11,0,0,0,18,43.11a.47.47,0,0,1,0,.21c0,.07-.11.17-.15.16s-.08-.11-.06-.2c.05-.27.09-.54.12-.81s0-.57.1-.86-.11-.38-.29-.47a1.66,1.66,0,0,0-.57-.19.61.61,0,0,1-.49-.31,1,1,0,0,0-.45-.38c-.12-.05-.17-.11-.29,0s-.19,0-.29.06-.29.15-.25.4a2.21,2.21,0,0,1-.29,1.5c-.23.41-.49.81-.74,1.22a3.63,3.63,0,0,0-.17.37c.18.14.36.28.54.41s.39.23.64.37l-.12-.32c.29.23.67.19,1,.36s.4.13.25.41c.12.58.05,1.22.53,1.69a3.78,3.78,0,0,1,.69,1.56,1,1,0,0,0,.12.28c.16.31.33.61.47.93.06.14.13.22.28.21a.39.39,0,0,1,.4.22.23.23,0,0,0,.36.09.41.41,0,0,1,.48,0,1.48,1.48,0,0,0,1.4.17.79.79,0,0,1,.46-.05,1.23,1.23,0,0,0,1-.13c.18-.09.39-.09.58-.16a.74.74,0,0,0,.34-.23c.08-.11,0-.24-.1-.35s0-.21.07-.25a1.5,1.5,0,0,1,.57-.17.77.77,0,0,0,.52-.17,10.75,10.75,0,0,0,1.07-.88,2,2,0,0,1,1.36-.56,2.78,2.78,0,0,0,.76-.14c.32-.12.65-.2,1-.31a.65.65,0,0,0,.2-.14s0-.08.06-.11a1.58,1.58,0,0,0,.25-1.66.62.62,0,0,1,0-.25,5.67,5.67,0,0,1,.26-1.56c0-.08.16-.17.15-.21a1.23,1.23,0,0,0-.26-.44c-.31-.3-.65-.58-1-.85s-.39-.29-.61-.44c.08-.16.15-.33.23-.49a.62.62,0,0,1,.21-.26.73.73,0,0,0,.32-.39,1.71,1.71,0,0,1,.41-.6.32.32,0,0,0,.1-.18c0-.33.07-.66.1-1a.8.8,0,0,0-.1-.45.77.77,0,0,1,0-.49c0-.18.07-.28-.13-.42a.8.8,0,0,1-.32-.71c0-.36,0-.71,0-1.07a4.7,4.7,0,0,1-.44-.74,2.8,2.8,0,0,0-.44-.58l-.52-.63s-.07-.12-.11-.13c-.48-.14-.64-.66-1.06-.87A.16.16,0,0,1,26,32a.8.8,0,0,0-.15-.62c-.08-.17-.16-.34-.25-.5a.4.4,0,0,0-.58-.21,1.87,1.87,0,0,1-.69.23.47.47,0,0,0-.22.13,2.37,2.37,0,0,1-1.15.47,2.43,2.43,0,0,0-1.07.39,2.28,2.28,0,0,1-.62.28.32.32,0,0,1-.24-.06l-.88-.62c-.3-.22-.41-.22-.74,0l-.68.46a1.56,1.56,0,0,1-1.54.62.23.23,0,0,0-.15,0,.84.84,0,0,0-.19.17c-.1.13-.17.32-.3.41s-.3.06-.45.1a.49.49,0,0,0-.22.13.25.25,0,0,1-.29.1c-.18,0-.32.08-.44.22a.66.66,0,0,1-.27.19c-.27.1-.54.19-.81.28a.18.18,0,0,0-.08,0,4.09,4.09,0,0,1-.4.44c-.13.11-.38,0-.46.26,0,0-.16.06-.16.06-.1-.24-.29-.1-.44-.12a.4.4,0,0,1-.23-.08,1.08,1.08,0,0,1,.22-.12,2.38,2.38,0,0,0,.85-.3c.14-.1.25-.22.39-.33a.8.8,0,0,1,.24-.16,12.23,12.23,0,0,1,1.6-.63s.1-.06.09-.08c-.08-.28.15-.24.29-.29s0,0,.06-.05a3,3,0,0,1-.2-.52,1.41,1.41,0,0,0-.45-.82.53.53,0,0,1-.18-.42c0-.2-.06-.4-.08-.6A3.53,3.53,0,0,1,15.55,29c0-.06.07-.14,0-.19a3.65,3.65,0,0,1-.31-1c0-.25-.18-.3-.45-.23l-.75.19a.5.5,0,0,0-.26.15c-.21.28-.53.28-.82.34a.46.46,0,0,1-.55-.3c-.11-.22-.22-.44-.35-.65s-.23-.23-.4-.1a.53.53,0,0,1-.57,0,1.92,1.92,0,0,0-.93-.16,1,1,0,0,1-.53-.14A7.74,7.74,0,0,1,9,26.36c-.07-.05-.13-.14-.2-.16-.26-.08-.23-.27-.21-.46a2.69,2.69,0,0,0,0-1,1,1,0,0,1,0-.34c0-.1,0-.2,0-.3,0-.38-.07-.45-.44-.48s-1-.11-1.45-.17c-.06,0-.15,0-.16,0C6.4,23,6.06,23,5.8,22.88a.51.51,0,0,0-.32-.05,3,3,0,0,1-.81,0c-.32,0-.31-.07-.5.19a3.14,3.14,0,0,0-.24.36.71.71,0,0,1-.63.39,5.33,5.33,0,0,0-.55.1.19.19,0,0,0-.12.05c-.23.35-.61.21-.92.28a.88.88,0,0,0-.32.1,7.21,7.21,0,0,0-.56.48.6.6,0,0,0-.25.48c0,.26-.16.51-.12.79,0,0-.09,0-.14.06v-1c.18-.07.17-.22.16-.37a.4.4,0,0,1,.24-.46.94.94,0,0,0,.34-.33.56.56,0,0,1,.59-.26,1.57,1.57,0,0,0,.39,0,.52.52,0,0,0,.27-.1A.9.9,0,0,1,3,23.3a1.54,1.54,0,0,0,.74-.22c.09,0,.16-.2.2-.31a.63.63,0,0,0-.11-.49A.43.43,0,0,0,3.5,22a.37.37,0,0,1-.32-.36c-.05-.49-.06-.49-.46-.82a.47.47,0,0,1,.57.34c0,.07,0,.15,0,.21s.11.36.35.39a.42.42,0,0,1,.35.29.28.28,0,0,0,.34.19,3.6,3.6,0,0,1,1.44.16.44.44,0,0,0,.17,0,.44.44,0,0,1,.54.32c0,.11.11.11.2.12a1.4,1.4,0,0,1,.69.22.37.37,0,0,0,.21,0,3,3,0,0,1,.46,0,1.7,1.7,0,0,1,.37.16c.07-.33.15-.65.21-1a.63.63,0,0,1,.29-.41,1.4,1.4,0,0,0,.64-.73A.36.36,0,0,1,9.72,21a13.22,13.22,0,0,0,.93-1,4.13,4.13,0,0,1,.49-.34.73.73,0,0,0,.11-.06c.08-.08.17-.25.22-.24a1.56,1.56,0,0,1,.66.25,3.23,3.23,0,0,0,1.42.7.57.57,0,0,1,.27.12,1.43,1.43,0,0,0,.75.3A.86.86,0,0,1,15,21a.6.6,0,0,0,.66,0,.79.79,0,0,1,.66-.06.82.82,0,0,0,.42,0c.15,0,.25,0,.23.14a1.69,1.69,0,0,0,.3,1.06.54.54,0,0,1,.08.49.65.65,0,0,0,.07.5.43.43,0,0,1-.11.61c-.17.14-.2.46-.37.61a1.52,1.52,0,0,0-.42.53c-.06.14,0,.32-.1.46s-.26.58-.41.86-.11.31.13.39a1.47,1.47,0,0,0,.42.06,3.49,3.49,0,0,1,.79.07.76.76,0,0,1-.2,0,4.8,4.8,0,0,1-1.3-.07.23.23,0,0,0-.18.07,3.71,3.71,0,0,0-.26.33,2.92,2.92,0,0,1,.48,1.72.9.9,0,0,1-.19.46,2.74,2.74,0,0,0-.28,1.63.4.4,0,0,0,.24.34.53.53,0,0,1,.28.45,5.92,5.92,0,0,0,.27.9.12.12,0,0,0,.1.06c.08,0,.21,0,.23-.07.18-.43.61-.38,1-.48a5.09,5.09,0,0,0,1-.33c0-.07-.14-.18,0-.19a.64.64,0,0,0,.4-.22c.1-.1.24-.17.33-.27a.39.39,0,0,1,.61,0c.3.24.71.3,1,.6a.37.37,0,0,0,.52,0c.19-.13.39-.25.57-.39a1,1,0,0,1,.6-.21,4,4,0,0,0,.9-.11,5.17,5.17,0,0,0,.77-.38.93.93,0,0,1,.31-.12.66.66,0,0,0,.46-.22.18.18,0,0,1,.29,0c.15.13.23,0,.3-.11a5.73,5.73,0,0,1,.9-1.25,5.75,5.75,0,0,0,.68-1.25.36.36,0,0,0,0-.29,1,1,0,0,1-.12-.63.69.69,0,0,0-.24-.62.54.54,0,0,1-.16-.62.54.54,0,0,0-.33-.7,1.25,1.25,0,0,1-.73-.63c-.15-.23-.17-.23-.38,0a2.15,2.15,0,0,1-.22.21s-.1,0-.15,0,0-.12,0-.15.23-.22.38-.35c-.08-.14-.18-.3-.27-.46a5.49,5.49,0,0,1-.31-.62c-.12-.32-.21-.66-.33-1,0-.13-.14-.3-.25-.33-.34-.1-.45-.39-.61-.64a4.44,4.44,0,0,0-.5-.85c-.12-.13-.08-.24.07-.31a2.74,2.74,0,0,1,.37-.12c0,.17-.2.26-.1.42.23.36.43.75.66,1.11a.73.73,0,0,0,.32.28.69.69,0,0,1,.45.59,2.92,2.92,0,0,0,.77,1.51l.71.8a2.19,2.19,0,0,0,.23.18,4.06,4.06,0,0,1,.45.4.37.37,0,0,1,.09.31c-.11.21,0,.37.1.52a1.89,1.89,0,0,1,.28,1,1.23,1.23,0,0,0,.07.34c.07.27.21.37.45.31a4.91,4.91,0,0,0,.48-.18,4.76,4.76,0,0,0,.72-.25,9.34,9.34,0,0,0,.89-.6A.23.23,0,0,0,30,26.1a.81.81,0,0,0,0-.3,1.35,1.35,0,0,1,.11-.92,1.32,1.32,0,0,0,.08-.7A1.85,1.85,0,0,1,30.31,23a1.86,1.86,0,0,0,.17-.71,1.1,1.1,0,0,1,.18-.47.35.35,0,0,1,.35-.2,11.13,11.13,0,0,1,2,.07.67.67,0,0,0,.47,0,3.51,3.51,0,0,0,.54-.55s0-.09,0-.12.29-.3.3-.46a7.75,7.75,0,0,0-.07-1.18c0-.17-.1-.19-.22-.09s-.14.15-.23.18a.59.59,0,0,0-.39.56c0,.1,0,.23-.15.3a6.16,6.16,0,0,1,0-.65.44.44,0,0,1,.17-.23c.22-.18.45-.35.69-.53-.25-.32-.46-.63-.71-.9a2,2,0,0,0-.5-.41A4,4,0,0,0,31,17a.37.37,0,0,1-.33-.17c-.12-.16-.22-.15-.33,0a.72.72,0,0,1-.88.28,7.26,7.26,0,0,0-.72-.13.94.94,0,0,0-.8.25c-.1.09-.15.17-.06.29s0,.05,0,.08a2.15,2.15,0,0,1,.27,1.69,2.45,2.45,0,0,0,0,.56.67.67,0,0,1-.17.52.51.51,0,0,1-.33.51,3.61,3.61,0,0,0-.82.55c-.15.12-.31.32-.59.2a11,11,0,0,1,1.32-.92,1.8,1.8,0,0,0,.39-.38,2.23,2.23,0,0,0,0-.58,3.38,3.38,0,0,1,.08-.77,2,2,0,0,0-.26-1.19c-.24-.4-.23-.5.13-.79.08-.06.17-.15.25-.15a6.47,6.47,0,0,1,1.08,0,.79.79,0,0,0,1-.36,1.88,1.88,0,0,0,.46-.85c0-.23,0-.46,0-.68,0,0,0-.05,0-.08a3.15,3.15,0,0,0-.41-.89c-.8.55-.72,1.45-.16,2.25-.37.09-.38.09-.52-.21s-.2-.42-.28-.63a.48.48,0,0,1,0-.29c.15-.45.23-.94.71-1.19l0,0a.9.9,0,0,1-.12-.23.31.31,0,0,0-.26-.25,1,1,0,0,1-.34-.19.86.86,0,0,0-.55-.21.43.43,0,0,1-.4-.27,1.23,1.23,0,0,0-.73-.65c-.13,0-.23-.21-.33-.33-.24-.29-.28-.29-.62-.14-.14.06-.3.09-.44.16a.45.45,0,0,1-.63-.19.69.69,0,0,0-.77-.35c-.19,0-.38,0-.57,0a1,1,0,0,1-.58-.14.66.66,0,0,0-.81,0c-.2.15-.45,0-.67,0,0,0-.05,0-.07,0a1.56,1.56,0,0,1,.11-1.4s.07,0,.07,0a.17.17,0,0,1,0,.11,2.62,2.62,0,0,1-.15.4.43.43,0,0,0,0,.33c.12.46.22.52.65.33.21-.09.43-.17.63-.28a.28.28,0,0,1,.39.07.42.42,0,0,0,.39.13H25a.57.57,0,0,1,.51.26c.21.3.31.32.67.21l.53-.19c.17-.06.25-.17.18-.33a.36.36,0,0,1,0-.37,8.6,8.6,0,0,1,.57-.81.48.48,0,0,0,.13-.35,1,1,0,0,1,.17-.7c0-.07,0-.17.05-.2a3,3,0,0,0,.69-1c.14-.22.39-.41.33-.72a.13.13,0,0,1,.07-.11c.36-.16.4-.55.6-.82s.13-.29-.14-.47l-.15-.1c.15-.14.27,0,.39,0,.33.15.52.09.64-.25a2.68,2.68,0,0,0,.13-.59c0-.14.05-.21.2-.21a3.85,3.85,0,0,0,1.79-.54.34.34,0,0,1,.2-.06,1.35,1.35,0,0,0,.82-.21A2.55,2.55,0,0,0,34,2.8c.1-.08.21-.21.31-.21a.61.61,0,0,0,.62-.38A.8.8,0,0,1,35.08,2C25.3-1.68,14.05-.59,5.87,8a.68.68,0,0,0,.36.25A1.58,1.58,0,0,1,7.16,9a.45.45,0,0,0,.23.19c.3.1.56.33.9.28,0,0,.11,0,.1.06a.21.21,0,0,1-.06.14.52.52,0,0,1-.6.09c-.1-.05-.22-.06-.33-.11a.93.93,0,0,1-.58-.47c-.11-.27-.45-.29-.66-.46a.42.42,0,0,0-.12,0,.92.92,0,0,1-.46-.3l-.07.07A21.44,21.44,0,0,0,2,13.48a.4.4,0,0,1,.29.23.77.77,0,0,0,.44.39.44.44,0,0,1,.29.34c.05.25.14.26.37.14l.64-.35a.62.62,0,0,1,.28-.09c.19,0,.32-.11.48-.18a3.26,3.26,0,0,0,1.31-1.14s.05,0,.17-.08a1.77,1.77,0,0,1-.34.62,1.8,1.8,0,0,1-.81.62.87.87,0,0,0-.22.13c-.13.08-.23.27-.44.14,0,0-.12,0-.16.05a4.39,4.39,0,0,1-.71.39c-.24.13-.46.27-.42.62A1,1,0,0,1,3,15.8a.19.19,0,0,1-.17.07.2.2,0,0,1-.09-.17.54.54,0,0,1,.11-.23A.6.6,0,0,0,3,15.22a.74.74,0,0,0-.21-.7s0-.11-.06-.11c-.32-.06-.43-.35-.64-.54l-.16-.11C-2,22,.42,31.57,5.92,40a3.08,3.08,0,0,1,.48-1.35,6.14,6.14,0,0,0,.41-.85.15.15,0,0,1,.14-.06s.07.08.1.11A.38.38,0,0,1,7,38c-.14.31-.28.62-.44.93s-.32.55-.46.83a1,1,0,0,0,0,.38s0,.09,0,.14a52.72,52.72,0,0,0,6.54,8,.57.57,0,0,1,.71-.15l0,0c.22-.1.26.09.36.21s.08-.1.18-.1l.18.47a.54.54,0,0,1-.52-.22.58.58,0,0,0-.73-.12l-.06,0c1.28,1.28,2.62,2.49,4,3.63h0A6.89,6.89,0,0,0,17.52,51.54ZM25.88,35a2.22,2.22,0,0,0,1.34-.56c.09-.07.14-.25.29-.12a.65.65,0,0,1-.16.26,1.86,1.86,0,0,1-1.31.56.4.4,0,0,0-.38.16,1.12,1.12,0,0,1-.21.17C25.55,35,25.63,35,25.88,35ZM25.6,16.16l1.53,1c.06,0,.19.07.11.18s-.16,0-.22,0-.41-.26-.62-.39-.44-.27-.65-.42a3.77,3.77,0,0,1-.34-.31C25.52,16.17,25.57,16.14,25.6,16.16ZM23.1,7.24c.34-.1.54-.41.85-.57,0,0,0-.09,0-.15s0-.16,0-.22.1,0,.1.06c0,.27.05-.16.21.09,0,.07-.09.14-.06.22s.06.15.11.16c.35.06.37.34.73.36a2.22,2.22,0,0,0,.68,0,1,1,0,0,1,.25,0,5.08,5.08,0,0,0,.65.17,1.47,1.47,0,0,1,.89.5.33.33,0,0,1,0,.3,1.15,1.15,0,0,1-.23-.21.83.83,0,0,0-.65-.37c-.08,0-.17-.05-.25-.06-.29,0-.56-.16-.88-.05a.83.83,0,0,1-.87-.25.4.4,0,0,0-.46-.14,7.69,7.69,0,0,0-.73.37.51.51,0,0,1-.22.12,5.15,5.15,0,0,1-.52,0C22.79,7.32,23,7.29,23.1,7.24Zm-.65,1.13s.16,0,.16,0c0,.55.46.84.76,1.22.06.07.22.14.11.24s-.16-.09-.23-.15A9,9,0,0,1,22.54,9a1.54,1.54,0,0,1-.2-.41C22.39,8.49,22.41,8.41,22.46,8.37ZM23.39,25a1,1,0,0,0,.54,0s.07,0,.1.06-.06.11-.1.11a1.46,1.46,0,0,1-.48,0,.74.74,0,0,0-.61.13c-.26.16-.5.34-.77.47a1.89,1.89,0,0,0-.65.62,4.17,4.17,0,0,1-.29.38s-.12,0-.26.09a9,9,0,0,1,.74-1,3.63,3.63,0,0,1,.72-.46,1.83,1.83,0,0,0,.29-.2A.9.9,0,0,1,23.39,25ZM18.92,7.24a1.06,1.06,0,0,1,.35.76c0,.21.05.43.09.64a.43.43,0,0,0,.38.39l.63.11a.12.12,0,0,1,.07.09.11.11,0,0,1-.07.08,2.2,2.2,0,0,1-1.06-.13.22.22,0,0,1-.13-.1c-.1-.3-.31-.6-.18-.91a.63.63,0,0,0-.15-.67.74.74,0,0,0-.25-.24c-.26-.13-.27-.37-.31-.62C18.52,6.85,18.71,7.05,18.92,7.24Zm-10.33,2A4.1,4.1,0,0,1,9.1,9s.14,0,.18.09a3.17,3.17,0,0,1,.37.47c.14.24.24.49.38.78l.75-.28a1.26,1.26,0,0,1,.79-.07,9.28,9.28,0,0,0,1.4.2.72.72,0,0,0,.34,0,1.62,1.62,0,0,1,.76-.14c.13,0,.18,0,.18-.18s.07-.48.08-.73a3.3,3.3,0,0,0,0-.43,3.73,3.73,0,0,1,0-.56c0-.09.09-.17.15-.25s.06,0,.07,0,0,.06,0,.07c-.23.26-.07.5,0,.76a1.58,1.58,0,0,1-.09.76.63.63,0,0,0,.13.6,4.42,4.42,0,0,1,.28.44.41.41,0,0,1,.06.24A2.11,2.11,0,0,0,15.24,12a.34.34,0,0,0,.26.19,2.41,2.41,0,0,1,1,.44.37.37,0,0,0,.24.07c.39,0,.59.24.78.51a4.72,4.72,0,0,1,.5.24c.18.11.26.12.4,0s.12-.16.19-.24a1,1,0,0,1,.69-.32l.59-.08c.23,0,.48-.15.67.12,0,.05.16.06.24.05a6.22,6.22,0,0,0,.86-.1.39.39,0,0,0,.25-.25,2.14,2.14,0,0,0,.09-.9.38.38,0,0,1,0-.24c0-.06.12-.15.17-.14s.23.15.17.24c-.27.42-.09.91-.23,1.35,0,.12-.11.15-.18.22a1,1,0,0,1-.8.2.56.56,0,0,1-.25,0,1.52,1.52,0,0,0-1.05-.08.7.7,0,0,1-.24,0,.75.75,0,0,0-.8.3c-.09.12-.18.22-.26.34a.39.39,0,0,0-.08.19c0,.32,0,.64,0,1a.3.3,0,0,0,.06.16,6.71,6.71,0,0,0,.54.66.55.55,0,0,1,.17.51,1.79,1.79,0,0,1-.11.55c-.19.36-.08.77-.22,1.14,0,0,0,.12.1.25l.33-.52a.34.34,0,0,1,.14.28,1.11,1.11,0,0,0,0,.46.93.93,0,0,1,.08.78c-.05.13.24.34.42.31a2.41,2.41,0,0,0,.37-.11c.12,0,.23-.12.37,0a.34.34,0,0,0,.25,0,1.22,1.22,0,0,1,1.31.25,3,3,0,0,1,.27.21.17.17,0,0,1,0,.16.18.18,0,0,1-.14.06.46.46,0,0,1-.2-.07,2.39,2.39,0,0,1-.32-.22.94.94,0,0,0-1-.13,3.85,3.85,0,0,0-1,.23.33.33,0,0,1-.25,0c-.32-.13-.47,0-.61.29a3.65,3.65,0,0,1-.49.71,3.06,3.06,0,0,1-.61.41.18.18,0,0,1-.12,0,.21.21,0,0,1-.12-.05c-.12-.16-.4,0-.48-.2a1.74,1.74,0,0,0,.49-.11c.41-.24.9-.4,1-1a2.33,2.33,0,0,1,.22-.47,4,4,0,0,0,.19-.39.37.37,0,0,0-.24-.55.36.36,0,0,1-.26-.3,3,3,0,0,1,0-1.54,2.71,2.71,0,0,0,.06-.64.21.21,0,0,0-.1-.16c-.3-.13-.36-.48-.61-.65a.23.23,0,0,1-.05-.2,4.14,4.14,0,0,0,0-.81c0-.15,0-.27-.19-.3a1.18,1.18,0,0,1-.61-.46l-.48-.29s-.12-.07-.16-.05c-.27.12-.43-.05-.6-.21a1.31,1.31,0,0,0-.7-.31.61.61,0,0,1-.51-.46,4.39,4.39,0,0,1-.25-1.09,1.59,1.59,0,0,0-.18-.52.25.25,0,0,0-.36-.14c-.1,0-.23,0-.34,0a1.55,1.55,0,0,0-.41.11,1.09,1.09,0,0,1-1.15,0s-.1-.08-.15-.07a3.56,3.56,0,0,0-1.5.12l-.6.31c-.17-.33-.34-.69-.55-1s-.3-.56-.7-.4c0,0-.08,0-.1-.06S8.57,9.26,8.59,9.25ZM2.57,16c0,.1.09.19.07.24a2.92,2.92,0,0,0,0,1.56,2.48,2.48,0,0,0,.15.71.47.47,0,0,1,0,.33,1.78,1.78,0,0,0-.18.84c0,.21-.16.41,0,.62l-.29.57H2.24c0-.1,0-.2,0-.3A4.45,4.45,0,0,0,2.31,20a2.18,2.18,0,0,1,.21-1.09.33.33,0,0,0,0-.24A8.45,8.45,0,0,1,2.25,17,1,1,0,0,1,2.57,16Zm8.89,18.39a2.16,2.16,0,0,1-1.28-.05.57.57,0,0,0-.73.17.94.94,0,0,1-.35.25c-.17.07-.36.09-.46.29a.23.23,0,0,1-.15.09c-.55.13-.76.56-.94,1a.79.79,0,0,1-.08.2A2.27,2.27,0,0,0,7,37.41s-.07.08-.12.13a.82.82,0,0,1,0-.62,5.76,5.76,0,0,1,.66-1.4A1.54,1.54,0,0,1,7.93,35s.06-.08.1-.09c.47-.08.73-.53,1.16-.68A.71.71,0,0,0,9.53,34a.25.25,0,0,1,.36-.11,2.49,2.49,0,0,0,1.69.14.89.89,0,0,1,.62.12,1.15,1.15,0,0,0,.45.12c.19,0,.24-.1.25-.31a1.72,1.72,0,0,1,.06-.42,5.22,5.22,0,0,1,.49-1.42.4.4,0,0,1,0,.42A3,3,0,0,0,13.07,34c0,.38-.16.48-.53.4a1.51,1.51,0,0,1-.33-.08A1,1,0,0,0,11.46,34.35Z"/><path class="a" d="M37.65,38.19a3.93,3.93,0,0,0-.09-.42,2.4,2.4,0,0,1-.18-.88.24.24,0,0,0-.1-.2c-.11,0-.26,0-.28.11-.06.36-.37.43-.62.55a5,5,0,0,1-1,.5c-.05,0-.09.07-.13.11l-.53.43a3.66,3.66,0,0,1-.71-.62,2,2,0,0,0-.87-.67,1.21,1.21,0,0,1-.42-.28.55.55,0,0,0-.86.09.71.71,0,0,1-.85.36,9.71,9.71,0,0,0-1.39-.07.22.22,0,0,0-.26.18,2.07,2.07,0,0,0-.08.29c0,.22.05.27.37.14l-.11.52a3.56,3.56,0,0,0,0,.81c0,.15,0,.29-.16.37a.37.37,0,0,0-.13.12l-1,1.22c-.15.19-.14.28.06.42s.27.16.4.24a5.65,5.65,0,0,1,1,1,.49.49,0,0,1,.15.62,3.62,3.62,0,0,0-.15.58,1.83,1.83,0,0,0,0,1.43,1.69,1.69,0,0,1,.09.46c0,.15-.07.32.13.42s.32-.06.48-.1,0,0,.06-.06.23-.11.39-.08a4.24,4.24,0,0,0,1.54.09.45.45,0,0,0,.25-.11,2.39,2.39,0,0,1,.95-.56c.36-.09.64-.36,1-.47a1,1,0,0,0,.65-.6.83.83,0,0,1,.47-.5,1.67,1.67,0,0,0,.87-1.08,3.54,3.54,0,0,1,.41-.76c.08-.13.09-.35.34-.29,0,0,.11-.13.11-.21a10.06,10.06,0,0,0,.07-1.07,3.58,3.58,0,0,1,.13-.81,1.19,1.19,0,0,0-.07-1C37.65,38.37,37.66,38.27,37.65,38.19Z"/><path class="a" d="M16.22,25.07c.18-.24.22-.57.48-.76.06,0,.08-.15.11-.23s.09-.4.31-.5a.27.27,0,0,0,.1-.23,6.91,6.91,0,0,0-.17-1.08,2.93,2.93,0,0,1-.27-.95c0-.05-.06-.16-.11-.16a1.46,1.46,0,0,0-.77,0,1.43,1.43,0,0,1-1.16,0,.76.76,0,0,0-.24-.08.62.62,0,0,1-.35-.14,2.75,2.75,0,0,0-.67-.37A4.1,4.1,0,0,1,12,19.85a.38.38,0,0,0-.31-.08,6.62,6.62,0,0,0-.76.32c-.06,0-.14.09-.14.14,0,.34-.28.47-.46.68l-.37.42a3.07,3.07,0,0,1-.47.56,1.33,1.33,0,0,0-.47.88,3.46,3.46,0,0,0,0,.56c0,.17.07.24.23.22a1.29,1.29,0,0,1,.23,0l-.16.07c-.46,0-.47,0-.47.52a.53.53,0,0,0,.1.41.26.26,0,0,1,0,.36c-.2.22-.1.47-.13.71s.06.18.18.17a.48.48,0,0,1,.4.1c.19.18.41.32.59.5a.71.71,0,0,0,.5.18c.34,0,.68.09,1,.13a1.2,1.2,0,0,0,.42,0c.33-.08.35-.09.45.24a2,2,0,0,0,.36.64c0,.05.11.12.17.12.31,0,.63.1.91-.14a1.09,1.09,0,0,1,.43-.19c.31-.08.63-.14,1-.21-.19-.38-.66-.25-.91-.57a2.54,2.54,0,0,1,.94.23,2.83,2.83,0,0,0,1-1.7A.16.16,0,0,1,16.22,25.07Z"/><path class="a" d="M56,26.8a27.54,27.54,0,0,0-3.65-10.54l-.17.1a1,1,0,0,1-.77.17s-.08-.07-.11-.1.05-.08.08-.08.22,0,.26-.18.11-.07.17-.1A1.89,1.89,0,0,0,52,16l.1-.06A32.23,32.23,0,0,0,46.52,9l-.31.12a.71.71,0,0,1-.38,0A5.1,5.1,0,0,1,45.25,9a.63.63,0,0,1,.51,0,.64.64,0,0,0,.49,0l.08,0a34.63,34.63,0,0,0-6.06-4.45,2.86,2.86,0,0,1-.23.4c-.12.19-.24.39-.37.58a2.26,2.26,0,0,1-.28.32.14.14,0,0,1-.14,0,.16.16,0,0,1,0-.15q.28-.48.57-1A2.37,2.37,0,0,0,40,4.25a34,34,0,0,0-4.57-2.16.61.61,0,0,0-.18.27.66.66,0,0,1-.53.46.79.79,0,0,0-.54.45,2,2,0,0,1-.82.72.15.15,0,0,1-.12,0c-.29-.13-.52,0-.72.18a3.12,3.12,0,0,1-1.37.47.48.48,0,0,0-.46.36,1.11,1.11,0,0,1-.14.26c-.05.09-.15.17-.15.25,0,.32-.29.49-.4.75a.24.24,0,0,1-.12.11c-.37.15-.39.18-.48.57a.28.28,0,0,1,0,.08,3.64,3.64,0,0,1-.56.86,2,2,0,0,0-.42.66l-.19.38a.79.79,0,0,1-.27.81,2.5,2.5,0,0,0-.4.56.28.28,0,0,0,0,.39,1.36,1.36,0,0,1,.39.62.38.38,0,0,0,.4.3.7.7,0,0,1,.6.57c0,.23.15.37.4.36a1.45,1.45,0,0,1,1.07.57c.19.17.34.3.6.21,0,0,.09,0,.13.06s-.06.11-.1.12-.23,0-.34,0c-.27.06-.34.23-.15.41a.75.75,0,0,1,.31.64.08.08,0,0,0,0,0,1.75,1.75,0,0,1,0,1.34c-.11.42,0,.6.4.58a5.63,5.63,0,0,1,2.36.75.42.42,0,0,1,.2.22,2.1,2.1,0,0,0,.52.64,1,1,0,0,0,1.09.27,1,1,0,0,1,.26,0l1.16-.08a1.77,1.77,0,0,1,.72.12,2.43,2.43,0,0,0,.58.13.8.8,0,0,0,.41-.1,1.64,1.64,0,0,1,1.25-.11,1,1,0,0,0,.72,0,7.4,7.4,0,0,1,.8-.31,2,2,0,0,1,.51,0c.4,0,.53-.16.4-.54A1.11,1.11,0,0,0,42,17a3,3,0,0,1-.48-.91.63.63,0,0,1,0-.3c0-.29.05-.57.06-.86a.67.67,0,0,0-.09-.33c-.15-.26-.32-.5-.48-.75a.59.59,0,0,1-.11-.19.92.92,0,0,0-.4-.63.58.58,0,0,1-.16-.25c-.1-.22-.15-.45-.41-.58s-.1-.24,0-.39c.1-.33.06-.44-.17-.6a.3.3,0,0,0-.16-.06,4.92,4.92,0,0,0-.86.06.75.75,0,0,1-.69-.1,2.06,2.06,0,0,0-.55-.23c-.14-.05-.2-.14-.1-.25a.36.36,0,0,0,.07-.43.47.47,0,0,1,0-.34c.17-.39,0-.67-.26-.94A1,1,0,0,1,37,8.72c0-.1-.14-.24.11-.18,0,0,.08,0,.09-.07a.78.78,0,0,0,.08-.24c0-.46.07-.91.11-1.39h.39c0,.29,0,.57-.22.78a.3.3,0,0,0-.06.2c0,.2,0,.41,0,.61s0,.14,0,.17c.33.24.24.62.27.92s0,.45,0,.68,0,.27.2.31a.79.79,0,0,1,.33.2.59.59,0,0,0,.63.15,2.67,2.67,0,0,1,.59-.12.53.53,0,0,1,.25,0l.55.24c.13.06.18.13.09.27s-.06.19-.12.27a.39.39,0,0,0,.09.62,1.26,1.26,0,0,1,.24.36,3.94,3.94,0,0,0,.31.51,2.83,2.83,0,0,1,.42.75,2.16,2.16,0,0,0,.31.51.79.79,0,0,1,.22.59c0,.27-.06.54-.07.82a1.34,1.34,0,0,0,0,.38,3.06,3.06,0,0,0,.52,1c.05.07.11.19.09.26a1.11,1.11,0,0,0,.33,1.06c.11.14.13.19,0,.3l-.2.17c-.13-.16-.23-.37-.39-.44s-.36,0-.55,0a.66.66,0,0,0-.41.11,1.76,1.76,0,0,1-.4.15,1.61,1.61,0,0,0-.38.18c-.14.11-.22.12-.28-.07a.18.18,0,0,0-.15-.08,9.24,9.24,0,0,0-1.63.37,1,1,0,0,1-.55,0,4.64,4.64,0,0,0-2-.14,1.29,1.29,0,0,1-.51.05c-.31-.07-.45.12-.6.31a.7.7,0,0,0-.12.7,2.15,2.15,0,0,1,0,1.11.4.4,0,0,1-.14.21,1.48,1.48,0,0,0-.42.48.25.25,0,0,1-.21.1,17.38,17.38,0,0,0-2.34-.06c-.26,0-.37.11-.36.38a1.86,1.86,0,0,1-.24.86,3,3,0,0,0-.2.74.64.64,0,0,0,.1.54.3.3,0,0,1,0,.4,1.4,1.4,0,0,0-.26.94,1.55,1.55,0,0,1,0,.26.65.65,0,0,0,.31.69c.36.24.66.56,1,.81s.34.32.2.59c0,0-.07,0-.07,0a3.61,3.61,0,0,0-1-.91,1,1,0,0,0-1.24,0,2.32,2.32,0,0,1-1.57.48c-.18,0-.35,0-.34.26,0,.07-.09.14-.13.21a1,1,0,0,0-.13.23,3.56,3.56,0,0,1-.84,1.28,6.08,6.08,0,0,1-.42.6c-.27.25-.16.43,0,.67a1.37,1.37,0,0,1,.34.83c0,.11.13.24.22.35s.26.27.38.4.07.11.12.13c.5.21.71.76,1.17,1a.59.59,0,0,1,.27.38,2.23,2.23,0,0,0,.18.43.41.41,0,0,1,0,.45.65.65,0,0,1,.17.75,1,1,0,0,0,.4,1.05.36.36,0,0,0,.2,0,4.4,4.4,0,0,1,1.24.15,1,1,0,0,0,.37,0c.07,0,.13-.09.2-.09.24,0,.32-.15.43-.31.27-.41.44-.36.75-.19a8,8,0,0,0,1.11.58.31.31,0,0,1,.16.13c.17.35.52.49.78.74a.15.15,0,0,0,.22,0c.13-.08.27-.16.4-.26a3.19,3.19,0,0,1,.55-.32c.36-.18.68-.42,1-.63a.28.28,0,0,0,.15-.28c0-.32,0-.64,0-1a.6.6,0,0,0-.07-.28.71.71,0,0,1-.05-.58,6.14,6.14,0,0,0,.19-1,1.41,1.41,0,0,0-.15-.58,1.66,1.66,0,0,1-.07-1.3,1.31,1.31,0,0,1,.34-.43c.08-.07.14-.26.31-.14,0,0,0,.06,0,.08a1.3,1.3,0,0,0-.27,1.73,1.81,1.81,0,0,1,0,1.42,1.51,1.51,0,0,0,0,1,3.34,3.34,0,0,1,.08.72l0,.37a.88.88,0,0,1,.68,0c.42.1.84.17,1.27.24a.75.75,0,0,0,.61-.18c.23-.18.49-.3.58-.65a.7.7,0,0,1,.8-.46c.42,0,.58-.3.83-.48a.94.94,0,0,0,.33-.68,4.73,4.73,0,0,1,.26-1,.91.91,0,0,0,0-.59,1,1,0,0,1,0-.34,2,2,0,0,0-.15-.85s0-.09.06-.14.08,0,.1.06a.44.44,0,0,1,.09.19A8.48,8.48,0,0,1,43,33.06c0,.38-.08.77-.15,1.15a.27.27,0,0,0,.12.33,3.56,3.56,0,0,1,.78.54.25.25,0,0,0,.19.07,1.42,1.42,0,0,1,.83.21,1.62,1.62,0,0,0,.76.14,2.16,2.16,0,0,1,1.15.36h-.36s-.08,0-.12,0a2.69,2.69,0,0,1-.46,0c-.15,0-.29-.12-.44-.15s-.54-.09-.81-.13l0,0A2.17,2.17,0,0,1,43,34.94c-.16-.11-.24-.11-.36,0s-.29.29-.4.45-.25.25-.44.15a.4.4,0,0,0-.44.08c-.26.19-.56.32-.67.7s-.44.36-.7.47a1,1,0,0,1-.59,0c-.37-.09-.76-.13-1.15-.18s-.28,0-.31.27.18.64.2,1c0,.16,0,.31.07.47s.06.48.08.73a1.22,1.22,0,0,1,0,.26,6.5,6.5,0,0,1-.15,1,2.58,2.58,0,0,0,0,1.1.33.33,0,0,0,.09.19A3.44,3.44,0,0,1,39,43c.05.13.13.26.18.39a.64.64,0,0,1,.09.28,2.54,2.54,0,0,0,.22,1.05,14.1,14.1,0,0,0,.65,1.46.62.62,0,0,0,.14.22,2,2,0,0,1,.62.87c0,.09.13.15.19.22s.25.28.38.41a2.52,2.52,0,0,0,.33.28c.22.15.48.26.57.62.08-.11.14-.15.15-.21a1.61,1.61,0,0,1,.36-.72c.08-.09,0-.27.22-.28s.34-.09.46,0c.34.15.74.12,1.06.34a.9.9,0,0,0,.33.07l.38.07c.19,0,.26,0,.29-.21.06-.43.1-.86.19-1.28a9.36,9.36,0,0,1,.33-1l.24-.69a.7.7,0,0,1,0,.57c-.11.36-.24.71-.36,1.06a1.29,1.29,0,0,0-.08.2c-.07.45-.14.91-.21,1.36a.45.45,0,0,0,.25.46.28.28,0,0,0,.23,0,1.09,1.09,0,0,1,1.59.61c.18.46.57.53.92.71.06,0,.22-.05.29-.13a4.14,4.14,0,0,1,1.62-1c.29-.13.6-.19.9-.29a.87.87,0,0,1,.46-.06.44.44,0,0,0,.51-.3c.08-.2.18-.39.26-.59s.13-.22.26-.17.36-.06.47-.2a5.15,5.15,0,0,0,.3-.48l.28-.43.17-.29c0-.07.07-.19.13-.22.37-.19.29-.53.3-.84s0-.32-.25-.33a.34.34,0,0,1-.15-.06.08.08,0,0,1,0-.08.26.26,0,0,1,.08-.08h0c.43,0,.48,0,.48-.44a7.26,7.26,0,0,0-.07-.73,1.24,1.24,0,0,1,0-.13,9.28,9.28,0,0,1,.19-1.65l.17.19v4.19c-.29-.08-.28-.08-.4.13-.26.45-.51.9-.78,1.35a1.2,1.2,0,0,1-.18.18,1.13,1.13,0,0,0-.16.19,1.18,1.18,0,0,0-.08.22,1.53,1.53,0,0,1-.22-.1c-.1-.06-.19,0-.22,0-.08.28-.4.43-.41.75,0,0-.07.09-.11.12l-.74.44s-.1,0-.14,0,0-.08,0-.11l.3-.33a.55.55,0,0,0-.58.15,1.77,1.77,0,0,1-.72.36,2.43,2.43,0,0,0-.76.41c-.22.14-.42.3-.63.45s-.31.29-.17.61a3.14,3.14,0,0,0,.69,1,.71.71,0,0,1,.25.66s0,.06,0,.09a1.34,1.34,0,0,0,.22.9,1.28,1.28,0,0,1,.24.64c0,.3.17.41.48.44h.3l.68.08.55.08.24,0C56.14,49.06,57.63,40.15,56,26.8ZM34,11a4.94,4.94,0,0,1-.61.47,3.68,3.68,0,0,0-.83.61,3.73,3.73,0,0,1-.8.48.94.94,0,0,1-.11-.14s0,0,0-.07l0,0a2,2,0,0,0,1.06-.77.66.66,0,0,1,.31-.22,1.31,1.31,0,0,0,.69-.42.23.23,0,0,1,.15-.05s.07,0,.1.07S34.05,11,34,11Zm2.93,0A.11.11,0,0,1,37,11a.12.12,0,0,1-.08.08c-.11,0-.23,0-.35,0a.62.62,0,0,0-.31.11.8.8,0,0,1-.82.11,5.52,5.52,0,0,1-.95-.41.73.73,0,0,1-.15-.12l0-.06.67.23a5.12,5.12,0,0,0,.53.17.53.53,0,0,0,.57-.1C36.41,10.76,36.69,10.87,37,10.92Zm-.8,17.81a.74.74,0,0,0-.48-.31,1,1,0,0,1-.4-.37.63.63,0,0,0-.63-.29,1,1,0,0,1-.34,0,1.51,1.51,0,0,0-.81,0,2.31,2.31,0,0,1-1-.09.08.08,0,0,1,0-.06s0-.08.07-.09a1,1,0,0,1,.22,0,2.19,2.19,0,0,0,.3.05,4,4,0,0,0,.47,0,2.85,2.85,0,0,1,.3,0c.37,0,.75.05,1.12.09a.46.46,0,0,1,.22.12c.11.09.21.2.32.3a1.11,1.11,0,0,0,.5.31c.15,0,.28.19.4.3s0,.12,0,.15A.15.15,0,0,1,36.16,28.74Zm1.67,1.18c-.09.19.08.43-.12.61a.51.51,0,0,1-.07-.49c0-.28,0-.41-.26-.41s-.61-.32-1-.34c0,0-.07-.07-.11-.11s.12-.12.17-.11a5.89,5.89,0,0,1,.56.19l.36.14a.49.49,0,0,0,.63-.12A4.51,4.51,0,0,1,37.83,29.92Zm4.8-19.73a.69.69,0,0,1-.34.66c-.19.13-.37.27-.56.4a.73.73,0,0,1-.78,0,.12.12,0,0,1-.05-.11s.06,0,.1-.06h0c.68.2,1-.36,1.35-.71.11-.1.1-.32.14-.5-.15-.3.06-.54.17-.79a.43.43,0,0,1,.45-.26A1.27,1.27,0,0,0,44,8.66h0l.14.07s0,.09-.07.1a3.28,3.28,0,0,1-.46.1c-.13,0-.26,0-.39,0a.43.43,0,0,0-.38.27A1.65,1.65,0,0,0,42.64,10.19Zm3.75,33.26a3.38,3.38,0,0,0-.18,1.05s-.05.06-.08.08-.09-.07-.1-.11a2.07,2.07,0,0,1,0-.3h0c0-.17.07-.33.1-.5s.25-.43,0-.62l.1-.11c.08.07.19.13.23.22A.48.48,0,0,1,46.39,43.45Zm.18-3.79c-.56.37-.6,1-.7,1.55s-.17.93-.27,1.4c0,.06-.08.1-.12.15a.65.65,0,0,1-.13-.2c0-.06,0-.14.06-.2a5,5,0,0,0,.26-1.27,6.64,6.64,0,0,1,.19-1,.91.91,0,0,1,.57-.61c.05,0,.12,0,.21,0S46.6,39.63,46.57,39.65Zm1.25.57c-.19-.08-.38-.16-.42-.4s-.07-.2-.2-.17-.34-.07-.41-.27-.13-.23-.17-.35,0-.1,0-.15.13,0,.14,0c.1.32.37.41.66.5a.4.4,0,0,1,.19.15c.11.15.2.31.29.47a.56.56,0,0,1,0,.11S47.85,40.23,47.82,40.22Zm2.4,5.89a.11.11,0,0,1-.11,0,.8.8,0,0,1-.26-.57,4.84,4.84,0,0,0-.07-.59.79.79,0,0,1,.36-.74l-.07.26c0,.12-.11.26-.08.36.1.4,0,.83.27,1.19A.11.11,0,0,1,50.22,46.1Zm1.56-12a2.33,2.33,0,0,0-.61.19.48.48,0,0,0-.33.47c0,.32-.26.51-.44.72a.74.74,0,0,0-.25.64.25.25,0,0,1,0,.13,1.79,1.79,0,0,0,.08,1.41.51.51,0,0,1,0,.22A2,2,0,0,0,50.45,39c.07.12.08.27-.1.31a.37.37,0,0,0-.28.35,1.13,1.13,0,0,1-.35.63c-.25.24-.42.56-.72.74-.09.05-.09.14,0,.22a5.49,5.49,0,0,0,.46.52c.2.18.44.32.65.5a1.51,1.51,0,0,1,.5.58.58.58,0,0,0,.49.38.6.6,0,0,1,.33.17c-.08,0-.17.07-.24.05A.91.91,0,0,1,50.4,43a.49.49,0,0,0-.15-.21,6.73,6.73,0,0,0-1.12-.87.46.46,0,0,1-.19-.17,4.74,4.74,0,0,0-.83-.94.87.87,0,0,1-.18-.28.12.12,0,0,1,.2-.13,1.57,1.57,0,0,1,.21.22c.25.29.43.32.68,0a2.88,2.88,0,0,0,.84-1.33,1.11,1.11,0,0,0,0-.41c-.05-.28-.14-.56-.2-.84a1,1,0,0,1,0-.25c0-.07,0-.15,0-.2a2,2,0,0,1-.11-.87,5.08,5.08,0,0,1,.09-1c0-.08.12-.15.19-.21a1.68,1.68,0,0,0,.61-.77c.1-.29.08-.38-.18-.53s-.54-.28-.81-.41a1.84,1.84,0,0,1-.26-.14,8.73,8.73,0,0,0-.9-.57,1.63,1.63,0,0,0-.81-.26,1.37,1.37,0,0,1-1-.62,4.21,4.21,0,0,0-.77-.86s0-.1,0-.15.12,0,.15,0a9.28,9.28,0,0,1,.78.82,1.75,1.75,0,0,0,.65.56,2.35,2.35,0,0,0,.65.12,2,2,0,0,1,.86.34,4,4,0,0,0,1.15.66,1.13,1.13,0,0,1,.53.36.31.31,0,0,0,.43.08c.18-.12.43-.07.58-.26a.15.15,0,0,1,.12,0,2.88,2.88,0,0,0,1.17-.24.79.79,0,0,1,.29,0l0,.14A10.85,10.85,0,0,1,51.78,34.13ZM54.87,25a1.73,1.73,0,0,0-.2.29c-.16.2,0,.36-.16.57a1.13,1.13,0,0,0-.18.43.6.6,0,0,1-.36.5.9.9,0,0,0-.24.18c-.16.15-.14.19.06.34a.38.38,0,0,1,.17.23c0,.23.19.46,0,.69s0,.24.06.36a6.45,6.45,0,0,1,.38.63c0,.06,0,.15,0,.25-.17-.2-.32-.36-.46-.53a3.54,3.54,0,0,1-.34-.49c0-.05,0-.16.06-.23.22-.35.22-.41,0-.73-.05-.07-.14-.14-.14-.21,0-.25-.14-.32-.36-.33a3,3,0,0,0-.42-.06,1.62,1.62,0,0,1-1-.24,1.9,1.9,0,0,1-.44-.41c-.16-.17-.3-.36-.57-.32a.29.29,0,0,1-.19-.08.93.93,0,0,0-.69-.18c-.13,0-.26,0-.32.15a.14.14,0,0,1-.1.07c-.43,0-.87.16-1.27-.09s-.64-.44-1-.67a.32.32,0,0,1-.1-.13A3.77,3.77,0,0,0,46,23.5c-.21-.17-.45-.31-.68-.46a.32.32,0,0,0-.46.06.41.41,0,0,1-.16.14c-.42.13-.49.44-.44.81,0,.15.06.31.09.46a.81.81,0,0,1,.07.71,4.4,4.4,0,0,0-.06,1.12,1.48,1.48,0,0,1-.3.88,8.46,8.46,0,0,0-.89,1.52c-.23.59-.6,1.11-.8,1.71,0,.11-.08.21-.11.32s0,.13,0,.16c-.29.25-.22.58-.22.89a2.29,2.29,0,0,0,.09.9.36.36,0,0,1,0,.47,1,1,0,0,0-.07-.17c-.15-.22-.17-.24-.34-.08a.43.43,0,0,1-.47.1c-.32-.08-.64-.12-1-.17a1.8,1.8,0,0,1,1,0c.25.11.37,0,.51-.15a.39.39,0,0,0,.13-.48,2,2,0,0,1,0-1.58,7.24,7.24,0,0,0,.31-.85.61.61,0,0,1,.08-.2,9.57,9.57,0,0,0,.73-1.36c.12-.19.27-.37.38-.57a2.6,2.6,0,0,0,.62-1.71,3.39,3.39,0,0,1,0-.43c0-.3,0-.6.33-.77,0,0,0-.11,0-.17s-.19.06-.23,0a.5.5,0,0,1-.18-.28,2.72,2.72,0,0,1,0-.52c0-.08.07-.14,0-.22s-.05-.19.08-.26.34-.22.51-.31.14-.17.1-.29a.93.93,0,0,1,0-.83c.06-.11,0-.3,0-.46s-.11-.22-.08-.28c.18-.38-.09-.61-.26-.88a.48.48,0,0,1-.07-.11.13.13,0,0,1,0-.11.12.12,0,0,1,.11,0l.37.22a.24.24,0,0,0,.34,0c.29-.28.59-.54.88-.82a.58.58,0,0,0,.14-.25c.08-.27,0-.58.32-.77a.09.09,0,0,0,0-.08c-.07-.38.24-.64.29-1,0-.14.17-.26.28-.37a.67.67,0,0,0,.23-.44c0-.22.19-.41.17-.66a.82.82,0,0,0-.22-.55,4.69,4.69,0,0,1-.45-.47,1.23,1.23,0,0,1-.2-.42c-.06-.23-.1-.29-.32-.32l-.39,0a.58.58,0,0,1,.45-.09.39.39,0,0,0,.43-.29,5.38,5.38,0,0,1,.27-.58s.09,0,.13,0,.06.08,0,.11a3.26,3.26,0,0,1-.16.35c-.07.13-.15.25-.21.38a.65.65,0,0,0,.19.81c.26.22.59.38.65.77,0,0,.12.06.18,0l1.08-.15a.33.33,0,0,1,.16,0,.29.29,0,0,0,.38-.11c.16-.2.32-.16.56-.08.45.15.81.44,1.23.62a.36.36,0,0,1,.18.23c0,.13-.18.25-.29.18-.32-.19-.63-.4-1-.59s-.49-.2-.69.08c0,0,0,.05-.07.05-.42-.05-.79.24-1.21.15a2.42,2.42,0,0,0-.34,0c-.14,0-.24.06-.23.2,0,.3-.26.52-.2.83,0,0-.07.13-.12.18a2.21,2.21,0,0,0-.66,1.28,1.19,1.19,0,0,1-.14.31s-.08.11-.06.14c.16.3-.15.47-.21.71,0,.07-.15.11-.23.16a.75.75,0,0,1-.18,0s.08.1.08.14a.33.33,0,0,1-.1.21,2.48,2.48,0,0,1-.51.24.28.28,0,0,0-.21.29,1,1,0,0,0,0,.17,3.39,3.39,0,0,1,0,1.15,1.17,1.17,0,0,0,.06.38.34.34,0,0,0,.24.27A3.52,3.52,0,0,1,46.78,24,3.5,3.5,0,0,0,48,25.28a1.59,1.59,0,0,0,1.4.18,1.2,1.2,0,0,1,.71-.15c.46.11,1,.14,1.26.61a1.55,1.55,0,0,0,1.2.6l.64.09a.7.7,0,0,0,.39-.05.81.81,0,0,0,.56-.79.52.52,0,0,1,.11-.27,4.73,4.73,0,0,1,.52-.57c.07-.06.22,0,.33,0S55,25,54.87,25Z"/><path d="M52,54.44l-.68-.08H51c-.31,0-.46-.14-.48-.44a1.28,1.28,0,0,0-.24-.64,1.34,1.34,0,0,1-.22-.9s0-.06,0-.09a.71.71,0,0,0-.25-.66,3.14,3.14,0,0,1-.69-1c-.14-.32-.12-.4.17-.61s.41-.31.63-.45a2.43,2.43,0,0,1,.76-.41,1.77,1.77,0,0,0,.72-.36.55.55,0,0,1,.58-.15l-.3.33s0,.1,0,.11.11.06.14,0l.74-.44s.11-.08.11-.12c0-.32.33-.47.41-.75,0-.09.12-.11.22,0a1.53,1.53,0,0,0,.22.1,1.18,1.18,0,0,1,.08-.22,1.13,1.13,0,0,1,.16-.19,1.2,1.2,0,0,0,.18-.18c.26-.45.52-.9.78-1.35.12-.21.12-.21.4-.13V41.54l-.17-.19A9.28,9.28,0,0,0,54.73,43a1.24,1.24,0,0,0,0,.13,7.26,7.26,0,0,1,.07.73c0,.41,0,.45-.48.44h0a.26.26,0,0,0-.08.08.08.08,0,0,0,0,.08.34.34,0,0,0,.15.06c.22,0,.26.15.25.33s.07.65-.3.84c-.06,0-.09.14-.13.22l-.17.29-.28.43a5.15,5.15,0,0,1-.3.48c-.11.14-.24.28-.47.2s-.21.06-.26.17-.19.39-.26.59a.44.44,0,0,1-.51.3.87.87,0,0,0-.46.06c-.3.1-.62.17-.9.29a4.14,4.14,0,0,0-1.62,1c-.06.08-.23.16-.29.13-.35-.17-.74-.25-.92-.71a1.09,1.09,0,0,0-1.59-.61.28.28,0,0,1-.23,0,.45.45,0,0,1-.25-.46c.07-.45.14-.91.21-1.36a1.29,1.29,0,0,1,.08-.2c.12-.35.25-.7.36-1.06a.7.7,0,0,0,0-.57l-.24.69a9.36,9.36,0,0,0-.33,1c-.09.42-.13.85-.19,1.28,0,.2-.1.25-.29.21L44.91,48a.9.9,0,0,1-.33-.07c-.32-.22-.72-.19-1.06-.34-.12-.06-.31,0-.46,0s-.15.19-.22.28a1.61,1.61,0,0,0-.36.72c0,.06-.07.1-.15.21-.08-.36-.35-.47-.57-.62a2.52,2.52,0,0,1-.33-.28c-.13-.13-.25-.28-.38-.41s-.16-.14-.19-.22a2,2,0,0,0-.62-.87.62.62,0,0,1-.14-.22,14.1,14.1,0,0,1-.65-1.46,2.54,2.54,0,0,1-.22-1.05.64.64,0,0,0-.09-.28c-.06-.13-.13-.26-.18-.39a3.44,3.44,0,0,0-.76-1.34.33.33,0,0,1-.09-.19,2.58,2.58,0,0,1,0-1.1,6.5,6.5,0,0,0,.15-1,1.22,1.22,0,0,0,0-.26q0-.36-.08-.73c0-.16-.06-.31-.07-.47,0-.33-.23-.62-.2-1s.06-.31.31-.27.77.09,1.15.18a1,1,0,0,0,.59,0c.25-.11.61-.18.7-.47s.41-.51.67-.7a.4.4,0,0,1,.44-.08c.19.09.32,0,.44-.15s.28-.29.4-.45.2-.14.36,0a2.17,2.17,0,0,0,1.47.62l0,0c.27,0,.54.08.81.13s.29.13.44.15a2.69,2.69,0,0,0,.46,0s.08,0,.12,0h.36a2.16,2.16,0,0,0-1.15-.36,1.62,1.62,0,0,1-.76-.14,1.42,1.42,0,0,0-.83-.21.25.25,0,0,1-.19-.07,3.56,3.56,0,0,0-.78-.54.27.27,0,0,1-.12-.33c.07-.38.1-.77.15-1.15a8.48,8.48,0,0,0-.19-1.71.44.44,0,0,0-.09-.19s-.07,0-.1-.06-.07.11-.06.14a2,2,0,0,1,.15.85,1,1,0,0,0,0,.34.91.91,0,0,1,0,.59,4.73,4.73,0,0,0-.26,1,.94.94,0,0,1-.33.68c-.25.19-.4.52-.83.48a.7.7,0,0,0-.8.46c-.09.35-.35.46-.58.65a.75.75,0,0,1-.61.18c-.42-.07-.85-.14-1.27-.24a.88.88,0,0,0-.68,0l0-.37a3.34,3.34,0,0,0-.08-.72,1.51,1.51,0,0,1,0-1,1.81,1.81,0,0,0,0-1.42A1.3,1.3,0,0,1,37.49,31s0,0,0-.08c-.17-.12-.24.07-.31.14a1.31,1.31,0,0,0-.34.43,1.66,1.66,0,0,0,.07,1.3,1.41,1.41,0,0,1,.15.58,6.14,6.14,0,0,1-.19,1,.71.71,0,0,0,.05.58.6.6,0,0,1,.07.28c0,.32,0,.64,0,1a.28.28,0,0,1-.15.28c-.34.21-.67.45-1,.63a3.19,3.19,0,0,0-.55.32c-.13.1-.26.18-.4.26a.15.15,0,0,1-.22,0c-.26-.25-.61-.39-.78-.74a.31.31,0,0,0-.16-.13,8,8,0,0,1-1.11-.58c-.32-.17-.49-.22-.75.19-.1.16-.19.33-.43.31-.06,0-.13.07-.2.09a1,1,0,0,1-.37,0,4.4,4.4,0,0,0-1.24-.15.36.36,0,0,1-.2,0,1,1,0,0,1-.4-1.05.65.65,0,0,0-.17-.75l-.24.22c0,.36,0,.71,0,1.07a.8.8,0,0,0,.32.71c.2.14.17.23.13.42a.77.77,0,0,0,0,.49.8.8,0,0,1,.1.45c0,.33-.06.66-.1,1a.32.32,0,0,1-.1.18,1.71,1.71,0,0,0-.41.6.73.73,0,0,1-.32.39.62.62,0,0,0-.21.26c-.09.16-.16.33-.23.49.22.16.42.29.61.44s.67.55,1,.85a1.23,1.23,0,0,1,.26.44s-.12.13-.15.21a5.67,5.67,0,0,0-.26,1.56.62.62,0,0,0,0,.25,1.58,1.58,0,0,1-.25,1.66s0,.09-.06.11a.65.65,0,0,1-.2.14c-.32.11-.66.19-1,.31a2.78,2.78,0,0,1-.76.14,2,2,0,0,0-1.36.56,10.75,10.75,0,0,1-1.07.88.77.77,0,0,1-.52.17,1.5,1.5,0,0,0-.57.17c-.1,0-.16.14-.07.25s.17.24.1.35a.74.74,0,0,1-.34.23c-.19.07-.4.07-.58.16a1.23,1.23,0,0,1-1,.13.79.79,0,0,0-.46.05,1.48,1.48,0,0,1-1.4-.17.41.41,0,0,0-.48,0,.23.23,0,0,1-.36-.09.39.39,0,0,0-.4-.22c-.15,0-.22-.07-.28-.21-.14-.32-.31-.62-.47-.93a1,1,0,0,1-.12-.28A3.78,3.78,0,0,0,17,46.74l-.31.31c.2.49.41,1,.6,1.47s.3.8.47,1.2c0,.06.13.16.16.15.19-.08.3,0,.41.14a.67.67,0,0,1,.21.46.42.42,0,0,1-.22.42c-.29.18-.53.44-.81.65a6.89,6.89,0,0,1-.74.44h0l.82.67a2.36,2.36,0,0,0,.59-.29,2.77,2.77,0,0,0,.63-.68,1.22,1.22,0,0,1,.36-.36c.2-.18.42,0,.62-.08a.46.46,0,0,1,.55.25c.12.2.21.41.31.61a1.09,1.09,0,0,0,.15.26.72.72,0,0,1,.22.41.19.19,0,0,0,.25.17,1.33,1.33,0,0,0-.31-.81,2.52,2.52,0,0,1-.29-.49,6.43,6.43,0,0,1,.61-.32,4.24,4.24,0,0,1,.8-.25c.29-.05.55-.19.84-.24a1.6,1.6,0,0,1,.25,0c.2,0,.4,0,.54-.2a.24.24,0,0,1,.34-.08,1.64,1.64,0,0,1,.69,1c.11.57.26.73.82.74a1.09,1.09,0,0,1,.95.52,2.54,2.54,0,0,0,1.07.74c.39.2.85.32,1.1.72a.85.85,0,0,0,.85.5s.05,0,.08,0a3.14,3.14,0,0,0,1.11.1c.17,0,.33-.11.5,0s.1,0,.15-.05,0-.11-.07-.13a.46.46,0,0,0-.41-.07,1.28,1.28,0,0,1-.47.06c-.41-.05-.82-.13-1.23-.21a.32.32,0,0,1-.27-.24,1.08,1.08,0,0,0-.39-.5,8.23,8.23,0,0,0-.88-.45,2.25,2.25,0,0,1-1-.68,1.09,1.09,0,0,0-1-.56c-.49,0-.67-.1-.79-.68,0-.06,0-.11,0-.17a.89.89,0,0,0-.38-.65,2.08,2.08,0,0,1-.57-.7c-.17-.33-.17-.3.11-.55a.45.45,0,0,1,.36-.08.66.66,0,0,0,.49-.14c.14-.13.25-.28.39-.4s.4-.08.51-.29l0,0a2.09,2.09,0,0,1,1.47-.63,3.29,3.29,0,0,0,1.43-.29,1.14,1.14,0,0,0,.78-.65.57.57,0,0,1,.18-.24c.08-.07.17-.17.31-.08a.22.22,0,0,0,.31-.06.49.49,0,0,1,.47-.16l1.37.1a.23.23,0,0,1,.23.25c0,.27,0,.55,0,.82a1.61,1.61,0,0,0,.26,1,1,1,0,0,1,.24.45,8,8,0,0,1,0,1.3,5.27,5.27,0,0,0-.2,1.27,2.89,2.89,0,0,1,.12.72,3,3,0,0,0,.13,1.05.38.38,0,0,1-.18.45.5.5,0,0,0-.26.42,3.53,3.53,0,0,1-.09.64,6.44,6.44,0,0,0-.15,1.81,3.31,3.31,0,0,0,.17.71s.08,0,.13.06,0-.08,0-.11a1.85,1.85,0,0,1,.1-1.25.22.22,0,0,0,0-.09c0-.37.08-.75.08-1.12a1,1,0,0,1,.33-.93s0-.05,0-.07c.26-.35.42-.4.81-.19a3.83,3.83,0,0,0,1.25.3,1,1,0,0,0,.42-.09.13.13,0,0,0,.07-.1s-.05-.05-.09-.07a.12.12,0,0,0-.09,0,1.46,1.46,0,0,1-1.2-.16,1.71,1.71,0,0,0-.83-.2c-.32,0-.34,0-.35-.35A4.65,4.65,0,0,0,33,51.61a1.65,1.65,0,0,1,0-.86,4.51,4.51,0,0,0,.14-1.33.87.87,0,0,1,0-.35.56.56,0,0,0-.15-.63,1.36,1.36,0,0,1-.31-1,3.84,3.84,0,0,0-.06-.51,1.86,1.86,0,0,1,0-.6c0-.09.23-.14.34-.21l.17-.13a2.11,2.11,0,0,1,.46-.31,8.48,8.48,0,0,0,1.08-.51c.31-.16.65-.31.77-.66a.76.76,0,0,1,.42-.46,1.76,1.76,0,0,0,1-1.2.54.54,0,0,1,0-.12c.11-.22.2-.45.33-.66s.36-.23.53,0a5.11,5.11,0,0,1,.79,1.48c.05.15,0,.36.26.42,0,0,0,.11,0,.15a.69.69,0,0,0,0,.54c.11.34.16.7.29,1A2.92,2.92,0,0,0,40,47.15a.52.52,0,0,1,.17.19,3.78,3.78,0,0,0,.52.79,2.53,2.53,0,0,0,1,.81c.15.06.21.14.2.28a1.45,1.45,0,0,1-.06.34c-.09.26-.18.51-.28.77a.69.69,0,0,1-.12.22,5.72,5.72,0,0,1-.58.59,1.16,1.16,0,0,0-.36.8,4.62,4.62,0,0,1-.24,1.35.74.74,0,0,0,0,.17c-.05.25-.1.5-.16.75a4.08,4.08,0,0,0-.1.42c-.07.6-.12,1.2-.18,1.8,0,.23-.07.45-.08.68a2.43,2.43,0,0,1-.54,1.55c-.06.07-.15.17-.15.25,0,.51-.46.91-.16,1.39.15,0,.85,1.13,1,1.13a3.31,3.31,0,0,1-.21-2.15,4.34,4.34,0,0,0,.3-.57,4.11,4.11,0,0,0,.48-1.95.72.72,0,0,1,.14-.61.35.35,0,0,0,0-.25,5.53,5.53,0,0,0-.12-.67.9.9,0,0,1,.14-.86,1.14,1.14,0,0,0,.25-.81c0-.32,0-.64,0-1a1.5,1.5,0,0,1,.53-1.27c.09-.07.16-.18.25-.24A.6.6,0,0,0,42,50.7c.07-.28.16-.55.25-.82s.22-.34.19-.56c0,0,.07-.13.12-.16a.65.65,0,0,0,.39-.63.3.3,0,0,1,.18-.27.58.58,0,0,1,.57,0c.33.13.69.21,1,.35s.86.14,1.17.51a.26.26,0,0,0,.39,0,.54.54,0,0,1,.49-.08,1.14,1.14,0,0,1,.88.62,1.67,1.67,0,0,0,.76.75,1.45,1.45,0,0,1,.33.21c.08.06.18.15.18.23a1.19,1.19,0,0,0,.4.7,1.41,1.41,0,0,1,.49,1.24,1.06,1.06,0,0,0,.3.84.86.86,0,0,1,.23.59c0,.08,0,.2.08.23a1.23,1.23,0,0,0,.86.21.7.7,0,0,1,.54.07,1.29,1.29,0,0,0,.4.15c.14,0,.29,0,.43,0l.16-.26-.24,0Zm-14.22-15a3.58,3.58,0,0,0-.13.81,10.06,10.06,0,0,1-.07,1.07c0,.08-.09.21-.11.21-.26-.06-.27.16-.34.29a3.54,3.54,0,0,0-.41.76,1.67,1.67,0,0,1-.87,1.08.83.83,0,0,0-.47.5,1,1,0,0,1-.65.6c-.36.12-.64.38-1,.47a2.39,2.39,0,0,0-.95.56.45.45,0,0,1-.25.11A4.24,4.24,0,0,1,31,45.77c-.16,0-.28,0-.39.08s0,.05-.06.06-.29.2-.48.1-.1-.28-.13-.42a1.69,1.69,0,0,0-.09-.46,1.83,1.83,0,0,1,0-1.43,3.62,3.62,0,0,1,.15-.58.49.49,0,0,0-.15-.62,5.65,5.65,0,0,0-1-1c-.13-.08-.27-.15-.4-.24s-.2-.23-.06-.42l1-1.22a.37.37,0,0,1,.13-.12c.17-.07.17-.22.16-.37a3.56,3.56,0,0,1,0-.81l.11-.52c-.32.13-.4.08-.37-.14a2.07,2.07,0,0,1,.08-.29.22.22,0,0,1,.26-.18,9.71,9.71,0,0,1,1.39.07.71.71,0,0,0,.85-.36.55.55,0,0,1,.86-.09,1.21,1.21,0,0,0,.42.28,2,2,0,0,1,.87.67,3.66,3.66,0,0,0,.71.62l.53-.43s.08-.1.13-.11a5,5,0,0,0,1-.5c.25-.12.56-.18.62-.55,0-.14.17-.16.28-.11a.24.24,0,0,1,.1.2,2.4,2.4,0,0,0,.18.88,3.93,3.93,0,0,1,.09.42c0,.08,0,.19,0,.25A1.19,1.19,0,0,1,37.76,39.4Z"/><path d="M17.52,32.07c-.34.09-.77,0-1,.48,0,0-.15.06-.23.07a.12.12,0,0,1-.1-.06,5.92,5.92,0,0,1-.27-.9.53.53,0,0,0-.28-.45.4.4,0,0,1-.24-.34,2.74,2.74,0,0,1,.28-1.63.9.9,0,0,0,.19-.46,2.92,2.92,0,0,0-.48-1.72,3.71,3.71,0,0,1,.26-.33.23.23,0,0,1,.18-.07,4.8,4.8,0,0,0,1.3.07.76.76,0,0,0,.2,0,3.49,3.49,0,0,0-.79-.07,1.47,1.47,0,0,1-.42-.06c-.24-.08-.25-.16-.13-.39s.29-.56.41-.86,0-.31.1-.46a1.52,1.52,0,0,1,.42-.53c.17-.16.19-.48.37-.61a.43.43,0,0,0,.11-.61.65.65,0,0,1-.07-.5.54.54,0,0,0-.08-.49A1.69,1.69,0,0,1,17,21c0-.16-.09-.18-.23-.14a.82.82,0,0,1-.42,0,.79.79,0,0,0-.66.06A.6.6,0,0,1,15,21a.86.86,0,0,0-.44-.2,1.43,1.43,0,0,1-.75-.3.57.57,0,0,0-.27-.12,3.23,3.23,0,0,1-1.42-.7,1.56,1.56,0,0,0-.66-.25c-.05,0-.14.16-.22.24a.73.73,0,0,1-.11.06,4.13,4.13,0,0,0-.49.34,13.22,13.22,0,0,1-.93,1,.36.36,0,0,0-.14.16,1.4,1.4,0,0,1-.64.73.63.63,0,0,0-.29.41c-.06.32-.13.64-.21,1a1.7,1.7,0,0,0-.37-.16,3,3,0,0,0-.46,0,.37.37,0,0,1-.21,0,1.4,1.4,0,0,0-.69-.22c-.09,0-.16,0-.2-.12A.44.44,0,0,0,6,22.42a.44.44,0,0,1-.17,0,3.6,3.6,0,0,0-1.44-.16A.28.28,0,0,1,4,22.06a.42.42,0,0,0-.35-.29c-.23,0-.29-.21-.35-.39s0-.14,0-.21a.47.47,0,0,0-.57-.34c.4.33.4.33.46.82A.37.37,0,0,0,3.5,22a.43.43,0,0,1,.35.28.63.63,0,0,1,.11.49c0,.12-.1.28-.2.31A1.54,1.54,0,0,1,3,23.3a.9.9,0,0,0-.72.24.52.52,0,0,1-.27.1,1.57,1.57,0,0,1-.39,0,.56.56,0,0,0-.59.26.94.94,0,0,1-.34.33.4.4,0,0,0-.24.46c0,.15,0,.3-.16.37v1c.05,0,.15,0,.14-.06,0-.28.13-.53.12-.79a.6.6,0,0,1,.25-.48,7.21,7.21,0,0,1,.56-.48.88.88,0,0,1,.32-.1c.31-.07.69.07.92-.28a.19.19,0,0,1,.12-.05,5.33,5.33,0,0,1,.55-.1.71.71,0,0,0,.63-.39A3.14,3.14,0,0,1,4.17,23c.18-.26.18-.24.5-.19a3,3,0,0,0,.81,0,.51.51,0,0,1,.32.05c.26.13.6.14.74.48,0,0,.1,0,.16,0,.48.06,1,.13,1.45.17s.45.1.44.48c0,.1,0,.2,0,.3a1,1,0,0,0,0,.34,2.69,2.69,0,0,1,0,1c0,.2-.05.39.21.46.08,0,.13.11.2.16a7.74,7.74,0,0,0,.71.49,1,1,0,0,0,.53.14,1.92,1.92,0,0,1,.93.16.53.53,0,0,0,.57,0c.17-.13.31-.05.4.1s.24.43.35.65a.46.46,0,0,0,.55.3c.29-.06.61-.06.82-.34a.5.5,0,0,1,.26-.15l.75-.19c.27-.07.41,0,.45.23a3.65,3.65,0,0,0,.31,1s0,.13,0,.19a3.53,3.53,0,0,0-.42,1.57c0,.2.08.4.08.6a.53.53,0,0,0,.18.42,1.41,1.41,0,0,1,.45.82,3,3,0,0,0,.2.52s0,0-.06.05-.37,0-.29.29c0,0-.06.07-.09.08a12.23,12.23,0,0,0-1.6.63.8.8,0,0,0-.24.16c-.13.11-.25.23-.39.33a2.38,2.38,0,0,1-.85.3,1.08,1.08,0,0,0-.22.12.4.4,0,0,0,.23.08c.15,0,.34-.13.44.12,0,0,.15,0,.16-.06.08-.23.33-.16.46-.26a4.09,4.09,0,0,0,.4-.44.18.18,0,0,1,.08,0c.27-.09.55-.17.81-.28a.66.66,0,0,0,.27-.19c.12-.15.25-.27.44-.22a.25.25,0,0,0,.29-.1.49.49,0,0,1,.22-.13c.15,0,.34,0,.45-.1s.2-.27.3-.41a.84.84,0,0,1,.19-.17.23.23,0,0,1,.15,0A1.56,1.56,0,0,0,18.75,32l-.23-.23A5.09,5.09,0,0,1,17.52,32.07Zm-2.28-5.23a2.54,2.54,0,0,0-.94-.23c.24.33.72.19.91.57-.32.07-.64.13-1,.21a1.09,1.09,0,0,0-.43.19c-.28.24-.61.13-.91.14-.06,0-.13-.07-.17-.12a2,2,0,0,1-.36-.64c-.1-.33-.12-.32-.45-.24a1.2,1.2,0,0,1-.42,0c-.34,0-.68-.11-1-.13a.71.71,0,0,1-.5-.18c-.19-.18-.41-.32-.59-.5a.48.48,0,0,0-.4-.1c-.13,0-.2,0-.18-.17s-.07-.49.13-.71a.26.26,0,0,0,0-.36.53.53,0,0,1-.1-.41c0-.47,0-.48.47-.52l.16-.07a1.29,1.29,0,0,0-.23,0C9,23.57,9,23.5,9,23.33a3.46,3.46,0,0,1,0-.56,1.33,1.33,0,0,1,.47-.88,3.07,3.07,0,0,0,.47-.56l.37-.42c.18-.21.46-.34.46-.68,0,0,.08-.11.14-.14a6.62,6.62,0,0,1,.76-.32.38.38,0,0,1,.31.08,4.1,4.1,0,0,0,1.52.78,2.75,2.75,0,0,1,.67.37.62.62,0,0,0,.35.14.76.76,0,0,1,.24.08,1.43,1.43,0,0,0,1.16,0,1.46,1.46,0,0,1,.77,0s.11.11.11.16a2.93,2.93,0,0,0,.27.95,6.91,6.91,0,0,1,.17,1.08.27.27,0,0,1-.1.23c-.22.1-.23.32-.31.5s-.05.18-.11.23c-.26.19-.3.52-.48.76a.16.16,0,0,0,0,.08A2.83,2.83,0,0,1,15.23,26.85Z"/><path d="M54.25,25.5a.52.52,0,0,0-.11.27.81.81,0,0,1-.56.79.7.7,0,0,1-.39.05l-.64-.09a1.55,1.55,0,0,1-1.2-.6c-.31-.48-.8-.5-1.26-.61a1.2,1.2,0,0,0-.71.15,1.59,1.59,0,0,1-1.4-.18A3.5,3.5,0,0,1,46.78,24a3.52,3.52,0,0,0-1.56-1.38.34.34,0,0,1-.24-.27,1.17,1.17,0,0,1-.06-.38,3.39,3.39,0,0,0,0-1.15,1,1,0,0,1,0-.17.28.28,0,0,1,.21-.29,2.48,2.48,0,0,0,.51-.24.33.33,0,0,0,.1-.21s0-.09-.08-.14a.75.75,0,0,0,.18,0c.09,0,.22-.09.23-.16.06-.24.36-.41.21-.71,0,0,0-.1.06-.14a1.19,1.19,0,0,0,.14-.31,2.21,2.21,0,0,1,.66-1.28c0-.05.13-.13.12-.18-.06-.31.21-.53.2-.83,0-.14.09-.21.23-.2a2.42,2.42,0,0,1,.34,0c.42.08.8-.21,1.21-.15,0,0,0,0,.07-.05.2-.28.45-.22.69-.08s.64.39,1,.59c.12.07.32,0,.29-.18a.36.36,0,0,0-.18-.23c-.42-.18-.78-.48-1.23-.62-.25-.08-.4-.12-.56.08a.29.29,0,0,1-.38.11.33.33,0,0,0-.16,0l-1.08.15c-.06,0-.18,0-.18,0-.06-.39-.39-.55-.65-.77a.65.65,0,0,1-.19-.81c.06-.13.14-.25.21-.38a3.26,3.26,0,0,0,.16-.35s0-.11,0-.11-.12,0-.13,0a5.38,5.38,0,0,0-.27.58.39.39,0,0,1-.43.29.58.58,0,0,0-.45.09l.39,0c.22,0,.26.09.32.32a1.23,1.23,0,0,0,.2.42,4.69,4.69,0,0,0,.45.47.82.82,0,0,1,.22.55c0,.25-.15.44-.17.66a.67.67,0,0,1-.23.44c-.11.12-.26.24-.28.37-.06.34-.37.61-.29,1a.09.09,0,0,1,0,.08c-.28.19-.24.5-.32.77a.58.58,0,0,1-.14.25c-.29.28-.59.55-.88.82a.24.24,0,0,1-.34,0L44.18,20a.12.12,0,0,0-.11,0,.13.13,0,0,0,0,.11.48.48,0,0,0,.07.11c.17.27.44.5.26.88,0,.07.07.18.08.28s.1.35,0,.46a.93.93,0,0,0,0,.83c0,.12,0,.22-.1.29s-.34.22-.51.31-.2.16-.08.26,0,.15,0,.22a2.72,2.72,0,0,0,0,.52.5.5,0,0,0,.18.28s.15,0,.23,0l0,0c0-.15-.06-.3-.09-.46-.06-.38,0-.68.44-.81a.41.41,0,0,0,.16-.14.32.32,0,0,1,.46-.06c.23.15.46.29.68.46A3.77,3.77,0,0,1,47.06,25a.32.32,0,0,0,.1.13c.32.23.63.46,1,.67s.84.11,1.27.09a.14.14,0,0,0,.1-.07c.06-.17.19-.15.32-.15a.93.93,0,0,1,.69.18.29.29,0,0,0,.19.08c.28,0,.42.15.57.32a1.9,1.9,0,0,0,.44.41,1.62,1.62,0,0,0,1,.24,3,3,0,0,1,.42.06c.22,0,.36.08.36.33,0,.07.09.14.14.21.24.32.24.38,0,.73,0,.07-.09.18-.06.23a3.54,3.54,0,0,0,.34.49c.14.17.28.33.46.53,0-.11.06-.2,0-.25A6.45,6.45,0,0,0,54,28.6c-.08-.12-.15-.27-.06-.36s.05-.46,0-.69a.38.38,0,0,0-.17-.23c-.2-.15-.22-.18-.06-.34a.9.9,0,0,1,.24-.18.6.6,0,0,0,.36-.5,1.13,1.13,0,0,1,.18-.43c.14-.21,0-.37.16-.57a1.73,1.73,0,0,1,.2-.29c.09-.07.23,0,.23-.15s-.26,0-.33,0A4.73,4.73,0,0,0,54.25,25.5Z"/><path d="M34.29,2.59c-.1,0-.21.13-.31.21a2.55,2.55,0,0,1-.58.49,1.35,1.35,0,0,1-.82.21.34.34,0,0,0-.2.06,3.85,3.85,0,0,1-1.79.54c-.15,0-.19.08-.2.21a2.68,2.68,0,0,1-.13.59c-.12.34-.31.4-.64.25-.12-.06-.24-.16-.39,0l.15.1c.27.17.31.23.14.47s-.24.66-.6.82a.13.13,0,0,0-.07.11c.06.32-.19.51-.33.72a3,3,0,0,1-.69,1s0,.13-.05.2l.4.4.19-.38a2,2,0,0,1,.42-.66A3.64,3.64,0,0,0,29.35,7a.28.28,0,0,0,0-.08c.09-.39.11-.41.48-.57A.24.24,0,0,0,30,6.28c.12-.26.38-.43.4-.75,0-.09.1-.17.15-.25A1.11,1.11,0,0,0,30.68,5a.48.48,0,0,1,.46-.36,3.12,3.12,0,0,0,1.37-.47c.21-.14.43-.31.72-.18a.15.15,0,0,0,.12,0,2,2,0,0,0,.82-.72.79.79,0,0,1,.54-.45.66.66,0,0,0,.53-.46.61.61,0,0,1,.18-.27L35.08,2a.8.8,0,0,0-.17.25A.61.61,0,0,1,34.29,2.59Z"/><path d="M51.79,16.06c-.06,0-.16.05-.17.1s-.14.16-.26.18-.06.06-.08.08.07.1.11.1a1,1,0,0,0,.77-.17l.17-.1-.2-.34L52,16A1.89,1.89,0,0,1,51.79,16.06Z"/><path d="M26.48,58a5.47,5.47,0,0,1-1.76-1.78c-.16-.27-.37-.52-.56-.77,0-.06-.11-.13-.17-.13-.26,0-.36-.2-.51-.34a6.55,6.55,0,0,0-.55-.42c-.19-.14-.41-.23-.52-.48a1.49,1.49,0,0,0-.37-.48c-.25-.23-.43-.55-.79-.65,0,.18.11.26.21.35a2.08,2.08,0,0,1,.58.68,1.82,1.82,0,0,0,.84.85,1.2,1.2,0,0,1,.32.22,2.06,2.06,0,0,0,.66.48.5.5,0,0,1,.17.17l.61.89c.07.11.22.2.22.31,0,.28.22.39.4.53l.16.13a6.73,6.73,0,0,0,.79.59l.08.06.77.38A1.17,1.17,0,0,0,26.48,58Z"/><path d="M23.49,7.43a7.69,7.69,0,0,1,.73-.37.4.4,0,0,1,.46.14.83.83,0,0,0,.87.25c.33-.11.59,0,.88.05.08,0,.17,0,.25.06a.83.83,0,0,1,.65.37,1.15,1.15,0,0,0,.23.21.33.33,0,0,0,0-.3,1.47,1.47,0,0,0-.89-.5A5.08,5.08,0,0,1,26,7.18a1,1,0,0,0-.25,0,2.22,2.22,0,0,1-.68,0c-.36,0-.38-.3-.73-.36,0,0-.09-.1-.11-.16s.1-.15.06-.22c-.16-.25-.22.18-.21-.09,0-.06,0-.06-.1-.06s0,.05,0,.22,0,.14,0,.15c-.3.16-.51.47-.85.57-.15,0-.31.08-.36.31a5.15,5.15,0,0,0,.52,0A.51.51,0,0,0,23.49,7.43Z"/><path d="M27.61,9.25a.48.48,0,0,1-.13.35,8.6,8.6,0,0,0-.57.81.36.36,0,0,0,0,.37c.08.16,0,.27-.18.33l-.53.19c-.36.11-.45.09-.67-.21a.57.57,0,0,0-.51-.26h-.74a.42.42,0,0,1-.39-.13.28.28,0,0,0-.39-.07c-.2.11-.42.18-.63.28-.43.19-.53.14-.65-.33a.43.43,0,0,1,0-.33,2.62,2.62,0,0,0,.15-.4.17.17,0,0,0,0-.11s-.06,0-.07,0a1.56,1.56,0,0,0-.11,1.4s0,0,.07,0c.23,0,.47.13.67,0a.66.66,0,0,1,.81,0,1,1,0,0,0,.58.14c.19,0,.38,0,.57,0a.69.69,0,0,1,.77.35.45.45,0,0,0,.63.19c.14-.07.3-.1.44-.16.34-.15.38-.15.62.14.1.12.2.29.33.33a1.23,1.23,0,0,1,.73.65.43.43,0,0,0,.4.27.86.86,0,0,1,.55.21,1,1,0,0,0,.34.19.31.31,0,0,1,.26.25.9.9,0,0,0,.12.23l0,0c-.47.26-.56.75-.71,1.19a.48.48,0,0,0,0,.29c.09.21.19.42.28.63s.15.31.52.21c-.56-.8-.64-1.7.16-2.25a3.15,3.15,0,0,1,.41.89s0,.05,0,.08c0,.23,0,.46,0,.68a1.88,1.88,0,0,1-.46.85.79.79,0,0,1-1,.36,6.47,6.47,0,0,0-1.08,0c-.09,0-.18.09-.25.15-.36.29-.37.39-.13.79A2,2,0,0,1,28.05,19a3.38,3.38,0,0,0-.08.77,2.23,2.23,0,0,1,0,.58l0,0a.67.67,0,0,0,.17-.52,2.45,2.45,0,0,1,0-.56,2.15,2.15,0,0,0-.27-1.69s0-.06,0-.08,0-.21.06-.29a.94.94,0,0,1,.8-.25,7.26,7.26,0,0,1,.72.13.72.72,0,0,0,.88-.28c.11-.16.21-.17.33,0A.37.37,0,0,0,31,17a4,4,0,0,1,2,.66,2,2,0,0,1,.5.41c.25.28.46.58.71.9-.24.18-.47.35-.69.53a.44.44,0,0,0-.17.23,6.16,6.16,0,0,0,0,.65c.18-.07.13-.2.15-.3a.59.59,0,0,1,.39-.56c.09,0,.15-.12.23-.18s.2-.08.22.09a7.75,7.75,0,0,1,.07,1.18c0,.16-.2.3-.3.46s0,.1,0,.12a3.51,3.51,0,0,1-.54.55.67.67,0,0,1-.47,0,11.13,11.13,0,0,0-2-.07.35.35,0,0,0-.35.2,1.1,1.1,0,0,0-.18.47,1.86,1.86,0,0,1-.17.71,1.85,1.85,0,0,0-.15,1.14,1.32,1.32,0,0,1-.08.7,1.35,1.35,0,0,0-.11.92.81.81,0,0,1,0,.3.23.23,0,0,1-.05.16,9.34,9.34,0,0,1-.89.6,4.76,4.76,0,0,1-.72.25,4.91,4.91,0,0,1-.48.18c-.24.06-.38,0-.45-.31a1.23,1.23,0,0,1-.07-.34,1.89,1.89,0,0,0-.28-1c-.09-.15-.2-.31-.1-.52a.37.37,0,0,0-.09-.31,4.06,4.06,0,0,0-.45-.4,2.19,2.19,0,0,1-.23-.18l-.71-.8a2.92,2.92,0,0,1-.77-1.51.69.69,0,0,0-.45-.59.73.73,0,0,1-.32-.28c-.23-.36-.43-.75-.66-1.11-.1-.16.05-.25.1-.42a2.74,2.74,0,0,0-.37.12c-.15.08-.19.19-.07.31a4.44,4.44,0,0,1,.5.85c.16.25.27.54.61.64.11,0,.2.2.25.33.13.32.21.66.33,1a5.49,5.49,0,0,0,.31.62c.09.16.18.32.27.46-.15.13-.27.23-.38.35s0,.1,0,.15.12,0,.15,0a2.15,2.15,0,0,0,.22-.21c.21-.21.23-.21.38,0a1.25,1.25,0,0,0,.73.63.54.54,0,0,1,.33.7.54.54,0,0,0,.16.62.69.69,0,0,1,.24.62,1,1,0,0,0,.12.63.36.36,0,0,1,0,.29,5.75,5.75,0,0,1-.68,1.25,5.73,5.73,0,0,0-.9,1.25c-.06.13-.15.24-.3.11a.18.18,0,0,0-.29,0,.66.66,0,0,1-.46.22.93.93,0,0,0-.31.12,5.17,5.17,0,0,1-.77.38,4,4,0,0,1-.9.11,1,1,0,0,0-.6.21c-.18.14-.38.26-.57.39a.37.37,0,0,1-.52,0c-.27-.3-.68-.36-1-.6a.39.39,0,0,0-.61,0c-.09.11-.23.17-.33.27a.64.64,0,0,1-.4.22c-.16,0,0,.13,0,.19l.23.23.68-.46c.33-.22.43-.23.74,0l.88.62a.32.32,0,0,0,.24.06,2.28,2.28,0,0,0,.62-.28A2.43,2.43,0,0,1,23,31.52,2.37,2.37,0,0,0,24.12,31a.47.47,0,0,1,.22-.13,1.87,1.87,0,0,0,.69-.23.4.4,0,0,1,.58.21c.09.16.17.33.25.5A.8.8,0,0,1,26,32a.16.16,0,0,0,.05.14c.41.22.58.73,1.06.87,0,0,.07.09.11.13l.52.63a2.8,2.8,0,0,1,.44.58,4.7,4.7,0,0,0,.44.74l.24-.22a.41.41,0,0,0,0-.45,2.23,2.23,0,0,1-.18-.43.59.59,0,0,0-.27-.38c-.46-.25-.67-.79-1.17-1,0,0-.08-.09-.12-.13s-.27-.26-.38-.4-.23-.24-.22-.35a1.37,1.37,0,0,0-.34-.83c-.15-.24-.27-.42,0-.67a6.08,6.08,0,0,0,.42-.6,3.56,3.56,0,0,0,.84-1.28,1,1,0,0,1,.13-.23c0-.07.14-.14.13-.21,0-.27.15-.27.34-.26a2.32,2.32,0,0,0,1.57-.48,1,1,0,0,1,1.24,0,3.61,3.61,0,0,1,1,.91s0,0,.07,0c.14-.27,0-.43-.2-.59s-.66-.57-1-.81a.65.65,0,0,1-.31-.69,1.55,1.55,0,0,0,0-.26,1.4,1.4,0,0,1,.26-.94.3.3,0,0,0,0-.4.64.64,0,0,1-.1-.54,3,3,0,0,1,.2-.74,1.86,1.86,0,0,0,.24-.86c0-.27.1-.38.36-.38a17.38,17.38,0,0,1,2.34.06.25.25,0,0,0,.21-.1,1.48,1.48,0,0,1,.42-.48.4.4,0,0,0,.14-.21,2.15,2.15,0,0,0,0-1.11.7.7,0,0,1,.12-.7c.15-.18.3-.37.6-.31a1.29,1.29,0,0,0,.51-.05,4.64,4.64,0,0,1,2,.14,1,1,0,0,0,.55,0A9.24,9.24,0,0,1,40,18.82a.18.18,0,0,1,.15.08c.07.19.14.17.28.07a1.61,1.61,0,0,1,.38-.18,1.76,1.76,0,0,0,.4-.15.66.66,0,0,1,.41-.11c.19,0,.4-.1.55,0s.26.28.39.44l.2-.17c.12-.11.09-.16,0-.3a1.11,1.11,0,0,1-.33-1.06c0-.07,0-.19-.09-.26a3.06,3.06,0,0,1-.52-1,1.34,1.34,0,0,1,0-.38c0-.27,0-.54.07-.82a.79.79,0,0,0-.22-.59,2.16,2.16,0,0,1-.31-.51,2.83,2.83,0,0,0-.42-.75,3.94,3.94,0,0,1-.31-.51,1.26,1.26,0,0,0-.24-.36.39.39,0,0,1-.09-.62c.06-.08.06-.19.12-.27s0-.21-.09-.27l-.55-.24a.53.53,0,0,0-.25,0,2.67,2.67,0,0,0-.59.12.59.59,0,0,1-.63-.15.79.79,0,0,0-.33-.2c-.21,0-.21-.15-.2-.31s0-.47,0-.68.07-.69-.27-.92c0,0,0-.11,0-.17s0-.41,0-.61a.3.3,0,0,1,.06-.2c.24-.21.2-.49.22-.78h-.39c0,.48-.07.94-.11,1.39a.78.78,0,0,1-.08.24s-.07.07-.09.07c-.25-.06-.16.09-.11.18a1,1,0,0,0,.14.16c.22.28.43.55.26.94a.47.47,0,0,0,0,.34.36.36,0,0,1-.07.43c-.1.11,0,.2.1.25a2.06,2.06,0,0,1,.55.23.75.75,0,0,0,.69.1,4.92,4.92,0,0,1,.86-.06.3.3,0,0,1,.16.06c.23.16.28.27.17.6,0,.15-.09.32,0,.39s.31.36.41.58a.58.58,0,0,0,.16.25.92.92,0,0,1,.4.63.59.59,0,0,0,.11.19c.16.25.33.5.48.75a.67.67,0,0,1,.09.33c0,.29,0,.57-.06.86a.63.63,0,0,0,0,.3A3,3,0,0,0,42,17a1.11,1.11,0,0,1,.25.45c.13.39,0,.54-.4.54a2,2,0,0,0-.51,0,7.4,7.4,0,0,0-.8.31,1,1,0,0,1-.72,0,1.64,1.64,0,0,0-1.25.11.8.8,0,0,1-.41.1,2.43,2.43,0,0,1-.58-.13,1.77,1.77,0,0,0-.72-.12l-1.16.08a1,1,0,0,0-.26,0,1,1,0,0,1-1.09-.27,2.1,2.1,0,0,1-.52-.64.42.42,0,0,0-.2-.22,5.63,5.63,0,0,0-2.36-.75c-.42,0-.51-.16-.4-.58a1.75,1.75,0,0,0,0-1.34.08.08,0,0,1,0,0,.75.75,0,0,0-.31-.64c-.19-.19-.13-.36.15-.41.11,0,.23,0,.34,0s.07-.08.1-.12-.1-.07-.13-.06c-.26.09-.42,0-.6-.21a1.45,1.45,0,0,0-1.07-.57c-.25,0-.35-.13-.4-.36a.7.7,0,0,0-.6-.57.38.38,0,0,1-.4-.3,1.36,1.36,0,0,0-.39-.62.28.28,0,0,1,0-.39,2.5,2.5,0,0,1,.4-.56.79.79,0,0,0,.27-.81l-.4-.4A1,1,0,0,0,27.61,9.25Z"/><path d="M52.78,33.61a2.88,2.88,0,0,1-1.17.24.15.15,0,0,0-.12,0c-.15.18-.4.14-.58.26a.31.31,0,0,1-.43-.08,1.13,1.13,0,0,0-.53-.36A4,4,0,0,1,48.8,33a2,2,0,0,0-.86-.34,2.35,2.35,0,0,1-.65-.12,1.75,1.75,0,0,1-.65-.56,9.28,9.28,0,0,0-.78-.82s-.1,0-.15,0,0,.13,0,.15a4.21,4.21,0,0,1,.77.86,1.37,1.37,0,0,0,1,.62,1.63,1.63,0,0,1,.81.26,8.73,8.73,0,0,1,.9.57,1.84,1.84,0,0,0,.26.14c.27.14.55.26.81.41s.28.24.18.53a1.68,1.68,0,0,1-.61.77c-.08.06-.18.13-.19.21a5.08,5.08,0,0,0-.09,1,2,2,0,0,0,.11.87c0,.05,0,.13,0,.2a1,1,0,0,0,0,.25c.06.28.14.56.2.84a1.11,1.11,0,0,1,0,.41A2.88,2.88,0,0,1,49,40.64c-.25.27-.43.24-.68,0a1.57,1.57,0,0,0-.21-.22.12.12,0,0,0-.2.13.87.87,0,0,0,.18.28,4.74,4.74,0,0,1,.83.94.46.46,0,0,0,.19.17,6.73,6.73,0,0,1,1.12.87.49.49,0,0,1,.15.21.91.91,0,0,0,.75.51c.07,0,.16,0,.24-.05a.6.6,0,0,0-.33-.17.58.58,0,0,1-.49-.38,1.51,1.51,0,0,0-.5-.58c-.21-.18-.45-.32-.65-.5a5.49,5.49,0,0,1-.46-.52c-.07-.08-.07-.17,0-.22.31-.18.47-.5.72-.74a1.13,1.13,0,0,0,.35-.63.37.37,0,0,1,.28-.35c.18,0,.17-.19.1-.31a2,2,0,0,1-.22-1.13.51.51,0,0,0,0-.22,1.79,1.79,0,0,1-.08-1.41.25.25,0,0,0,0-.13.74.74,0,0,1,.25-.64c.18-.21.45-.4.44-.72a.48.48,0,0,1,.33-.47,2.33,2.33,0,0,1,.61-.19,10.85,10.85,0,0,0,1.32-.34l0-.14A.79.79,0,0,0,52.78,33.61Z"/><path d="M44.25,24.71c-.33.17-.33.47-.33.77a3.39,3.39,0,0,0,0,.43,2.6,2.6,0,0,1-.62,1.71c-.12.2-.26.38-.38.57a9.57,9.57,0,0,1-.73,1.36.61.61,0,0,0-.08.2,7.24,7.24,0,0,1-.31.85,2,2,0,0,0,0,1.58.39.39,0,0,1-.13.48c-.15.13-.26.27-.51.15a1.8,1.8,0,0,0-1,0c.31.05.64.09,1,.17a.43.43,0,0,0,.47-.1c.17-.16.19-.15.34.08a1,1,0,0,1,.07.17.36.36,0,0,0,0-.47,2.29,2.29,0,0,1-.09-.9c0-.31-.07-.64.22-.89,0,0,0-.11,0-.16s.08-.21.11-.32c.19-.6.57-1.12.8-1.71A8.46,8.46,0,0,1,44,27.23a1.48,1.48,0,0,0,.3-.88,4.4,4.4,0,0,1,.06-1.12.81.81,0,0,0-.07-.71l0,0C44.26,24.6,44.27,24.7,44.25,24.71Z"/><path d="M39.24,5.58a.16.16,0,0,0,0,.15.14.14,0,0,0,.14,0,2.26,2.26,0,0,0,.28-.32c.13-.19.25-.39.37-.58a2.86,2.86,0,0,0,.23-.4L40,4.25a2.37,2.37,0,0,1-.19.37Q39.51,5.1,39.24,5.58Z"/><path d="M45.76,8.93a.63.63,0,0,0-.51,0,5.1,5.1,0,0,0,.58.21.71.71,0,0,0,.38,0L46.52,9l-.18-.16-.08,0A.64.64,0,0,1,45.76,8.93Z"/><path d="M43.26,8.93c.13,0,.26,0,.39,0a3.28,3.28,0,0,0,.46-.1s0-.06.07-.1L44,8.66h0a1.27,1.27,0,0,1-.84.15.43.43,0,0,0-.45.26c-.12.25-.33.49-.17.79,0,.18,0,.4-.14.5-.38.36-.67.92-1.35.71h0s-.09,0-.1.06a.12.12,0,0,0,.05.11.73.73,0,0,0,.78,0c.19-.13.37-.28.56-.4a.69.69,0,0,0,.34-.66,1.65,1.65,0,0,1,.24-1A.43.43,0,0,1,43.26,8.93Z"/><path d="M36.33,28.6c-.13-.11-.25-.27-.4-.3a1.11,1.11,0,0,1-.5-.31c-.11-.09-.21-.21-.32-.3a.46.46,0,0,0-.22-.12c-.37,0-.74-.07-1.12-.09a2.85,2.85,0,0,0-.3,0,4,4,0,0,1-.47,0,2.19,2.19,0,0,1-.3-.05,1,1,0,0,0-.22,0s-.06.06-.07.09a.08.08,0,0,0,0,.06,2.31,2.31,0,0,0,1,.09,1.51,1.51,0,0,1,.81,0,1,1,0,0,0,.34,0,.63.63,0,0,1,.63.29,1,1,0,0,0,.4.37.74.74,0,0,1,.48.31.15.15,0,0,0,.14,0S36.36,28.62,36.33,28.6Z"/><path d="M46.43,39.5a.91.91,0,0,0-.57.61,6.64,6.64,0,0,0-.19,1,5,5,0,0,1-.26,1.27c0,.07-.08.14-.06.2a.65.65,0,0,0,.13.2s.11-.09.12-.15q.14-.7.27-1.4c.1-.58.14-1.18.7-1.55,0,0,0-.07.07-.14S46.48,39.48,46.43,39.5Z"/><path d="M34,10.83a.23.23,0,0,0-.15.05,1.31,1.31,0,0,1-.69.42.66.66,0,0,0-.31.22,2,2,0,0,1-1.06.77l0,0s0,.05,0,.07a.94.94,0,0,0,.11.14,3.73,3.73,0,0,0,.8-.48,3.68,3.68,0,0,1,.83-.61A4.94,4.94,0,0,0,34,11s0-.06,0-.08S34,10.83,34,10.83Z"/><path d="M37.4,29.4,37,29.26a5.89,5.89,0,0,0-.56-.19s-.11.07-.17.11.07.11.11.11c.35,0,.59.34,1,.34s.31.14.26.41a.51.51,0,0,0,.07.49c.2-.18,0-.41.12-.61a4.51,4.51,0,0,0,.19-.64A.49.49,0,0,1,37.4,29.4Z"/><path d="M36.17,11a.53.53,0,0,1-.57.1,5.12,5.12,0,0,1-.53-.17l-.67-.23,0,.06a.73.73,0,0,0,.15.12,5.52,5.52,0,0,0,.95.41.8.8,0,0,0,.82-.11.62.62,0,0,1,.31-.11c.11,0,.23,0,.35,0A.12.12,0,0,0,37,11a.11.11,0,0,0-.06-.09C36.69,10.87,36.41,10.76,36.17,11Z"/><path d="M47.92,40.05c-.1-.16-.19-.32-.29-.47a.4.4,0,0,0-.19-.15c-.28-.08-.55-.17-.66-.5,0,0-.09,0-.14,0s0,.11,0,.15.13.23.17.35.17.33.41.27.19.06.2.17.23.32.42.4c0,0,.09,0,.13-.05A.56.56,0,0,0,47.92,40.05Z"/><path d="M50.06,44.45l.07-.26a.79.79,0,0,0-.36.74,4.84,4.84,0,0,1,.07.59.8.8,0,0,0,.26.57.11.11,0,0,0,.11,0,.11.11,0,0,0,0-.1c-.26-.36-.17-.8-.27-1.19C49.95,44.7,50,44.57,50.06,44.45Z"/><path d="M46.14,42.93,46,43c.28.19.06.41,0,.62s-.06.33-.1.5h0a2.07,2.07,0,0,0,0,.3s.07.07.1.11.08-.06.08-.08a3.38,3.38,0,0,1,.18-1.05.48.48,0,0,0,0-.3C46.33,43.06,46.22,43,46.14,42.93Z"/><path d="M17.92,13.93c.15,0,.2.15.19.3a4.14,4.14,0,0,1,0,.81.23.23,0,0,0,.05.2c.25.18.31.53.61.65a.21.21,0,0,1,.1.16,2.71,2.71,0,0,1-.06.64,3,3,0,0,0,0,1.54.36.36,0,0,0,.26.3.37.37,0,0,1,.24.55,4,4,0,0,1-.19.39,2.33,2.33,0,0,0-.22.47c-.13.55-.61.72-1,1a1.74,1.74,0,0,1-.49.11c.08.25.35,0,.48.2a.21.21,0,0,0,.12.05.18.18,0,0,0,.12,0,3.06,3.06,0,0,0,.61-.41,3.65,3.65,0,0,0,.49-.71c.14-.25.29-.43.61-.29a.33.33,0,0,0,.25,0,3.85,3.85,0,0,1,1-.23.94.94,0,0,1,1,.13,2.39,2.39,0,0,0,.32.22.46.46,0,0,0,.2.07.18.18,0,0,0,.14-.06.17.17,0,0,0,0-.16,3,3,0,0,0-.27-.21A1.22,1.22,0,0,0,21,19.4a.34.34,0,0,1-.25,0c-.14-.07-.25,0-.37,0a2.41,2.41,0,0,1-.37.11c-.19,0-.48-.18-.42-.31a.93.93,0,0,0-.08-.78,1.11,1.11,0,0,1,0-.46.34.34,0,0,0-.14-.28l-.33.52c-.05-.12-.12-.2-.1-.25.14-.37,0-.78.22-1.14a1.79,1.79,0,0,0,.11-.55.55.55,0,0,0-.17-.51,6.71,6.71,0,0,1-.54-.66.3.3,0,0,1-.06-.16c0-.32,0-.64,0-1a.39.39,0,0,1,.08-.19c.08-.12.18-.23.26-.34a.75.75,0,0,1,.8-.3.7.7,0,0,0,.24,0,1.52,1.52,0,0,1,1.05.08.56.56,0,0,0,.25,0,1,1,0,0,0,.8-.2c.07-.07.14-.1.18-.22.14-.44,0-.93.23-1.35.06-.09,0-.24-.17-.24s-.14.08-.17.14a.38.38,0,0,0,0,.24,2.14,2.14,0,0,1-.09.9.39.39,0,0,1-.25.25,6.22,6.22,0,0,1-.86.1c-.08,0-.21,0-.24-.05-.19-.27-.44-.15-.67-.12l-.59.08a1,1,0,0,0-.69.32c-.06.08-.12.16-.19.24s-.22.13-.4,0a4.72,4.72,0,0,0-.5-.24l-.23.23A1.18,1.18,0,0,0,17.92,13.93Z"/><path d="M8.68,9.42c.41-.16.55.15.7.4s.38.71.55,1l.6-.31a3.56,3.56,0,0,1,1.5-.12s.1,0,.15.07a1.09,1.09,0,0,0,1.15,0,1.55,1.55,0,0,1,.41-.11c.11,0,.24,0,.34,0a.25.25,0,0,1,.36.14,1.59,1.59,0,0,1,.18.52,4.39,4.39,0,0,0,.25,1.09.61.61,0,0,0,.51.46,1.31,1.31,0,0,1,.7.31c.17.16.33.33.6.21,0,0,.11,0,.16.05l.48.29.23-.23c-.19-.28-.39-.53-.78-.51a.37.37,0,0,1-.24-.07,2.41,2.41,0,0,0-1-.44.34.34,0,0,1-.26-.19,2.11,2.11,0,0,1-.34-1.25.41.41,0,0,0-.06-.24,4.42,4.42,0,0,0-.28-.44.63.63,0,0,1-.13-.6,1.58,1.58,0,0,0,.09-.76c-.06-.27-.22-.51,0-.76,0,0,0-.06,0-.07s-.07,0-.07,0-.14.16-.15.25a3.73,3.73,0,0,0,0,.56,3.3,3.3,0,0,1,0,.43c0,.24-.06.48-.08.73s-.06.19-.18.18a1.62,1.62,0,0,0-.76.14.72.72,0,0,1-.34,0,9.28,9.28,0,0,1-1.4-.2,1.26,1.26,0,0,0-.79.07l-.75.28c-.14-.28-.24-.54-.38-.78a3.17,3.17,0,0,0-.37-.47S9.15,9,9.1,9a4.1,4.1,0,0,0-.51.23s0,.08,0,.11S8.65,9.43,8.68,9.42Z"/><path d="M2.7,14.41s0,.08.06.11a.74.74,0,0,1,.21.7.6.6,0,0,1-.09.26.54.54,0,0,0-.11.23.2.2,0,0,0,.09.17A.19.19,0,0,0,3,15.8a1,1,0,0,0,.18-.48c0-.35.18-.49.42-.62a4.39,4.39,0,0,0,.71-.39s.13-.07.16-.05c.21.13.31-.06.44-.14A.87.87,0,0,1,5.14,14,1.8,1.8,0,0,0,6,13.36a1.77,1.77,0,0,0,.34-.62c-.12.06-.16.06-.17.08A3.26,3.26,0,0,1,4.82,14c-.16.06-.28.18-.48.18a.62.62,0,0,0-.28.09l-.64.35c-.23.13-.32.11-.37-.14a.44.44,0,0,0-.29-.34.77.77,0,0,1-.44-.39A.4.4,0,0,0,2,13.48l-.13.28.16.11C2.27,14.05,2.38,14.35,2.7,14.41Z"/><path d="M6.16,8.68c.21.17.55.19.66.46a.93.93,0,0,0,.58.47c.1,0,.23.05.33.11a.52.52,0,0,0,.6-.09.21.21,0,0,0,.06-.14s-.07-.06-.1-.06c-.34,0-.6-.19-.9-.28A.45.45,0,0,1,7.16,9a1.58,1.58,0,0,0-.93-.67A.68.68,0,0,1,5.87,8l-.29.29a.92.92,0,0,0,.46.3A.42.42,0,0,1,6.16,8.68Z"/><path d="M2.54,18.64a.33.33,0,0,1,0,.24A2.18,2.18,0,0,0,2.31,20a4.45,4.45,0,0,1-.06.55c0,.1,0,.2,0,.3H2.3l.29-.57c-.15-.21,0-.42,0-.62a1.78,1.78,0,0,1,.18-.84.47.47,0,0,0,0-.33,2.48,2.48,0,0,1-.15-.71,2.92,2.92,0,0,1,0-1.56c0-.06,0-.15-.07-.24a1,1,0,0,0-.33,1A8.45,8.45,0,0,0,2.54,18.64Z"/><path d="M18.6,7.25a.74.74,0,0,1,.25.24.63.63,0,0,1,.15.67c-.12.31.08.61.18.91a.22.22,0,0,0,.13.1,2.2,2.2,0,0,0,1.06.13.11.11,0,0,0,.07-.08.12.12,0,0,0-.07-.09L19.74,9a.43.43,0,0,1-.38-.39c0-.21-.07-.42-.09-.64a1.06,1.06,0,0,0-.35-.76c-.21-.18-.4-.39-.63-.61C18.33,6.88,18.33,7.12,18.6,7.25Z"/><path d="M22.35,25.46a3.63,3.63,0,0,0-.72.46,9,9,0,0,0-.74,1c.14,0,.22,0,.26-.09a4.17,4.17,0,0,0,.29-.38,1.89,1.89,0,0,1,.65-.62c.27-.14.51-.32.77-.47a.74.74,0,0,1,.61-.13,1.46,1.46,0,0,0,.48,0s.07-.07.1-.11S24,25,23.94,25a1,1,0,0,1-.54,0,.9.9,0,0,0-.76.23A1.83,1.83,0,0,1,22.35,25.46Z"/><path d="M23.26,9.67c.07.06.07.29.23.15s-.05-.17-.11-.24c-.3-.37-.74-.66-.76-1.22,0,0-.13,0-.16,0s-.06.12-.11.22a1.54,1.54,0,0,0,.2.41A9,9,0,0,0,23.26,9.67Z"/><path d="M26.4,16.91c.2.13.41.27.62.39s.2.07.22,0,0-.14-.11-.18l-1.53-1s-.08,0-.18,0a3.77,3.77,0,0,0,.34.31C26,16.64,26.18,16.77,26.4,16.91Z"/><path d="M27.56,20.71a11,11,0,0,0-1.32.92c.28.12.45-.08.59-.2a3.61,3.61,0,0,1,.82-.55.51.51,0,0,0,.33-.51l0,0A1.8,1.8,0,0,1,27.56,20.71Z"/><path d="M16.23,44.63c-.3-.17-.67-.13-1-.36l.12.32c-.25-.15-.45-.25-.64-.37s-.36-.27-.54-.41a3.63,3.63,0,0,1,.17-.37c.24-.41.51-.8.74-1.22a2.21,2.21,0,0,0,.29-1.5c0-.24,0-.35.25-.4s.23,0,.29-.06.17-.05.29,0a1,1,0,0,1,.45.38.61.61,0,0,0,.49.31,1.66,1.66,0,0,1,.57.19c.18.09.34.21.29.47s-.06.57-.1.86-.07.54-.12.81c0,.09-.05.18.06.2s.12-.1.15-.16a.47.47,0,0,0,0-.21,7.11,7.11,0,0,1,.17-1.41.32.32,0,0,1,.33-.32A3.68,3.68,0,0,0,19.76,41a1,1,0,0,1,.41-.13.42.42,0,0,0,.46-.31.55.55,0,0,1,.37-.33,3.77,3.77,0,0,0,.62-.38c.23-.14.46-.3.69-.43s.25-.05.33.14.05.2.1.29.23.43.35.64c0,0,.09,0,.13.06a.43.43,0,0,0,0-.15,2.54,2.54,0,0,0-.14-.36q-.24-.48-.48-1c-.06-.12-.11-.21,0-.34a.81.81,0,0,0,.22-.46c0-.53.37-.71.8-.81a4.51,4.51,0,0,0,.44-.16L24,37.24s-.08-.07-.11-.06a1.39,1.39,0,0,0-1.17.6,2.23,2.23,0,0,1-.5.53.2.2,0,0,1-.31,0c-.23-.21-.34-.54-.69-.64-.06,0-.07-.18-.13-.26s-.13-.22-.19-.22a.88.88,0,0,1-.79-.44.47.47,0,0,0-.32-.1c-.36,0-.73,0-1.09,0s-.36,0-.41-.27c0-.1,0-.21,0-.3a2.16,2.16,0,0,0-.24-.81,5.11,5.11,0,0,1-.42-.63.58.58,0,0,0-.22-.21,1,1,0,0,1-.52-.7,1.25,1.25,0,0,0-.17-.35.13.13,0,0,0-.11,0,.11.11,0,0,0-.05.09,2.12,2.12,0,0,0,.42.84,5.78,5.78,0,0,1,.84,1,2.19,2.19,0,0,1,.27.62c.09.31.14.64.2.93.27,0,.5,0,.72-.08a1.26,1.26,0,0,1,1.16.31,1,1,0,0,0,.44.24.37.37,0,0,1,.35.27.52.52,0,0,0,.35.36.67.67,0,0,1,.24.17c.28.32.54.65.84,1a14,14,0,0,1-1.62.91.42.42,0,0,0-.22.19.59.59,0,0,1-.56.39.26.26,0,0,0-.12,0,4,4,0,0,1-1.39.45A.83.83,0,0,1,18,41a3.73,3.73,0,0,0-.75-.3.69.69,0,0,1-.36-.21,1.84,1.84,0,0,0-.47-.43.72.72,0,0,1-.42-.73.48.48,0,0,0-.13-.42c0,.34,0,.58.05.82s0,.3-.19.35a2.06,2.06,0,0,1-.75.19s-.08.06-.12.1.08.08.12.09c.28.07.28.07.28.34a3.3,3.3,0,0,1,0,.48.29.29,0,0,1-.14.18s-.14-.05-.17-.1a2.92,2.92,0,0,1-.25-.68.52.52,0,0,0-.23-.39.54.54,0,0,1-.25-.69.69.69,0,0,0,0-.38,1.25,1.25,0,0,1,0-.81.23.23,0,0,0-.11-.3c-.39-.21-.69-.55-1.06-.79s-.25-.23-.17-.51l.18-.62a.44.44,0,0,1,.31-.37.43.43,0,0,0,.26-.57c0-.13-.15-.14-.25-.12a.19.19,0,0,0-.1.15c0,.44,0,.49-.49.56-.16,0-.22.1-.14.23a.57.57,0,0,1,0,.61,1,1,0,0,0-.09.29.26.26,0,0,0,0,.19,4.74,4.74,0,0,0,1.09,1,.35.35,0,0,1,.22.37,1.75,1.75,0,0,0,.13.93c.06.12,0,.22,0,.33a.48.48,0,0,0,.21.63.85.85,0,0,1,.37.55.82.82,0,0,0,.35.57.2.2,0,0,1,.06.3c-.18.33-.36.65-.55,1-.29.47-.5,1-1.16,1.1l0,0s0,.05,0,.08,0,.06.05.06a.85.85,0,0,0,.21,0,.77.77,0,0,1,.65.1,4.31,4.31,0,0,0,1.59.68.4.4,0,0,1,.36.33c0,.11.05.22.07.33a4.78,4.78,0,0,0,.18.8,4.72,4.72,0,0,0,.42.7l.31-.31c-.47-.47-.41-1.11-.53-1.69C16.64,44.77,16.4,44.73,16.23,44.63Z"/><path d="M13.07,34a3,3,0,0,1,.39-1.49.4.4,0,0,0,0-.42A5.22,5.22,0,0,0,13,33.55a1.72,1.72,0,0,0-.06.42c0,.21-.06.31-.25.31a1.15,1.15,0,0,1-.45-.12.89.89,0,0,0-.62-.12,2.49,2.49,0,0,1-1.69-.14.25.25,0,0,0-.36.11.71.71,0,0,1-.34.26c-.44.15-.69.6-1.16.68,0,0-.06.06-.1.09a1.54,1.54,0,0,0-.38.51,5.76,5.76,0,0,0-.66,1.4.82.82,0,0,0,0,.62c.05-.06.11-.09.12-.13a2.27,2.27,0,0,1,.44-1.11.79.79,0,0,0,.08-.2c.18-.46.4-.89.94-1A.23.23,0,0,0,8.65,35c.1-.2.29-.22.46-.29a.94.94,0,0,0,.35-.25.57.57,0,0,1,.73-.17,2.16,2.16,0,0,0,1.28.05,1,1,0,0,1,.74,0,1.51,1.51,0,0,0,.33.08C12.9,34.52,13.07,34.41,13.07,34Z"/><path d="M6.14,39.72c.14-.28.31-.55.46-.83s.29-.62.44-.93a.38.38,0,0,0,0-.11s-.05-.09-.1-.11a.15.15,0,0,0-.14.06,6.14,6.14,0,0,1-.41.85A3.08,3.08,0,0,0,5.92,40l.16.24s0-.09,0-.14A1,1,0,0,1,6.14,39.72Z"/><path d="M24.73,36.81a7.83,7.83,0,0,1,.53-.79c.08-.12.35-.23.23-.36s-.25.15-.4.2S25,35.94,25,36c-.14.2-.27.41-.42.6s-.36.43-.55.65l.05.05A.81.81,0,0,0,24.73,36.81Z"/><path d="M13.56,48.46a.54.54,0,0,0,.52.22l-.18-.47c-.11,0,0,.29-.18.1s-.14-.31-.36-.21l0,0a.57.57,0,0,0-.71.15l.14.14.06,0A.58.58,0,0,1,13.56,48.46Z"/><path d="M26,35.09a1.86,1.86,0,0,0,1.31-.56.65.65,0,0,0,.16-.26c-.16-.13-.2,0-.29.12a2.22,2.22,0,0,1-1.34.56c-.24,0-.32.1-.42.47a1.12,1.12,0,0,0,.21-.17A.4.4,0,0,1,26,35.09Z"/><path d="M45.88,58.69c0-.09,0-.16-.06-.2a.67.67,0,0,0-.17-.11,1.38,1.38,0,0,0-.08.14s0,.06,0,.09c0,.21,0,.21-.24.14s-.14-.06-.18,0a1.84,1.84,0,0,0-.61.71s0,.11,0,.15a.12.12,0,0,0,.11,0c.13-.18.27-.11.42,0s.25.11.36,0a2.69,2.69,0,0,0,.37-.47c.22-.39.51-.44.81-.11.11.12.2.27.46.25l-.38-.43C46.47,58.47,46.26,58.44,45.88,58.69Z"/><path d="M48.18,54.5c-.05,0-.15-.05-.22-.1a.22.22,0,0,0-.31,0,1.25,1.25,0,0,0-.42.59,2.91,2.91,0,0,1-.26.64c-.11.2-.09.5-.39.57a.23.23,0,0,0,0,.14.37.37,0,0,0,.15.07c.21.07.24,0,.33-.17a2.26,2.26,0,0,1,.34-.73.28.28,0,0,0,.08-.19c0-.28.29-.34.32-.58,0,0,.1,0,.16,0l1.2-.08c.11,0,.24,0,.28-.16-.06,0-.12-.05-.16,0C48.95,54.62,48.55,54.36,48.18,54.5Z"/></svg>
