<?xml version="1.0" encoding="utf-8"?>
<!-- Generator: Adobe Illustrator 21.0.1, SVG Export Plug-In . SVG Version: 6.00 Build 0)  -->
<svg version="1.1" id="Слой_1" xmlns="http://www.w3.org/2000/svg" xmlns:xlink="http://www.w3.org/1999/xlink" x="0px" y="0px"
	 viewBox="0 0 1902.3 546.2" style="enable-background:new 0 0 1902.3 546.2;" xml:space="preserve">
<style type="text/css">
	.st0{fill:#FFFFFF;}
	.st1{fill:none;}
	.st2{fill:#2E294E;}
</style>
<g id="Слой_2">
	<polygon class="st0" points="1898,543.3 0,546.2 0,179.2 258,91.2 1898,179.2 	"/>
</g>
<g id="Слой_1_1_">
	<g>
		<path class="st1" d="M1722,454.2c-82.6-15.9-142.1-9.4-172.9-3.3c26.2-3,77.8-1.5,173.9,23.3c70,18,130.6,24,177,28.4v-39.5
			C1854.4,466.5,1803.8,469.9,1722,454.2z"/>
		<path class="st2" d="M1771,492.2c-79.8-24.2-143.4-26.8-165.3-24.4c30.5-3.9,81.9-5.9,145.3,5.7c68.8,12.6,96.6,7.5,149.5-6
			l-0.5-25.3h1.3l1-61.4c-0.1,0-0.2-0.1-0.2-0.1l0.2-128.1L1902,41.2c-2.5-0.2-48.3-37.5-233,0c-197,40-273-37-412,4
			c-128.9,38-196.8,6.6-255.9-2.1C850.4,20.8,823.6,89.4,735.3,73.3c42.5-3.5,75.7-40.1,117.6-47.7c39.1-7.1,82.5,11.5,117.5-7.4
			c-34.7,3.4-67.8-15-102.5-17.8c-67.7-5.5-129.4,48-197.3,44.5c-39.3-2-75.4-22.9-114.5-27.2c-45.1-4.9-89.3,12.7-133.9,21.2
			c-42.8,8.2-87.2,7.9-130-0.8c-38.7-7.9-77.1-22.6-116.4-18.9c-57.3,5.4-103.2,48.5-138,95.2C21.7,133.2,1.7,159,1.7,159v282.5
			c0,0,54.5-24.7,81-55c26.4-30.3,45.3-72.1,52.9-111.3s29-83.5,71.8-113.8c16.6-11.7,29.3-24.8,38.8-36.4
			c-2.2,10.9-6,21.7-11.7,31.3c-9.2,15.5-34.5,35.3-49.2,45.7c26.9-8.5,61.8-21.8,82.4-41.2c13.9-13.1,24.7-30.1,29.2-48.8
			c0.3-1.4,0.5-2.8,0.8-4.1c0.2,0.9,0.4,1.9,0.5,2.9c1.3,12.6,0,51.9,2.5,73.4s28.7,34.8,32.4,41.1c3.8,6.3-20.8,17.5-20.8,17.5
			s2.5,4.3,9.5,12.6c5,5.9-8.7,14-8.7,14s8.3,2.6,7.8,9.6c-0.6,8.9-8.5,9.8-8.5,9.8s-1.6,25.6-12.9,31.9s-63-6.3-89.5-17.7
			c-26.5-11.4-39.1-44.3-39.1-44.3s7.6,26.9,18.9,38.3c11.3,11.4,40.3,22.4,40.3,22.4S206.2,347.2,191,370
			c-15.1,22.8-16.4,46.8-16.4,46.8s-1.9,1.9-17-4.4s-23.3-14.5-23.3-14.5s3.8,12.6,16.4,19c12.6,6.3,27,8.9,60.5,25.3
			c34.5,16.9,39.9,47.4,44.1,67c1.7,7.9,3.1,22.2,3.8,27.2c1.9,14,59.3-1,92-10.8c76.4-22.7,160.3,10.7,238.3-5.8
			c18.8-4,37.1-10.4,56-14c36-7,73.9-3.8,108.3,9.1c-28.1-25.4-68.8-31.2-106.6-29c-37.7,2.2-75,11.2-112.8,10.6
			C595.6,458.2,673.9,463,745,476s143.3,32.8,214.5,20.2c27.6-4.9,53.8-15.7,81.4-20.7c104.2-19.2,132,47.1,273.2,24.8
			c171-27,217-34,361,1c172.9,42,197,31,225,20l0.5-19.2C1856,511.2,1827.2,509.3,1771,492.2z"/>
		<path class="st2" d="M1900,502.6c0.1,0,0.2,0,0.3,0l0.5-39.6c-0.3,0-0.5,0-0.8,0.1V502.6z"/>
		<path class="st2" d="M1900,463.1c0.3,0,0.5,0,0.8-0.1l0.5-20.8h-1.3V463.1z"/>
		<path class="st2" d="M1900,499.6v21.6l0.3-18.5C1900.2,502.7,1900.1,499.6,1900,499.6z"/>
	</g>
</g>
</svg>
