<?xml version="1.0" encoding="utf-8"?>
<!-- Generator: Adobe Illustrator 21.0.1, SVG Export Plug-In . SVG Version: 6.00 Build 0)  -->
<svg version="1.1" id="Слой_1" xmlns="http://www.w3.org/2000/svg" xmlns:xlink="http://www.w3.org/1999/xlink" x="0px" y="0px"
	 viewBox="0 0 85.2 102.4" style="enable-background:new 0 0 85.2 102.4;" xml:space="preserve">
<style type="text/css">
	.st0{fill:url(#SVGID_1_);}
</style>
<g>
	<g>
		<linearGradient id="SVGID_1_" gradientUnits="userSpaceOnUse" x1="83.2033" y1="102.0979" x2="1.7925" y2="20.6871">
			<stop  offset="0" style="stop-color:#623AA2"/>
			<stop  offset="1" style="stop-color:#F97794"/>
		</linearGradient>
		<path class="st0" d="M75.1,77.2H32.9L14.7,63c-4.2-3.3-10.3-2.5-13.6,1.7l-0.9,1.2l18.6,14.5l-3.3,5H1.5v3.1h6.6l-7.9,12.3
			l2.6,1.6l8.9-14H29h44l8.9,14l2.6-1.6l-7.9-12.3h6.6h1.5v-1.5C84.8,81.5,80.4,77.2,75.1,77.2z M19.1,85.3l2-3.1l4,3.1H19.1z
			 M30.1,85.3L4.6,65.4c2.3-1.9,5.8-2,8.2,0l19,14.8h43.3c3.1,0,5.8,2.2,6.5,5.1H30.1z M72.6,10.2C64.3,3.6,53.7,0,42.6,0
			c-11.1,0-21.7,3.6-30,10.2C4.6,16.6,0,25,0,33.1v1.5l3,0l0.5-0.5c1.8-2,4.1-3,6.4-2.9c2.4,0.1,4.6,1.2,6.3,3.3l1.7,2.1l1.3-1.6
			c1.7-2.1,4.2-3.3,6.9-3.3c2.7,0,5.2,1.2,6.9,3.3l1.3,1.6l1.3-1.6c1.4-1.8,3.4-2.9,5.6-3.2v42.8h3.1V31.9c2,0.4,3.9,1.5,5.2,3.2
			l1.3,1.6l1.3-1.6c1.7-2.1,4.2-3.3,6.9-3.3c2.7,0,5.2,1.2,6.9,3.3l1.3,1.6l1.7-2.1c1.7-2.1,3.9-3.3,6.3-3.3c2.4-0.1,4.7,1,6.4,2.9
			l0.5,0.5h3v-1.5C85.2,25,80.6,16.6,72.6,10.2z M16.4,30.4c-1.9-1.4-4.1-2.3-6.4-2.3c-2.4-0.1-4.7,0.7-6.7,2.1
			C4.9,19.9,14.9,9.3,29.2,5c-1.9,1.5-3.7,3.4-5.3,5.5C19.6,16.2,17,23.3,16.4,30.4z M32.3,30.4c-1.8-1.1-3.9-1.7-6.1-1.7
			c-2.4,0-4.7,0.7-6.7,2C20.4,19,27.6,6.9,37.7,3.8c-1,1.8-1.9,4.2-2.8,7.2C33.4,16.5,32.5,23.5,32.3,30.4z M42.6,28.7
			c-2.7,0-5.2,0.9-7.2,2.4c0.1-6.9,1-13.8,2.5-19.3c1.9-6.9,3.9-8.8,4.7-8.8s2.9,1.8,4.7,8.8c1.5,5.5,2.4,12.4,2.5,19.3
			C47.8,29.5,45.3,28.7,42.6,28.7z M59,28.7c-2.2,0-4.3,0.6-6.1,1.7c-0.2-6.9-1.1-13.8-2.6-19.3c-0.8-3-1.7-5.4-2.8-7.2
			c10,3.1,17.3,15.2,18.2,26.9C63.7,29.4,61.4,28.7,59,28.7z M75.2,28.1c-2.3,0.1-4.5,0.9-6.4,2.3c-0.5-7.1-3.2-14.3-7.4-19.9
			c-1.6-2.2-3.4-4-5.3-5.5c14.2,4.3,24.3,14.9,25.9,25.2C79.9,28.8,77.6,28.1,75.2,28.1z"/>
	</g>
</g>
</svg>
