<?xml version="1.0" encoding="utf-8"?>
<!-- Generator: Adobe Illustrator 21.0.1, SVG Export Plug-In . SVG Version: 6.00 Build 0)  -->
<svg version="1.1" id="Слой_2" xmlns="http://www.w3.org/2000/svg" xmlns:xlink="http://www.w3.org/1999/xlink" x="0px" y="0px"
	 viewBox="0 0 59 81.9" style="enable-background:new 0 0 59 81.9;" xml:space="preserve">
<style type="text/css">
	.st0{fill:url(#SVGID_1_);}
</style>
<linearGradient id="SVGID_1_" gradientUnits="userSpaceOnUse" x1="59.686" y1="78.6141" x2="0.4859" y2="19.4139">
	<stop  offset="0" style="stop-color:#623AA2"/>
	<stop  offset="1" style="stop-color:#F97794"/>
</linearGradient>
<path class="st0" d="M55.4,58.6c-1.1-5.4-6.1-6.3-6.2-6.3v0c-0.1,0,0.5,0.1-12.4-3.1v-0.4h9.4c1.9,0,3.5-1.6,3.5-3.5v-18
	c0.2-0.7,0.2-1.4,0-2v-6.6c0-0.7-0.5-1.2-1.2-1.2c-0.7,0-1.2,0.5-1.2,1.2v3.4c-0.6-0.4-1.4-0.6-2.1-0.8c-0.3-1.2-1.3-2.2-2.6-2.4
	c-1.4-0.2-2.4-1-3.1-2.4c-0.3-0.7-0.9-1.1-1.7-1.1c-0.7-0.1-1.4,0.2-1.8,0.8c-2.1,2.8-7.8,9.1-17.7,9.1c-0.8,0-1.3,0-1.4,0
	c-1.8-0.1-3.4,1.3-3.4,3.2v2.8c0,4.4,1.8,8.7,5,11.7c1.1,1,2.2,1.8,3.5,2.5v1h-9.4c-0.6,0-1.1-0.5-1.1-1.1V18.3
	c0-8.7,7.1-15.9,15.7-15.9c0,0,0.1,0,0.1,0c3.1,0,6.6,0.9,9.1,2.2c1.5,0.8,2.5,0.2,4,0.2c3.7,0,6.7,3.8,7,7.2c0,0.1,0,0.3,0,1
	c0,1.2,1.3,1.2,1.2,1.2c0.7,0,1.2-0.5,1.2-1.2c0-0.2,0-1,0-1.2c-0.5-4.8-4.5-9.4-9.4-9.4c-1.9,0-2.2,0.5-2.8,0.1
	C34.8,1,30.8,0,27.4,0C17.4-0.1,9.2,8.2,9.2,18.3v26.9c0,1.9,1.6,3.5,3.5,3.5h9.4v0.4L9.8,52.3c0,0,0,0,0,0l-0.9,0.3
	c0,0-0.1,0-0.1,0c-1.6,0.6-4.4,2.2-5.2,6C-0.1,77,0.1,76.2,0.1,76.3c-0.4,3.1,1.1,5.6,4.9,5.6h13c0.7,0,1.2-0.5,1.2-1.2
	c0-0.7-0.5-1.2-1.2-1.2h-4.5V68.1c0-0.7-0.5-1.2-1.2-1.2c-0.7,0-1.2,0.5-1.2,1.2v11.3H4.9c-1.6,0-2.5-0.5-2.5-2.2
	c0-0.8,0,0,3.5-18.2c0.5-2.7,2.5-3.8,3.6-4.2l0.8-0.2l7.1-1.8c7.9,9.3,7.4,8.8,7.9,9.2c2.6,2.6,6.4,2.4,8.8-0.5l7.4-8.7l7,1.7
	c0.2,0.1,3.7,0.7,4.5,4.5c3.5,18,3.5,17.3,3.5,18.2c0,1.6-0.9,2.2-2.5,2.2h-6V68.1c0-0.7-0.5-1.2-1.2-1.2c-0.7,0-1.2,0.5-1.2,1.2
	v11.3H23.5c-0.7,0-1.2,0.5-1.2,1.2c0,0.7,0.5,1.2,1.2,1.2h30.6c3,0,4.9-1.6,4.9-4.6C59,75.9,58.9,76.6,55.4,58.6z M45.4,23.8
	c1,0.3,1.8,1,2.1,1.8v1.4c-0.3,0.8-1.1,1.5-2.1,1.8V23.8z M45.4,31.4v-0.2c0.7-0.1,1.4-0.4,2.1-0.8v14.9c0,0.6-0.5,1.1-1.1,1.1h-9.4
	v-0.9C42,42.8,45.4,37.5,45.4,31.4z M20.3,41.2c-2.7-2.6-4.3-6.2-4.3-10c0.1-2.6-0.2-2.9,0.2-3.3c0.1-0.1,0.3-0.2,0.6-0.2
	c8.6,0.5,16-3.3,20.9-9.6c1.3,2.3,3.2,3,4.7,3.2c0.4,0,0.6,0.4,0.6,0.7c0,3.3,0,6.1,0,9.4C43,43.3,28.7,49.2,20.3,41.2z M32.3,60
	c-1.7,2-4,2-5.7,0l-2.5-3h10.7L32.3,60z M36.9,54.7H22.1l-2.1-2.4l3.5-0.9c0.5-0.1,0.9-0.6,0.9-1.2l0-3.7c3.3,1.1,6.8,1.1,10,0
	c0,3.8-0.1,3.7,0.1,4.1c0.1,0.4,0.4,0.7,0.8,0.8l3.6,0.9L36.9,54.7z"/>
</svg>
