<?xml version="1.0" encoding="utf-8"?>
<!-- Generator: Adobe Illustrator 21.0.1, SVG Export Plug-In . SVG Version: 6.00 Build 0)  -->
<svg version="1.1" id="Слой_2" xmlns="http://www.w3.org/2000/svg" xmlns:xlink="http://www.w3.org/1999/xlink" x="0px" y="0px"
	 viewBox="0 0 92.7 89.8" style="enable-background:new 0 0 92.7 89.8;" xml:space="preserve">
<style type="text/css">
	.st0{fill:url(#SVGID_1_);}
</style>
<g>
	<g>
		<linearGradient id="SVGID_1_" gradientUnits="userSpaceOnUse" x1="75.3628" y1="75.37" x2="5.9058" y2="5.9129">
			<stop  offset="0" style="stop-color:#623AA2"/>
			<stop  offset="1" style="stop-color:#F97794"/>
		</linearGradient>
		<path class="st0" d="M91.2,52.5l-4.7-4.7c-1.9-1.9-5.1-1.9-7,0L54.1,73.3l-3.5,12.9L49.7,87c-0.6,0.6-0.6,1.7,0,2.3l0,0l0,0
			c0.3,0.3,0.7,0.5,1.2,0.5c0.4,0,0.8-0.2,1.2-0.5l0.9-0.9L65.8,85l25.5-25.5C93.2,57.6,93.2,54.4,91.2,52.5z M54.4,84.6l2-7.3
			l5.3,5.3L54.4,84.6z M64.9,81.2l-7-7l17-17l7,7L64.9,81.2z M88.9,57.2l-4.7,4.7l-7-7l4.7-4.7c0.6-0.6,1.7-0.6,2.3,0l4.7,4.7
			C89.5,55.5,89.5,56.5,88.9,57.2z M44.7,19.9c-0.9,0-1.7,0.7-1.7,1.7c0,0.9,0.7,1.7,1.7,1.7h29.8c0.9,0,1.7-0.7,1.7-1.7
			c0-0.9-0.7-1.7-1.7-1.7H44.7z M76.1,44.7c0-0.9-0.7-1.7-1.7-1.7H44.7c-0.9,0-1.7,0.7-1.7,1.7s0.7,1.7,1.7,1.7h29.8
			C75.4,46.3,76.1,45.6,76.1,44.7z M34.1,12c-0.7-0.6-1.7-0.5-2.3,0.2L21.4,24.2l-6.3-4.7c-0.7-0.5-1.8-0.4-2.3,0.3
			c-0.5,0.7-0.4,1.8,0.3,2.3l7.6,5.7c0.3,0.2,0.6,0.3,1,0.3c0.5,0,0.9-0.2,1.3-0.6l11.3-13.2C34.8,13.6,34.8,12.6,34.1,12z
			 M34.1,35.2c-0.7-0.6-1.7-0.5-2.3,0.2L21.4,47.4l-6.3-4.7c-0.7-0.5-1.8-0.4-2.3,0.3c-0.5,0.7-0.4,1.8,0.3,2.3l7.6,5.7
			c0.3,0.2,0.6,0.3,1,0.3c0.5,0,0.9-0.2,1.3-0.6l11.3-13.2C34.8,36.8,34.8,35.8,34.1,35.2z M31.7,60.2L21.4,72.2l-6.3-4.7
			c-0.7-0.5-1.8-0.4-2.3,0.3c-0.5,0.7-0.4,1.8,0.3,2.3l7.6,5.7c0.3,0.2,0.6,0.3,1,0.3c0.5,0,0.9-0.2,1.3-0.6l11.3-13.2
			c0.6-0.7,0.5-1.7-0.2-2.3C33.4,59.4,32.3,59.5,31.7,60.2z M41.4,86.1H20.2c-9.3,0-16.8-7.6-16.8-16.8V20.2
			c0-9.3,7.6-16.8,16.8-16.8h49.1c9.3,0,16.8,7.6,16.8,16.8v19.6c0,0.9,0.7,1.7,1.7,1.7c0.9,0,1.7-0.7,1.7-1.7V20.2
			C89.4,9,80.3,0,69.2,0H20.2C9,0,0,9,0,20.2v49.1c0,11.1,9,20.2,20.2,20.2h21.2c0.9,0,1.7-0.7,1.7-1.7S42.3,86.1,41.4,86.1z"/>
	</g>
</g>
</svg>
