<svg 
 xmlns="http://www.w3.org/2000/svg"
 xmlns:xlink="http://www.w3.org/1999/xlink"
 width="15.875mm" height="17.639mm">
<path fill-rule="evenodd"  fill="rgb(232, 51, 96)"
 d="M24.012,5.980 C24.012,6.204 14.436,33.812 14.436,36.108 C14.436,37.228 15.500,38.068 16.340,38.068 C18.188,38.068 17.516,35.156 23.620,22.780 C26.364,17.180 32.804,4.804 38.964,4.804 C40.812,4.804 41.484,6.708 41.484,9.396 C41.484,24.740 29.836,47.364 14.156,47.364 C8.780,47.364 4.580,42.996 4.580,37.788 C4.580,32.972 6.316,31.460 9.172,29.276 C9.396,29.052 9.620,28.772 9.620,28.492 C9.620,27.932 9.228,27.484 8.164,27.484 C6.036,27.484 2.396,31.348 2.396,36.612 C2.396,44.732 9.060,49.548 15.836,49.548 C31.684,49.548 45.012,26.980 45.012,11.132 C45.012,5.532 42.268,3.124 37.844,3.124 C33.532,3.124 27.372,10.572 25.412,14.436 C25.356,14.604 25.244,14.772 25.020,14.772 C24.908,14.772 24.852,14.660 24.852,14.492 C24.852,12.924 28.268,5.028 28.268,3.684 C28.268,2.564 27.316,1.556 26.700,1.556 C24.012,1.556 16.900,10.180 9.788,10.180 C6.876,10.180 3.572,9.676 3.572,6.260 C3.572,4.020 4.636,3.404 4.636,2.228 C4.636,1.276 4.020,0.548 3.124,0.548 C1.164,0.548 0.436,3.068 0.436,5.028 C0.436,10.684 5.532,11.972 9.452,11.972 C15.164,11.972 20.540,7.156 23.900,5.364 C23.956,5.644 24.012,5.812 24.012,5.980 Z"/>
</svg>