<svg xmlns="http://www.w3.org/2000/svg" viewBox="0 0 90.47 92.11"><defs><style>.a{fill:#ffcc9a;}</style></defs><path class="a" d="M46.6,44.86a6.11,6.11,0,0,1,1.68.38.87.87,0,0,1,.37.22.91.91,0,0,1,.16.54,36.64,36.64,0,0,1-.14,5.29,4,4,0,0,1-1.05,2.94.69.69,0,0,1-.36.17.82.82,0,0,1-.48-.16A19.84,19.84,0,0,1,43.68,52c-1.15-1-2.25-2.42-2-3.95a4.79,4.79,0,0,1,.46-1.37,20.39,20.39,0,0,1,1.66-2.9,1.09,1.09,0,0,1,.64-.53,1.08,1.08,0,0,1,.73.23,15.35,15.35,0,0,1,3.37,2.85"/><path class="a" d="M52.3,25.3a1.79,1.79,0,0,1,.5,1.29,2.36,2.36,0,0,1-.71,1.29,26.91,26.91,0,0,1-2.23,2.17,3.22,3.22,0,0,1-1.69.95c-2.15.22-3.43-3.54-2.84-5.22C46.29,23,50.6,23.36,52.3,25.3Z"/><path class="a" d="M59.58,22.61a.7.7,0,0,0-.35-.25c-1.76-.37-4.05,2.58-1.75,3.58a2.64,2.64,0,0,0,2.48-.37C61,24.79,60.39,23.52,59.58,22.61Z"/><path class="a" d="M54.6,34a5.28,5.28,0,0,1,1.49-1.44,4.49,4.49,0,0,1,3-.44,13.36,13.36,0,0,1,3,1,4.57,4.57,0,0,1-1.66,3.56,13.48,13.48,0,0,1-3.49,2.05,13.62,13.62,0,0,0-3.49,2c-1.58,1.42-1.39-1-1.11-2A14.85,14.85,0,0,1,54.6,34Z"/><path class="a" d="M72,22.18a5.73,5.73,0,0,1,4.48,3.31,2.48,2.48,0,0,1,.26,1.12,2.91,2.91,0,0,1-.81,1.62,16.1,16.1,0,0,1-6.11,4.5.46.46,0,0,1-.65-.14c-1.65-1.74-3.22-4.88-2.71-7.37C66.93,23,70,22,72,22.18Z"/><path class="a" d="M59,17.38c.09-.65-.34-.51-.19-1.15a1.76,1.76,0,0,0-.43-1.82.71.71,0,0,0-.46-.16,1,1,0,0,0-.57.29l-2,1.59c-.49.39-1,.88-1,1.51a1.38,1.38,0,0,0,.64,1,4.07,4.07,0,0,0,1.16.48l1.23.37a.45.45,0,0,0,.29,0c.09,0,.14-.14.2-.22.48-.65.62,1.83,1.06-1.52"/><path class="a" d="M56.34,44.11a1.31,1.31,0,0,1,.49.41.94.94,0,0,1,.11.62A1.78,1.78,0,0,1,56,46.39a4.24,4.24,0,0,1-1.54.46c-1.75.25-2.82-.9-1.92-2.59C53.38,42.75,55.15,43.43,56.34,44.11Z"/><path class="a" d="M61.51,39.08a2.09,2.09,0,0,0-.63.87,5,5,0,0,0,.06,1.65,12.69,12.69,0,0,1-.33,2,1.74,1.74,0,0,0,.68,1.81,2.07,2.07,0,0,0,1.89-.28,30.71,30.71,0,0,0,5-3.71A7.43,7.43,0,0,0,70,39.57a2.24,2.24,0,0,0,.34-1.39,2.29,2.29,0,0,0-2.42-1.69A11.63,11.63,0,0,0,61.51,39.08Z"/><path class="a" d="M61.56,49a7.53,7.53,0,0,1,2.56-.47,3,3,0,0,1,2.3,1.06A3,3,0,0,1,66.82,52a7,7,0,0,1-1.16,2.3,22.68,22.68,0,0,1-5.8,5.73,2,2,0,0,1-1,.42,1.68,1.68,0,0,1-1-.38,4.18,4.18,0,0,1-1.59-4.29c.21-.85.73-1.59,1-2.43.15-.56,0-1.18.2-1.71C58,50.17,60.2,49.4,61.56,49Z"/><path class="a" d="M90.06,33a.89.89,0,0,0,.4-.46.88.88,0,0,0,0-.45,11.35,11.35,0,0,0-1.21-2.79,5.5,5.5,0,0,0-2.08-2.14,5.25,5.25,0,0,0-3.63-.23,12.37,12.37,0,0,0-5.85,3.63,2,2,0,0,0-.54.82,3.11,3.11,0,0,0,0,.85c0,1.08-.59,2.73.77,3.2a14.9,14.9,0,0,0,3.89.17A14.32,14.32,0,0,0,90.06,33Z"/><path class="a" d="M64.47,19c-.05-1.21-.94-2.2-1.39-3.32a1.54,1.54,0,0,1,.21-1.8,1.63,1.63,0,0,1,1.06-.22,9.45,9.45,0,0,1,2.17.35A3.8,3.8,0,0,1,69,15.69a2.66,2.66,0,0,1-1.21,3.45c-.44.22-.94.32-1.4.51a4.13,4.13,0,0,0-1.31.84"/><path class="a" d="M76.23,46.22a12.42,12.42,0,0,1,1.51-2.56,1.32,1.32,0,0,1,.43-.41,1.15,1.15,0,0,1,.71-.05c1.5.26,2.65,1.53,3.54,2.67,1.14,1.46.71,2.57-.33,4s-3.61,3.5-5.27,1.51A5.06,5.06,0,0,1,76.23,46.22Z"/><path class="a" d="M32.38,7.09A6.11,6.11,0,0,1,30.93,8a.87.87,0,0,1-.42.1A.91.91,0,0,1,30,7.85,36.64,36.64,0,0,1,26.38,4,4,4,0,0,1,25,1.19a.69.69,0,0,1,.13-.38.82.82,0,0,1,.45-.22A19.84,19.84,0,0,1,29.43,0c1.54-.08,3.3.12,4.24,1.35a4.79,4.79,0,0,1,.64,1.29,20.39,20.39,0,0,1,.88,3.23,1.09,1.09,0,0,1-.07.83,1.08,1.08,0,0,1-.68.35,15.35,15.35,0,0,1-4.4.36"/><path class="a" d="M38.51,21.91a1.79,1.79,0,0,1-1.27-.56,2.36,2.36,0,0,1-.41-1.42,26.91,26.91,0,0,1,0-3.11A3.22,3.22,0,0,1,37.41,15c1.36-1.68,4.93.08,5.7,1.68C44.37,19.28,41.08,22.08,38.51,21.91Z"/><path class="a" d="M25,33.33a.7.7,0,0,0,.42-.08c1.51-1,1-4.69-1.29-3.77a2.64,2.64,0,0,0-1.49,2C22.43,32.82,23.79,33.26,25,33.33Z"/><path class="a" d="M27.76,20.37a5.28,5.28,0,0,1-.68-2A4.49,4.49,0,0,1,28,15.48a13.36,13.36,0,0,1,2.16-2.25,4.57,4.57,0,0,1,2.52,3,13.48,13.48,0,0,1,.38,4,13.62,13.62,0,0,0,.37,4c.61,2-1.54.82-2.3.15A14.85,14.85,0,0,1,27.76,20.37Z"/><path class="a" d="M26.68,45.9a5.73,5.73,0,0,1-5.51.83,2.48,2.48,0,0,1-1-.61,2.91,2.91,0,0,1-.57-1.72,16.1,16.1,0,0,1,1.13-7.5.46.46,0,0,1,.56-.36c2.4.06,5.73,1.18,7.13,3.3C29.68,41.72,28.24,44.67,26.68,45.9Z"/><path class="a" d="M39.36,32.26c.4.52.6.12.95.68a1.76,1.76,0,0,0,1.59,1,.71.71,0,0,0,.44-.21,1,1,0,0,0,.2-.61l.28-2.53a2.07,2.07,0,0,0-.36-1.78,1.38,1.38,0,0,0-1.18-.28,4.07,4.07,0,0,0-1.16.48L39,29.6a.45.45,0,0,0-.22.19.54.54,0,0,0,0,.3c.12.8-1.73-.86.33,1.83"/><path class="a" d="M22.35,11.47a1.31,1.31,0,0,1-.64.06.94.94,0,0,1-.52-.36A1.78,1.78,0,0,1,21,9.64a4.24,4.24,0,0,1,.76-1.41c1.06-1.41,2.63-1.36,3.19.47C25.41,10.34,23.67,11.11,22.35,11.47Z"/><path class="a" d="M22.25,18.68a2.09,2.09,0,0,0-.17-1.07c-.26-.49-.8-.75-1.2-1.12a12.69,12.69,0,0,1-1.19-1.67,1.74,1.74,0,0,0-1.75-.8c-.64.19-.95.9-1.13,1.54a30.71,30.71,0,0,0-.95,6.19,7.43,7.43,0,0,0,.08,2.56,2.24,2.24,0,0,0,.74,1.22A2.29,2.29,0,0,0,19.58,25,11.63,11.63,0,0,0,22.25,18.68Z"/><path class="a" d="M15.23,11.73a7.53,7.53,0,0,1-1.47,2.14,3,3,0,0,1-2.37.87,3,3,0,0,1-2-1.46,7,7,0,0,1-.81-2.45,22.68,22.68,0,0,1,0-8.15A2,2,0,0,1,9,1.7a1.68,1.68,0,0,1,1-.47,4.18,4.18,0,0,1,4.16,1.91c.46.75.61,1.64,1,2.4.29.5.82.84,1.07,1.35C16.92,8.33,15.88,10.46,15.23,11.73Z"/><path class="a" d="M6.37,43.17a.89.89,0,0,0,0,.61.88.88,0,0,0,.35.29A11.35,11.35,0,0,0,9.6,45.19a5.5,5.5,0,0,0,3,0,5.25,5.25,0,0,0,2.73-2.41,12.37,12.37,0,0,0,1.57-6.71,2,2,0,0,0-.2-1,3.11,3.11,0,0,0-.58-.62c-.78-.75-1.51-2.35-2.81-1.72a14.9,14.9,0,0,0-2.87,2.63A14.32,14.32,0,0,0,6.37,43.17Z"/><path class="a" d="M34.35,35c.89.82,2.22.89,3.33,1.36.6.25,1.22.78,1.13,1.42a1.63,1.63,0,0,1-.59.9,9.45,9.45,0,0,1-1.78,1.29,3.8,3.8,0,0,1-2.9.55,2.66,2.66,0,0,1-1.58-3.3c.16-.47.43-.89.63-1.35a4.13,4.13,0,0,0,.33-1.52"/><path class="a" d="M6.79,24a12.42,12.42,0,0,1,.74,2.88,1.32,1.32,0,0,1,0,.59,1.15,1.15,0,0,1-.46.54c-1.25.88-3,.79-4.4.61-1.84-.23-2.32-1.31-2.58-3-.28-1.9.08-5,2.66-4.8A5.06,5.06,0,0,1,6.79,24Z"/><path class="a" d="M44.18,84.06a6.11,6.11,0,0,1-.53-1.64.87.87,0,0,1,0-.43.91.91,0,0,1,.38-.41A36.64,36.64,0,0,1,48.66,79a4,4,0,0,1,3.06-.58.69.69,0,0,1,.33.22.82.82,0,0,1,.1.49A19.84,19.84,0,0,1,51.77,83c-.31,1.51-.94,3.16-2.36,3.76A4.79,4.79,0,0,1,48,87a20.39,20.39,0,0,1-3.34,0,1.09,1.09,0,0,1-.78-.28,1.08,1.08,0,0,1-.17-.74,15.35,15.35,0,0,1,.75-4.35"/><path class="a" d="M28.3,86.29a1.79,1.79,0,0,1,.86-1.09,2.36,2.36,0,0,1,1.47,0,26.91,26.91,0,0,1,3,.82,3.22,3.22,0,0,1,1.68,1c1.28,1.74-1.31,4.75-3,5.1C29.39,92.63,27.49,88.74,28.3,86.29Z"/><path class="a" d="M22.29,81.39a.7.7,0,0,0,0,.43c.57,1.7,4.28,2.18,4-.31a2.64,2.64,0,0,0-1.58-1.95C23.43,79,22.66,80.23,22.29,81.39Z"/><path class="a" d="M34.6,79.9a5.28,5.28,0,0,1-2-.55A4.49,4.49,0,0,1,30.69,77,13.36,13.36,0,0,1,30,73.91,4.57,4.57,0,0,1,34,73.53a13.48,13.48,0,0,1,3.54,2,13.62,13.62,0,0,0,3.54,2c2,.64-.19,1.73-1.17,2A14.85,14.85,0,0,1,34.6,79.9Z"/><path class="a" d="M15.6,70.89a5.73,5.73,0,0,1,.57-5.54,2.48,2.48,0,0,1,.84-.79,2.91,2.91,0,0,1,1.81-.12,16.1,16.1,0,0,1,7,3A.46.46,0,0,1,26,68c-.66,2.31-2.57,5.25-5,6.08C18.9,74.84,16.4,72.71,15.6,70.89Z"/><path class="a" d="M18.07,84.53c-.61.26-.26.55-.89.75a1.76,1.76,0,0,0-1.35,1.3.71.71,0,0,0,.09.48,1,1,0,0,0,.54.35l2.38.9a2.07,2.07,0,0,0,1.82.1,1.38,1.38,0,0,0,.56-1.08A4.07,4.07,0,0,0,21,86.07l-.31-1.25a.45.45,0,0,0-.13-.26.54.54,0,0,0-.29-.06c-.81-.08,1.26-1.46-1.85-.14"/><path class="a" d="M42.44,73.25a1.31,1.31,0,0,1,.1-.63.94.94,0,0,1,.47-.41,1.78,1.78,0,0,1,1.55.15,4.24,4.24,0,0,1,1.17,1.09c1.1,1.38.66,2.89-1.25,3C42.78,76.49,42.47,74.62,42.44,73.25Z"/><path class="a" d="M35.49,71.36a2.09,2.09,0,0,0,1.07.1A5,5,0,0,0,38,70.57a12.69,12.69,0,0,1,1.91-.74,1.74,1.74,0,0,0,1.21-1.5c0-.66-.63-1.14-1.2-1.48a30.71,30.71,0,0,0-5.76-2.46,7.43,7.43,0,0,0-2.5-.56,2.24,2.24,0,0,0-1.36.41A2.29,2.29,0,0,0,30,67.19,11.63,11.63,0,0,0,35.49,71.36Z"/><path class="a" d="M44,66.29a7.53,7.53,0,0,1-1.71-2A3,3,0,0,1,42,61.81a3,3,0,0,1,1.93-1.61A7,7,0,0,1,46.52,60a22.68,22.68,0,0,1,7.88,2.08,2,2,0,0,1,.85.61,1.68,1.68,0,0,1,.21,1.1,4.18,4.18,0,0,1-2.89,3.55c-.84.25-1.74.18-2.58.41-.56.15-1,.59-1.58.69C46.85,68.78,45,67.24,44,66.29Z"/><path class="a" d="M15.74,49.86a.89.89,0,0,0-.6-.11.88.88,0,0,0-.36.26A11.35,11.35,0,0,0,13,52.48a5.5,5.5,0,0,0-.79,2.88,5.25,5.25,0,0,0,1.65,3.24A12.37,12.37,0,0,0,20,61.8a2,2,0,0,0,1,0,3.11,3.11,0,0,0,.74-.41c.92-.57,2.65-.88,2.37-2.29a14.9,14.9,0,0,0-1.83-3.44A14.32,14.32,0,0,0,15.74,49.86Z"/><path class="a" d="M16.7,79c-1,.66-1.42,1.92-2.15,2.88-.4.52-1.06,1-1.66.74a1.63,1.63,0,0,1-.73-.8,9.45,9.45,0,0,1-.8-2,3.8,3.8,0,0,1,.2-2.95,2.66,2.66,0,0,1,3.59-.71c.42.27.75.64,1.15.94a4.13,4.13,0,0,0,1.39.7"/><path class="a" d="M34.16,55a12.42,12.42,0,0,1-3,0,1.32,1.32,0,0,1-.57-.16,1.15,1.15,0,0,1-.41-.59c-.54-1.43,0-3.06.5-4.41.68-1.72,1.85-1.92,3.58-1.74,1.91.2,4.85,1.33,4,3.77A5.06,5.06,0,0,1,34.16,55Z"/></svg>
