<svg id="Слой_2" xmlns="http://www.w3.org/2000/svg" viewBox="0 0 92.7 89.8">
    <style>
        .st0{fill:url(#SVGID_1_)}
    </style>
    <linearGradient id="SVGID_1_" gradientUnits="userSpaceOnUse" x1="75.363" y1="75.37" x2="5.906" y2="5.913">
        <stop offset="0" stop-color="#623aa2"/>
        <stop offset="1" stop-color="#f97794"/>
    </linearGradient>
    <path class="st0" d="M91.2 52.5l-4.7-4.7c-1.9-1.9-5.1-1.9-7 0L54.1 73.3l-3.5 12.9-.9.8c-.6.6-.6 1.7 0 2.3.3.3.7.5 1.2.5.4 0 .8-.2 1.2-.5l.9-.9L65.8 85l25.5-25.5c1.9-1.9 1.9-5.1-.1-7zM54.4 84.6l2-7.3 5.3 5.3-7.3 2zm10.5-3.4l-7-7 17-17 7 7-17 17zm24-24l-4.7 4.7-7-7 4.7-4.7c.6-.6 1.7-.6 2.3 0l4.7 4.7c.6.6.6 1.6 0 2.3zM44.7 19.9c-.9 0-1.7.7-1.7 1.7 0 .9.7 1.7 1.7 1.7h29.8c.9 0 1.7-.7 1.7-1.7 0-.9-.7-1.7-1.7-1.7H44.7zm31.4 24.8c0-.9-.7-1.7-1.7-1.7H44.7c-.9 0-1.7.7-1.7 1.7s.7 1.7 1.7 1.7h29.8c.9-.1 1.6-.8 1.6-1.7zM34.1 12c-.7-.6-1.7-.5-2.3.2l-10.4 12-6.3-4.7c-.7-.5-1.8-.4-2.3.3-.5.7-.4 1.8.3 2.3l7.6 5.7c.3.2.6.3 1 .3.5 0 .9-.2 1.3-.6l11.3-13.2c.5-.7.5-1.7-.2-2.3zm0 23.2c-.7-.6-1.7-.5-2.3.2l-10.4 12-6.3-4.7c-.7-.5-1.8-.4-2.3.3-.5.7-.4 1.8.3 2.3l7.6 5.7c.3.2.6.3 1 .3.5 0 .9-.2 1.3-.6l11.3-13.2c.5-.7.5-1.7-.2-2.3zm-2.4 25l-10.3 12-6.3-4.7c-.7-.5-1.8-.4-2.3.3-.5.7-.4 1.8.3 2.3l7.6 5.7c.3.2.6.3 1 .3.5 0 .9-.2 1.3-.6l11.3-13.2c.6-.7.5-1.7-.2-2.3-.7-.6-1.8-.5-2.4.2zm9.7 25.9H20.2c-9.3 0-16.8-7.6-16.8-16.8V20.2c0-9.3 7.6-16.8 16.8-16.8h49.1c9.3 0 16.8 7.6 16.8 16.8v19.6c0 .9.7 1.7 1.7 1.7.9 0 1.7-.7 1.7-1.7V20.2C89.4 9 80.3 0 69.2 0h-49C9 0 0 9 0 20.2v49.1c0 11.1 9 20.2 20.2 20.2h21.2c.9 0 1.7-.7 1.7-1.7s-.8-1.7-1.7-1.7z"/>
</svg>
