<svg id="Слой_3" xmlns="http://www.w3.org/2000/svg" viewBox="0 0 78.7 81.5">
    <style>
        .st0{fill:url(#SVGID_1_)}
    </style>
    <linearGradient id="SVGID_1_" gradientUnits="userSpaceOnUse" x1="76.396" y1="79.798" x2="1.468" y2="4.871">
        <stop offset="0" stop-color="#623aa2"/>
        <stop offset="1" stop-color="#f97794"/>
    </linearGradient>
    <path class="st0" d="M61 8.2c.7 0 1.4-.6 1.4-1.4 0-.8-.6-1.4-1.4-1.4-.7 0-1.4.6-1.4 1.4.1.7.7 1.4 1.4 1.4zM43.4 34c.7 0 1.4-.6 1.4-1.4 0-.8-.6-1.4-1.4-1.4-.7 0-1.4.6-1.4 1.4 0 .8.7 1.4 1.4 1.4zM76 44.8v-19c0-6-4.9-10.9-10.9-10.9s-10.9 4.9-10.9 10.9v19c0 6 4.9 10.9 10.9 10.9S76 50.8 76 44.8zm-19-19c0-4.5 3.6-8.2 8.1-8.2s8.1 3.7 8.1 8.2V34H57v-8.2zM65.1 53c-4.5 0-8.1-3.7-8.1-8.2v-8.2h16.3v8.2c-.1 4.5-3.7 8.2-8.2 8.2zm-36.3-3.5L15.4 63c-2 2-3.2 4.8-3.2 7.7 0 2.9 1.1 5.6 3.2 7.7 2 2 4.8 3.2 7.7 3.2 2.9 0 5.6-1.1 7.7-3.2L44.2 65c4.2-4.2 4.2-11.1 0-15.4-4.3-4.3-11.2-4.3-15.4-.1zm0 26.9c-1.5 1.5-3.6 2.4-5.8 2.4-2.2 0-4.2-.8-5.8-2.4-1.5-1.5-2.4-3.6-2.4-5.8 0-2.2.8-4.2 2.4-5.8L23 59l11.5 11.5-5.7 5.9zM42.2 63l-5.8 5.8L25 57.2l5.8-5.8c1.6-1.6 3.7-2.4 5.8-2.4 2.1 0 4.2.8 5.8 2.4 3 3.2 3 8.4-.2 11.6zM16.6 32c2.1 2.1 4.9 3.2 7.7 3.2s5.6-1.1 7.7-3.2c4.2-4.2 4.2-11.1 0-15.4L18.5 3.2c-2-2-4.8-3.2-7.7-3.2-2.9 0-5.6 1.1-7.6 3.2C1.2 5.2 0 8 0 10.9c0 2.9 1.1 5.6 3.2 7.7L16.6 32zM30 18.5c3.2 3.2 3.2 8.3 0 11.5-3.2 3.2-8.3 3.2-11.5 0l-5.8-5.8 11.5-11.5 5.8 5.8zM5.1 5.1c1.5-1.5 3.6-2.4 5.8-2.4 2.2 0 4.2.8 5.8 2.4l5.8 5.8-11.7 11.5L5 16.6c-1.5-1.5-2.4-3.6-2.4-5.8.1-2.1 1-4.2 2.5-5.7zm10.1 42.4c0-.7-.6-1.4-1.4-1.4H9.7V42c0-.7-.6-1.4-1.4-1.4-.7 0-1.4.6-1.4 1.4v4.1h-4c-.7 0-1.4.6-1.4 1.4 0 .7.6 1.4 1.4 1.4H7V53c0 .7.6 1.4 1.4 1.4.7 0 1.4-.6 1.4-1.4v-4.1h4.1c.6 0 1.3-.6 1.3-1.4zm60.2 25.6l2.9-2.9c.5-.5.5-1.4 0-1.9s-1.4-.5-1.9 0l-2.9 2.9-2.9-2.9c-.5-.5-1.4-.5-1.9 0s-.5 1.4 0 1.9l2.9 2.9-2.9 2.9c-.5.5-.5 1.4 0 1.9.3.3.6.4 1 .4.3 0 .7-.1 1-.4l2.9-2.9 2.9 2.9c.3.3.6.4 1 .4.3 0 .7-.1 1-.4.5-.5.5-1.4 0-1.9l-3.1-2.9z"/>
</svg>
