<svg id="Слой_2" xmlns="http://www.w3.org/2000/svg" viewBox="0 0 59 81.9">
    <style>
        .st0{fill:url(#SVGID_1_)}
    </style>
    <linearGradient id="SVGID_1_" gradientUnits="userSpaceOnUse" x1="59.686" y1="78.614" x2=".486" y2="19.414">
        <stop offset="0" stop-color="#623aa2"/>
        <stop offset="1" stop-color="#f97794"/>
    </linearGradient>
    <path class="st0" d="M55.4 58.6c-1.1-5.4-6.1-6.3-6.2-6.3-.1 0 .5.1-12.4-3.1v-.4h9.4c1.9 0 3.5-1.6 3.5-3.5v-18c.2-.7.2-1.4 0-2v-6.6c0-.7-.5-1.2-1.2-1.2s-1.2.5-1.2 1.2v3.4c-.6-.4-1.4-.6-2.1-.8-.3-1.2-1.3-2.2-2.6-2.4-1.4-.2-2.4-1-3.1-2.4-.3-.7-.9-1.1-1.7-1.1-.7-.1-1.4.2-1.8.8-2.1 2.8-7.8 9.1-17.7 9.1h-1.4c-1.8-.1-3.4 1.3-3.4 3.2v2.8c0 4.4 1.8 8.7 5 11.7 1.1 1 2.2 1.8 3.5 2.5v1h-9.4c-.6 0-1.1-.5-1.1-1.1V18.3c0-8.7 7.1-15.9 15.7-15.9h.1c3.1 0 6.6.9 9.1 2.2 1.5.8 2.5.2 4 .2 3.7 0 6.7 3.8 7 7.2v1c0 1.2 1.3 1.2 1.2 1.2.7 0 1.2-.5 1.2-1.2v-1.2c-.5-4.8-4.5-9.4-9.4-9.4-1.9 0-2.2.5-2.8.1C34.8 1 30.8 0 27.4 0 17.4-.1 9.2 8.2 9.2 18.3v26.9c0 1.9 1.6 3.5 3.5 3.5h9.4v.4L9.8 52.3l-.9.3h-.1c-1.6.6-4.4 2.2-5.2 6C-.1 77 .1 76.2.1 76.3c-.4 3.1 1.1 5.6 4.9 5.6h13c.7 0 1.2-.5 1.2-1.2s-.5-1.2-1.2-1.2h-4.5V68.1c0-.7-.5-1.2-1.2-1.2s-1.2.5-1.2 1.2v11.3H4.9c-1.6 0-2.5-.5-2.5-2.2 0-.8 0 0 3.5-18.2.5-2.7 2.5-3.8 3.6-4.2l.8-.2 7.1-1.8c7.9 9.3 7.4 8.8 7.9 9.2 2.6 2.6 6.4 2.4 8.8-.5l7.4-8.7 7 1.7c.2.1 3.7.7 4.5 4.5 3.5 18 3.5 17.3 3.5 18.2 0 1.6-.9 2.2-2.5 2.2h-6V68.1c0-.7-.5-1.2-1.2-1.2s-1.2.5-1.2 1.2v11.3H23.5c-.7 0-1.2.5-1.2 1.2s.5 1.2 1.2 1.2h30.6c3 0 4.9-1.6 4.9-4.6 0-1.3-.1-.6-3.6-18.6zm-10-34.8c1 .3 1.8 1 2.1 1.8V27c-.3.8-1.1 1.5-2.1 1.8v-5zm0 7.6v-.2c.7-.1 1.4-.4 2.1-.8v14.9c0 .6-.5 1.1-1.1 1.1H37v-.9c5-2.7 8.4-8 8.4-14.1zm-25.1 9.8c-2.7-2.6-4.3-6.2-4.3-10 .1-2.6-.2-2.9.2-3.3.1-.1.3-.2.6-.2 8.6.5 16-3.3 20.9-9.6 1.3 2.3 3.2 3 4.7 3.2.4 0 .6.4.6.7v9.4c0 11.9-14.3 17.8-22.7 9.8zm12 18.8c-1.7 2-4 2-5.7 0l-2.5-3h10.7l-2.5 3zm4.6-5.3H22.1L20 52.3l3.5-.9c.5-.1.9-.6.9-1.2v-3.7c3.3 1.1 6.8 1.1 10 0 0 3.8-.1 3.7.1 4.1.1.4.4.7.8.8l3.6.9-2 2.4z"/>
</svg>
