<svg id="Слой_1" xmlns="http://www.w3.org/2000/svg" viewBox="0 0 85.2 102.4">
    <style>
        .st0{fill:url(#SVGID_1_)}
    </style>
    <linearGradient id="SVGID_1_" gradientUnits="userSpaceOnUse" x1="83.203" y1="102.098" x2="1.792" y2="20.687">
        <stop offset="0" stop-color="#623aa2"/>
        <stop offset="1" stop-color="#f97794"/>
    </linearGradient>
    <path class="st0" d="M75.1 77.2H32.9L14.7 63c-4.2-3.3-10.3-2.5-13.6 1.7l-.9 1.2 18.6 14.5-3.3 5h-14v3.1h6.6L.2 100.8l2.6 1.6 8.9-14H73l8.9 14 2.6-1.6-7.9-12.3h8.1V87c.1-5.5-4.3-9.8-9.6-9.8zm-56 8.1l2-3.1 4 3.1h-6zm11 0L4.6 65.4c2.3-1.9 5.8-2 8.2 0l19 14.8h43.3c3.1 0 5.8 2.2 6.5 5.1H30.1zm42.5-75.1C64.3 3.6 53.7 0 42.6 0c-11.1 0-21.7 3.6-30 10.2C4.6 16.6 0 25 0 33.1v1.5h3l.5-.5c1.8-2 4.1-3 6.4-2.9 2.4.1 4.6 1.2 6.3 3.3l1.7 2.1 1.3-1.6c1.7-2.1 4.2-3.3 6.9-3.3s5.2 1.2 6.9 3.3l1.3 1.6 1.3-1.6c1.4-1.8 3.4-2.9 5.6-3.2v42.8h3.1V31.9c2 .4 3.9 1.5 5.2 3.2l1.3 1.6 1.3-1.6c1.7-2.1 4.2-3.3 6.9-3.3s5.2 1.2 6.9 3.3l1.3 1.6 1.7-2.1c1.7-2.1 3.9-3.3 6.3-3.3 2.4-.1 4.7 1 6.4 2.9l.5.5h3v-1.5c.1-8.2-4.5-16.6-12.5-23zM16.4 30.4c-1.9-1.4-4.1-2.3-6.4-2.3-2.4-.1-4.7.7-6.7 2.1C4.9 19.9 14.9 9.3 29.2 5c-1.9 1.5-3.7 3.4-5.3 5.5-4.3 5.7-6.9 12.8-7.5 19.9zm15.9 0c-1.8-1.1-3.9-1.7-6.1-1.7-2.4 0-4.7.7-6.7 2C20.4 19 27.6 6.9 37.7 3.8c-1 1.8-1.9 4.2-2.8 7.2-1.5 5.5-2.4 12.5-2.6 19.4zm10.3-1.7c-2.7 0-5.2.9-7.2 2.4.1-6.9 1-13.8 2.5-19.3C39.8 4.9 41.8 3 42.6 3s2.9 1.8 4.7 8.8c1.5 5.5 2.4 12.4 2.5 19.3-2-1.6-4.5-2.4-7.2-2.4zm16.4 0c-2.2 0-4.3.6-6.1 1.7-.2-6.9-1.1-13.8-2.6-19.3-.8-3-1.7-5.4-2.8-7.2 10 3.1 17.3 15.2 18.2 26.9-2-1.4-4.3-2.1-6.7-2.1zm16.2-.6c-2.3.1-4.5.9-6.4 2.3-.5-7.1-3.2-14.3-7.4-19.9-1.6-2.2-3.4-4-5.3-5.5C70.3 9.3 80.4 19.9 82 30.2c-2.1-1.4-4.4-2.1-6.8-2.1z"/>
</svg>
