<svg xmlns="http://www.w3.org/2000/svg" width="60" height="66.667">
    <path fill-rule="evenodd" fill="#E83360" d="M24.012 5.98c0 .224-9.576 27.832-9.576 30.128 0 1.12 1.064 1.96 1.904 1.96 1.848 0 1.176-2.912 7.28-15.288 2.744-5.6 9.184-17.976 15.344-17.976 1.848 0 2.52 1.904 2.52 4.592 0 15.344-11.648 37.968-27.328 37.968-5.376 0-9.576-4.368-9.576-9.576 0-4.816 1.736-6.328 4.592-8.512.224-.224.448-.504.448-.784 0-.56-.392-1.008-1.456-1.008-2.128 0-5.768 3.864-5.768 9.128 0 8.12 6.664 12.936 13.44 12.936 15.848 0 29.176-22.568 29.176-38.416 0-5.6-2.744-8.008-7.168-8.008-4.312 0-10.472 7.448-12.432 11.312-.056.168-.168.336-.392.336-.112 0-.168-.112-.168-.28 0-1.568 3.416-9.464 3.416-10.808 0-1.12-.952-2.128-1.568-2.128-2.688 0-9.8 8.624-16.912 8.624-2.912 0-6.216-.504-6.216-3.92 0-2.24 1.064-2.856 1.064-4.032 0-.952-.616-1.68-1.512-1.68-1.96 0-2.688 2.52-2.688 4.48 0 5.656 5.096 6.944 9.016 6.944 5.712 0 11.088-4.816 14.448-6.608.056.28.112.448.112.616z"/>
</svg>
