<svg id="dearia" xmlns="http://www.w3.org/2000/svg" viewBox="0 0 143.9 49">
    <style>
        .st0{fill:#fff}
    </style>
    <path class="st0" d="M37.4 2.6C33.1 2.6 26.9 10 25 13.9c-.1.2-.2.3-.4.3-.1 0-.2-.1-.2-.3 0-1.6 3.4-9.5 3.4-10.8 0-1.1-1-2.1-1.6-2.1-2.7 0-9.8 8.6-16.9 8.6-2.9 0-6.2-.5-6.2-3.9 0-2.2 1.1-2.9 1.1-4C4.2.7 3.6 0 2.7 0 .7 0 0 2.5 0 4.5c0 5.7 5.1 6.9 9 6.9 5.7 0 11.1-4.8 14.4-6.6.1.3.1.4.1.6 0 .2-9.6 27.8-9.6 30.1 0 1.1 1.1 2 1.9 2 1.8 0 1.2-2.9 7.3-15.3 2.7-5.6 9.2-18 15.3-18 1.8 0 2.5 1.9 2.5 4.6 0 15.3-11.6 38-27.3 38-5.4 0-9.6-4.4-9.6-9.6 0-4.8 1.7-6.3 4.6-8.5.2-.2.4-.5.4-.8 0-.6-.4-1-1.5-1-2.1 0-5.8 3.9-5.8 9.1.3 8.2 6.9 13 13.7 13 15.8 0 29.2-22.6 29.2-38.4 0-5.6-2.8-8-7.2-8zm11.2 30.9c.3.1 2 0 2.2 0 .8-.1 1.2-.4 1.2-.8s-.3-.7-1.2-.7c-.6 0-.9 0-1.5.1-1.3 0-1.6-.4-1.2-1.7 2.1-6.2 4.1-10.8 5.3-13.4.4-1 .6-1.5.9-1.7.3-.2 4-.4 4.3-.5.2 0 .4-.2.4-.4.1-.2-.1-.4-.2-.6-.2-.2-.5-.3-.7-.3-2 0-4 0-5.9.2-.8.1-1.5.5-1.8 1.2-3.6 7.1-5 11.1-7.1 18.7-.6 2.1-.8 6.4 1.2 7.7 1.2.8 2.5.8 4 .8.2 0 .4-.4.5-.5.1-.6-1-.8-1.5-1-.9-.2-1.1-.8-1.2-1.6-.1-.3-.1-.7-.1-1.1.2-1.5.2-1.8.7-3.2.3-.7.8-1.2 1.7-1.2zm48.7-4.7c3.3-8.5 9.1-21.2 9.1-21.2.6-1.5.8-2.9.4-4.5-.3-1.2-2.5-2.9-4-2.9-1.3 0-3.8 2-7.3 1.8-4.3 0-8.4-.9-13.6-.9C74.1 1.1 70 5.2 70 9.8c0 3.9 2.5 6 6 6 1.7 0 4.3-1.7 5-3.4.8-1.9.4-2.4-1.2-3.2-.6-.2-1.2-.2-1.3.4-.6 1.9-1.7 3.3-3.3 3.3-2 0-3.6-.9-3.6-3.8 0-3.6 3.4-6.4 10.5-6.4 5.5 0 10.3 1.8 15.9 1.1-1.1 1.6-18.5 23-20.2 24.9-.7.8-1 .9-2 .3-2.1-1.3-.1-3.1-2.1-5.1-.3-.3-.9-.3-1.2.2-1.5 2.3.7 5.3 2.7 6.2 1.2.6.7 1-.3 2.4-4.2 6-11.2 13.7-16.5 13.7-2.5 0-5.6-2.1-5.6-5.5 0-3.5 2.1-6.2 5.7-7.3.2-.1.3-.1.4-.2.6-.3.6-.8.1-1.2-1.1-1.1-3.1-.7-4.5-.2-1.9.8-4.2 3.3-4.2 8.1 0 4.4 3 8.8 8.4 8.8 6.8 0 17.5-14 19.5-16.6.3-.4.7-.6 1.3-.6 7.7.2 13.3-4 11.7.9-1.6 5-2.4 12.3 1.6 15.2.3.3.8.4 1.3.6.4.1 1.9.2 1.7-.2-.1-.4-.3-.7-.5-1.1-2.7-4.8-.4-10 .6-14.1.2-.8.7-1.3 1.6-1.2.1 0 .2-.1.2-.2.1-.6.1-.6-.3-1.2-.2-.7-.4-1.1-.1-1.6zm-4.6-1.6c-.3.6-.7 1-1.4 1-3.2-.2-4.4.8-10 1.5-.3.1-.7.1-1.2.1-.3 0 .1-.7.2-.9l20.3-25.1c.6-.7 1.2-1.2 2.2-1.3.2.2.2.5.2.7-.1.5-.3 1.1-.5 1.6-4.6 10.4-6.9 15.5-9.8 22.4zm16.1 5.6c.2-.2.5-.2.7-.4 4.9-1.8 9-7.4 9-12.3 0-6.3-4.4-6.8-9.7-6.8-1.3-.1-2.1.3-2.7 1.5 0 0-5.8 18.4-7.5 23.1-.6 1.5-.6 4.1 1.1 4.1 1.5 0 1.8-1.2 2.2-2.5.6-1.9.9-2.7 1.5-4.7.1-.4.4-1.1.7-1.1 1.5 0 2.2.9 2.7 2.1 1.2 3 1.1 5.1 4.1 6.3.7.3 1.6.1 1.9-.7.2-.6-.6-.9-1.1-1.2-.6-.3-1-.8-1.1-1.5-.5-3.4-1.3-4.4-2.1-5-.4-.3-.1-.7.3-.9zm-3.6-1.5c-.4 0-.5-.2-.5-.5 0-.9 3-9 4.5-13.7.6-1.9.9-2.1 2.1-2.1 2.7 0 4 1.6 3.9 3.6 0 5-3.4 12.7-10 12.7zm21.6-17.9c-1 0-1.4.3-1.7 1s-8.8 23.1-9.3 25.5c-.3 1.7.8 2.4 2.2 2.4.8 0 1.3-1.1 1.6-1.9l9.4-24.8c.4-1.5-.9-2.2-2.2-2.2zm13.9-.1c-4.5 0-7.3 5.2-13 17.6-.1.2-.2.5-.3.7-.4.7-.8.8-1.3.8-.6-.2-1.1-.7-1.5-1-.4-.3-1 0-1.1.5-.1 1.4 1.2 1.6 1.8 1.9.5.2.7.5.5 1-.8 2.6-1.4 4-2.1 5.9-.1.4-.3 1.3.2 1.4.3.1.6-.3.7-.6.9-2.2 1.6-4.1 2.6-6.2.4-.8.8-1.2 1.6-1.3 3.9-.4 3.9-.5 4.8-.3.4.1.7.5.6 1-.3 1.8-2 3.5-1.8 5.6 0 .9.7 1.8 1.5 1.9.9.2 1.7-.1 2.2-.9.4-.7.7-1.3.9-2.1 6-17.2 6.9-19.9 6.9-21.9 0-2.4-1.2-4-3.2-4zm-.3 4.5c-1.7 5-2.9 8.1-4.5 13-.1.3-.2.5-.3.7-.3.5-.7.7-1.2.7-1.3.1-3.2.2-4.5.1-.8-.1-1.2-.5-.8-1.3.2-.7 7.1-16 10.4-16 1.2.1 1.2 1.9.9 2.8z"/>
</svg>
