<svg xmlns="http://www.w3.org/2000/svg" viewBox="0 0 155.07 69.56">
    <defs>
        <style>
            .a{fill:none;stroke:#373737;stroke-miterlimit:10;opacity:.6}.b{fill:#373737;opacity:.1}
        </style>
    </defs>
    <title>
        newморщины
    </title>
    <path class="a" d="M47.65 62.07s33 8.5 70.5-1"/>
    <path class="a" d="M37.65 10.07s51.5 8 89-1.5"/>
    <path class="a" d="M7.65 36.57s31-6.5 62.5 1c26.43 6.29 53-6 77.5-4"/>
    <path class="b" d="M136 .41C98.79 3.3 61.38 6.27 23.95 0c-1.67 11.62 39.74 21.65 43.8 23.6-.05 5-10 5.22-18.53 5.11-6.64-.09-17.53-.37-23.85 1.66C17.2 33 12.29 32.94 0 39.68c36.22-10.56 65.37 3.61 101.41 8.74a2.08 2.08 0 0 1 1.59 3.07c-6.76 11.24-58.33 8.53-64.36 7 13.83 15.38 77.44 12.88 84.29 3.73 9.07-12.22-17.4-8.34-13.78-15.06 6.38-11.84 34.46-12.73 45.92-13.94-4.38-.22-56.58-.37-70.63-5.74a2.31 2.31 0 0 1 .34-4.48c2.87-.59 5.58-.84 21.62-5.13C120 14.29 131.82 8.41 136 .41z"/>
</svg>
